<?xml version="1.0" encoding="UTF-8"?>
<svg xmlns="http://www.w3.org/2000/svg" xmlns:xlink="http://www.w3.org/1999/xlink" version="1.2" >
<font id="Arlington">
<font-face  font-family="Arlington" units-per-em="1000" ascent="665" descent="-174" font-style="normal" font-weight="400" font-stretch="normal" cap-height="700" x-height="500" underline-position="-75" underline-thickness="50" />
<missing-glyph  horiz-adv-x="254" d="" />
<glyph glyph-name="NULL" d="" />
<glyph glyph-name="nonmarkingreturn" unicode="&#xd;" horiz-adv-x="254" d="" />
<glyph glyph-name="space" unicode="&#x20;" horiz-adv-x="254" d="" />
<glyph glyph-name="f" unicode="f" horiz-adv-x="487" d="M64 227 Q63 254 57 273.5 Q51 293 43.5 306 Q36 319 29 325.5 Q22 332 21 333 Q22 333 28.5 338 Q35 343 43 354.5 Q51 366 57.5 385 Q64 404 64 434 L64 558 Q64 576 58 591 Q53 603 39.5 613.5 Q26 624 0 624 Q4 633 13 640 Q21 646 33 651.5 Q45 657 64 657 Q86 657 104.5 651 Q123 645 137 634 Q148 644 168.5 650.5 Q189 657 225 657 L359 657 Q364 657 377.5 658.5 Q391 660 405.5 664 Q420 668 432.5 675 Q445 682 449 694 L473 674 Q461 670 455 651 Q449 632 447 605 Q445 578 446.5 547.5 Q448 517 450.5 490.5 Q453 464 456 445.5 Q459 427 460 424 Q459 424 446 421.5 Q433 419 417.5 423.5 Q402 428 389 444.5 Q376 461 376 497 Q376 502 376 506.5 Q376 511 375 516 Q369 507 362 503.5 Q355 500 348 499 Q340 498 332 500 Q337 518 333 533 Q330 546 318.5 558 Q307 570 278 573 L183 573 Q189 556 192.5 537.5 Q196 519 196 499 L196 375 Q201 383 208 392.5 Q215 402 225 413 Q244 434 253 449.5 Q262 465 265 474.5 Q268 484 267 489.5 Q266 495 265 497 Q264 498 264 499 Q307 508 329 466.5 Q351 425 348 351 Q346 326 349 310 Q352 294 356 284 Q360 273 367 266 Q350 261 336 262 Q324 263 311.5 269 Q299 275 293 292 Q285 311 283 330.5 Q281 350 280 370 Q272 370 264 366 Q249 359 237 343.5 Q225 328 216 312 Q207 296 202 283 Q197 270 196 267 L196 90 Q196 84 198.5 74 Q201 64 207.5 55 Q214 46 226.5 39.5 Q239 33 260 33 Q256 23 247 16 Q239 10 227 5 Q215 0 196 0 Q164 0 149.5 9 Q135 18 130 24 Q125 18 111 9 Q97 0 64 0 Q45 0 33 5 Q21 10 13 16 Q4 23 0 33 Q26 33 39.5 43 Q53 53 58 66 Q64 80 64 99 L64 227 Z M461 424 Q461 423 460 424 L461 424 Z " />
<glyph glyph-name="c" unicode="c" horiz-adv-x="505" d="M449 104 Q458 105 464 102 Q469 100 473.5 93.5 Q478 87 479 74 Q479 75 475.5 78 Q472 81 463 80.5 Q454 80 437.5 71.5 Q421 63 395 41 Q375 27 351 16 Q331 6 303 -1.5 Q275 -9 244 -9 Q197 -9 164 -2 Q131 5 109 18 Q102 22 98 25 Q94 28 89 32 Q75 40 56 49 Q37 58 18 56 Q25 62 30 74 Q35 85 38.5 104 Q42 123 43 155 L43 226 Q42 254 36 273.5 Q30 293 22.5 305.5 Q15 318 8 324.5 Q1 331 0 332 Q1 332 7.5 337 Q14 342 22 353.5 Q30 365 36.5 384 Q43 403 43 433 L43 496 Q43 525 49 555 Q55 585 75 609.5 Q95 634 135 649.5 Q175 665 244 665 Q268 665 296 657 Q324 649 352 642.5 Q380 636 407 636 Q434 636 456 651 L468 629 Q456 618 451.5 605 Q447 592 446 577.5 Q445 563 446 548 Q447 533 447 517 Q447 497 443 489 Q439 481 434.5 479 Q430 477 426 476 Q422 475 422 468 Q422 450 408.5 440.5 Q395 431 378.5 426.5 Q362 422 347.5 421.5 Q333 421 332 421 Q333 421 336 425 Q339 429 342.5 438 Q346 447 349 463 Q352 479 352 504 Q352 526 342.5 543 Q333 560 318 572 Q303 584 284.5 590.5 Q266 597 249 596 Q239 596 227 592 Q215 588 203.5 577.5 Q192 567 184.5 547 Q177 527 176 496 L176 231 Q186 236 198 236 Q212 236 220 230 Q228 224 233 217 Q238 209 241 199 Q222 197 208 190 Q196 184 186 172 Q176 160 178 139 Q184 106 204 86.5 Q224 67 247.5 60.5 Q271 54 294 59.5 Q317 65 330 82 Q346 104 338 127 Q330 150 302 154 Q303 161 307 167 Q310 172 316 176 Q322 180 333 180 Q335 180 337.5 179.5 Q340 179 342 179 Q342 194 341.5 215.5 Q341 237 349.5 257 Q358 277 380.5 291.5 Q403 306 449 306 L449 104 L449 104 Z " />
<glyph glyph-name="e" unicode="e" horiz-adv-x="540" d="M64 558 Q64 576 58 591 Q53 603 39.5 613.5 Q26 624 0 624 Q4 633 13 640 Q21 646 33 651.5 Q45 657 64 657 Q88 657 108 649.5 Q128 642 144 629 Q155 637 174.5 642 Q194 647 225 647 L359 647 Q364 647 377.5 648.5 Q391 650 405.5 654 Q420 658 432.5 665 Q445 672 449 684 L473 664 Q462 656 456.5 642 Q451 628 449 611.5 Q447 595 447 578 Q447 561 447 548 Q447 509 449 483.5 Q451 458 454 442 Q457 424 461 414 Q436 409 418 414 Q402 419 389 434.5 Q376 450 376 487 Q376 515 372.5 530.5 Q369 546 363.5 553.5 Q358 561 351 562 Q344 563 337 563 L186 563 Q196 534 196 499 L196 375 Q201 383 208 392.5 Q215 402 225 413 Q248 438 256.5 454.5 Q265 471 267 481 Q269 492 264 499 Q286 499 302 478 Q318 457 324.5 429.5 Q331 402 326.5 375.5 Q322 349 305 338 Q303 350 298 358 Q293 365 285.5 368.5 Q278 372 264 366 Q249 359 237 343.5 Q225 328 216 312 Q207 296 202 283 Q197 270 196 267 L196 221 Q198 221 200 221.5 Q202 222 205 222 Q219 222 227 216.5 Q235 211 240 204 Q245 196 248 186 Q232 187 221 182 Q211 177 203 166.5 Q195 156 195 135 Q195 121 196.5 109 Q198 97 204.5 88 Q211 79 225 74 Q239 69 264 69 Q288 69 302.5 82 Q317 95 324.5 114.5 Q332 134 334.5 157.5 Q337 181 337 201 Q337 251 355.5 273 Q374 295 397 302 Q423 310 458 303 Q450 288 446 264.5 Q442 241 443.5 217.5 Q445 194 453.5 173.5 Q462 153 481 144 Q467 135 457.5 115.5 Q448 96 447.5 75 Q447 54 459 38 Q471 22 502 21 L502 0 L225 0 Q190 0 169 6.5 Q148 13 137 22 Q107 0 64 0 Q45 0 33 5 Q21 10 13 16 Q4 23 0 33 Q26 33 39.5 43 Q53 53 58 66 Q64 80 64 99 L64 227 Q63 254 57 273.5 Q51 293 43.5 306 Q36 319 29 325.5 Q22 332 21 333 Q22 333 28.5 338 Q35 343 43 354.5 Q51 366 57.5 385 Q64 404 64 434 L64 558 Z " />
<glyph glyph-name="d" unicode="d" horiz-adv-x="540" d="M475 169 Q475 135 478.5 114 Q482 93 487 80 Q492 65 500 58 Q481 60 461 50.5 Q441 41 427 33 Q404 13 367.5 1.5 Q331 -10 274 -10 Q225 -10 190 3.5 Q155 17 141 25 Q108 0 64 0 Q45 0 33 5 Q21 10 13 16 Q4 23 0 33 Q26 33 39.5 43 Q53 53 58 66 Q64 80 64 99 L64 227 Q63 254 57 273.5 Q51 293 43.5 306 Q36 319 29 325.5 Q22 332 21 333 Q22 333 28.5 338 Q35 343 43 354.5 Q51 366 57.5 385 Q64 404 64 434 L64 558 Q64 576 58 591 Q53 603 39.5 613.5 Q26 624 0 624 Q4 633 13 640 Q21 646 33 651.5 Q45 657 64 657 Q113 657 146 627 Q150 630 160 636 Q170 642 186.5 648.5 Q203 655 225 659.5 Q247 664 274 664 Q336 664 394.5 643 Q453 622 502 577 Q491 577 485 564 Q479 551 477 530 Q475 509 475 483.5 Q475 458 475 434 Q475 405 481 386 Q487 367 494.5 355.5 Q502 344 508.5 339 Q515 334 517 333 Q516 332 509.5 326 Q503 320 495.5 307.5 Q488 295 482 275 Q476 255 475 227 L475 169 Z M183 86 Q197 77 216 71.5 Q235 66 255 67 Q275 68 293.5 77 Q312 86 324 105 Q333 134 326.5 150 Q320 166 309 174 Q296 184 277 186 Q280 196 285 204 Q290 211 298 216.5 Q306 222 320 222 Q332 222 342 217 L342 482 Q342 530 321.5 557 Q301 584 275.5 592 Q250 600 226.5 590.5 Q203 581 197 556 Q198 544 204 537.5 Q210 531 217 528 Q225 524 235 523 Q234 515 230 510 Q227 505 221 501.5 Q215 498 205 498 Q198 498 196 499 L196 158 Q196 138 192.5 120.5 Q189 103 183 86 Z " />
<glyph glyph-name="l" unicode="l" horiz-adv-x="521" d="M481 144 Q466 129 456 108.5 Q446 88 446 69 Q446 50 458.5 36 Q471 22 502 21 L502 0 L225 0 Q190 0 169 6.5 Q148 13 137 22 Q107 0 64 0 Q45 0 33 5 Q21 10 13 16 Q4 23 0 33 Q26 33 39.5 43 Q53 53 58 66 Q64 80 64 99 L64 221 Q64 250 58 271 Q52 292 44 305.5 Q36 319 29 325.5 Q22 332 21 333 Q22 333 28.5 338 Q35 343 43 354.5 Q51 366 57.5 385 Q64 404 64 434 L64 558 Q64 576 58 591 Q53 603 39.5 613.5 Q26 624 0 624 Q4 633 13 640 Q21 646 33 651.5 Q45 657 64 657 Q96 657 110.5 648 Q125 639 130 632 Q134 639 148 648 Q162 657 196 657 Q215 657 227 651.5 Q239 646 247 640 Q256 633 260 624 Q240 624 227.5 617.5 Q215 611 208 602 Q201 593 198.5 583 Q196 573 196 566 L196 434 Q196 405 202 386 Q208 367 215.5 355.5 Q223 344 229.5 339 Q236 334 238 333 Q237 332 230.5 326 Q224 320 216.5 306.5 Q209 293 203 272 Q197 251 196 221 Q198 221 200 221.5 Q202 222 205 222 Q219 222 227 216.5 Q235 211 240 204 Q245 196 248 186 Q232 187 221 182 Q211 177 203 166.5 Q195 156 195 135 Q195 121 196.5 109 Q198 97 204.5 88 Q211 79 225 74 Q239 69 264 69 Q288 69 302.5 82 Q317 95 324.5 114.5 Q332 134 334.5 157.5 Q337 181 337 201 Q337 251 355.5 273 Q374 295 397 302 Q423 310 458 303 Q450 288 446 264.5 Q442 241 443.5 217.5 Q445 194 453.5 173.5 Q462 153 481 144 Z " />
<glyph glyph-name="b" unicode="b" horiz-adv-x="540" d="M474 158 Q475 128 479 108 Q483 88 488 77 Q493 64 500 57 Q475 59 457 50 Q439 41 432 36 Q411 14 373 0.5 Q335 -13 274 -13 Q249 -13 227.5 -9 Q206 -5 189 1 Q172 7 159.5 13 Q147 19 140 23 Q108 -1 64 -1 Q45 -1 33 4 Q21 9 13 15 Q4 22 0 32 Q26 32 39.5 42 Q53 52 58 65 Q64 79 64 98 L64 226 Q63 253 57 272.5 Q51 292 43.5 305 Q36 318 29 324.5 Q22 331 21 332 Q22 332 28.5 337 Q35 342 43 353.5 Q51 365 57.5 384 Q64 403 64 433 L64 564 Q64 570 62 580 Q60 590 53 599.5 Q46 609 33.5 616 Q21 623 0 623 Q4 632 13 639 Q21 645 33 650.5 Q45 656 64 656 Q113 656 146 626 Q151 630 160.5 636.5 Q170 643 185 649.5 Q200 656 220 660.5 Q240 665 266 665 Q286 665 302 662.5 Q318 660 332 655 Q355 646 378 635 Q398 625 419 611 Q440 597 456 579 Q448 577 442 569 Q437 562 432 549.5 Q427 537 426 514 Q424 464 413.5 436 Q403 408 385 391 Q415 380 432.5 362.5 Q450 345 459 325 Q468 305 471 282.5 Q474 260 474 239 L474 158 Z M342 238 Q341 270 333 289.5 Q325 309 314 320 Q303 331 290.5 335 Q278 339 269 339 Q228 339 212.5 329 Q197 319 196 305 L196 157 Q196 137 192.5 118.5 Q189 100 183 83 Q199 74 219.5 69.5 Q240 65 260 66.5 Q280 68 297.5 77 Q315 86 326 106 Q335 135 328 150.5 Q321 166 310 174 Q296 183 276 185 Q279 195 284 203 Q289 210 297 215.5 Q305 221 319 221 Q332 221 342 216 L342 238 Z M262 599 Q246 599 234 592.5 Q222 586 214 577.5 Q206 569 201.5 561 Q197 553 196 550 Q198 540 204.5 534.5 Q211 529 218 526 Q226 522 234 522 Q233 514 229 509 Q226 504 220 500.5 Q214 497 204 497 L196 497 L196 400 Q212 401 233 405 Q254 409 272.5 419.5 Q291 430 303.5 449.5 Q316 469 316 500 Q316 531 312 550.5 Q308 570 300.5 581 Q293 592 283.5 595.5 Q274 599 262 599 Z " />
<glyph glyph-name="a" unicode="a" horiz-adv-x="574" d="M470 99 Q470 80 476 66 Q481 54 494.5 44 Q508 34 534 34 Q530 24 521 17 Q513 10 501 5 Q489 0 470 0 Q437 0 422.5 9 Q408 18 403 25 Q399 19 385.5 9.5 Q372 0 337 0 Q318 0 306 5 Q294 10 286 17 Q277 24 273 34 Q299 34 312 44 Q325 54 331 66.5 Q337 79 337.5 89 Q338 99 338 99 L338 270 Q337 290 329 303.5 Q321 317 307 325 Q281 337 264.5 332.5 Q248 328 239 317 Q228 305 223 285 Q212 285 205 292 Q198 299 196 310 L196 99 Q196 80 202 66 Q207 54 220.5 44 Q234 34 260 34 Q256 24 247 17 Q239 10 227 5 Q215 0 196 0 Q164 0 149.5 9 Q135 18 130 24 Q125 18 111 9 Q97 0 64 0 Q45 0 33 5 Q21 10 13 17 Q4 24 0 34 Q20 34 32 40.5 Q44 47 51 56 Q58 65 60.5 74.5 Q63 84 64 90 L64 267 Q16 268 -6 284.5 Q-28 301 -37 321 Q-48 344 -45 374 Q-8 351 17 351 Q42 351 64 364 L64 492 Q64 572 112 621 Q160 670 251 672 Q268 672 290 668 Q312 664 335.5 659 Q359 654 383 650.5 Q407 647 428 649.5 Q449 652 465.5 661.5 Q482 671 491 693 Q505 666 509 641 Q512 620 505.5 599.5 Q499 579 470 569 L470 430 Q471 402 477 382.5 Q483 363 490.5 350 Q498 337 504.5 331 Q511 325 513 324 Q511 323 504.5 318 Q498 313 490.5 302 Q483 291 477 273 Q471 255 470 229 L470 99 Z M338 499 Q338 518 343 537.5 Q348 557 356 574 Q335 580 315.5 586 Q296 592 279 595.5 Q262 599 247.5 598.5 Q233 598 223 590 Q220 571 225.5 561 Q231 551 239.5 548 Q248 545 256 546.5 Q264 548 265 551 Q265 540 262 531 Q260 523 253.5 517.5 Q247 512 235 512 Q221 512 212 517 Q203 522 198 528 Q197 520 196.5 511 Q196 502 196 492 L196 430 Q248 430 281.5 412.5 Q315 395 338 374 L338 499 Z " />
<glyph glyph-name="j" unicode="j" horiz-adv-x="495" d="M406 428 Q407 401 413 383 Q419 365 426.5 354 Q434 343 440 338.5 Q446 334 448 333 Q447 332 440.5 326 Q434 320 426.5 306.5 Q419 293 412.5 272 Q406 251 406 221 L406 139 Q407 113 411.5 96 Q416 79 421 68 Q426 56 433 49 Q416 50 395.5 43 Q375 36 365 32 Q342 14 300.5 0 Q259 -14 190 -14 Q152 -14 118.5 -8 Q85 -2 60.5 14 Q36 30 21.5 57.5 Q7 85 7 128 Q7 181 6 214.5 Q5 248 3 268 Q1 291 0 303 Q28 309 53 304 Q74 299 93.5 282 Q113 265 119 227 Q129 235 145 235 Q159 235 167 229 Q175 223 180 216 Q185 207 188 197 Q170 198 155 192 Q142 187 131.5 174.5 Q121 162 121 136 Q122 119 125 104.5 Q128 90 136 79.5 Q144 69 157.5 63.5 Q171 58 193 58 Q235 58 252 73 Q269 88 274 110 Q270 125 263.5 133.5 Q257 142 249 147 Q240 152 230 154 Q231 161 235 167 Q238 172 244 176 Q250 180 261 180 Q266 180 274 178 L274 221 Q274 250 268 271 Q262 292 254 305.5 Q246 319 239 325.5 Q232 332 231 333 Q232 333 238.5 337.5 Q245 342 252.5 353 Q260 364 266.5 382 Q273 400 274 428 L274 558 Q274 576 268 591 Q263 603 249.5 613.5 Q236 624 210 624 Q214 633 223 640 Q231 646 243 651.5 Q255 657 274 657 Q306 657 320.5 648 Q335 639 340 632 Q344 639 358 648 Q372 657 406 657 Q425 657 437 651.5 Q449 646 457 640 Q466 633 470 624 Q450 624 437.5 617.5 Q425 611 418 602 Q411 593 408.5 583 Q406 573 406 566 L406 428 L406 428 Z " />
<glyph glyph-name="w" unicode="w" horiz-adv-x="919" d="M318 539 Q345 566 372.5 570.5 Q400 575 423.5 566 Q447 557 466 538 Q485 519 496 498 Q503 503 513 503 Q530 503 537 495.5 Q544 488 546 479 Q549 468 547 456 Q537 461 530 459 Q524 457 521 449 Q518 441 523 420 L587 228 L690 558 Q695 576 692 591 Q690 603 679 613.5 Q668 624 642 624 Q646 633 655 640 Q663 646 675 651.5 Q687 657 706 657 Q739 657 755.5 647.5 Q772 638 777 632 Q779 638 791.5 647.5 Q804 657 839 657 Q858 657 870 651.5 Q882 646 890 640 Q899 633 903 624 Q871 624 854.5 609 Q838 594 830 579 L784 432 Q779 408 780 390 Q781 372 785 360 Q789 346 796 336 Q784 333 772 324 Q761 316 749.5 300.5 Q738 285 729 258 L669 69 Q674 55 687 44 Q700 33 729 33 Q725 23 716 16 Q708 10 696 5 Q684 0 665 0 Q633 0 618.5 9 Q604 18 599 24 Q594 18 580 9 Q566 0 533 0 Q514 0 502 5 Q490 10 482 16 Q473 23 469 33 Q493 33 506 42 Q519 51 525 62 Q518 81 508 108.5 Q498 136 487 165 Q476 194 466 222.5 Q456 251 449 274 Q447 267 445 260.5 Q443 254 441 247 Q434 224 425.5 199 Q417 174 408 149.5 Q399 125 391 102.5 Q383 80 377 64 Q382 52 395 42.5 Q408 33 434 33 Q430 23 421 16 Q413 10 401 5 Q389 0 370 0 Q337 0 322.5 9 Q308 18 303 25 Q299 19 285.5 9.5 Q272 0 237 0 Q218 0 206.5 5 Q195 10 187 16 Q178 23 174 33 Q201 33 214 44 Q227 55 232 69 L171 266 Q160 290 149 303.5 Q138 317 128 325 Q117 333 106 336 Q114 347 118 363 Q122 377 122.5 396.5 Q123 416 116 442 L75 571 Q73 578 68 587 Q63 596 54 604.5 Q45 613 32 618.5 Q19 624 0 624 Q4 633 13 640 Q21 646 33 651.5 Q45 657 64 657 Q96 657 108.5 648 Q121 639 125 632 Q130 638 146 647.5 Q162 657 196 657 Q215 657 227 651.5 Q239 646 247 640 Q256 633 260 624 Q237 624 226.5 616 Q216 608 212 597.5 Q208 587 209 576.5 Q210 566 211 561 L319 216 Q345 285 363.5 346.5 Q382 408 383 453 Q367 486 355 503.5 Q343 521 335 529 Q325 538 318 539 Z " />
<glyph glyph-name="m" unicode="m" horiz-adv-x="708" d="M604 99 Q604 80 610 66 Q615 53 628.5 43 Q642 33 668 33 Q664 23 655 16 Q647 10 635 5 Q623 0 604 0 Q572 0 557.5 9 Q543 18 538 24 Q533 18 519 9 Q505 0 472 0 Q453 0 441 5 Q429 10 421 16 Q412 23 408 33 Q432 34 448.5 47.5 Q465 61 469.5 77.5 Q474 94 465.5 108.5 Q457 123 432 126 Q433 133 437 139 Q440 144 446 148 Q452 152 463 152 Q465 152 467.5 151.5 Q470 151 472 151 L472 381 L397 253 Q393 232 394.5 210.5 Q396 189 413 175 Q403 170 392.5 172.5 Q382 175 375 184 L196 427 L196 176 Q204 181 215 181 Q232 181 239.5 173.5 Q247 166 251 157 Q255 146 255 134 Q239 140 227 139 Q216 138 206.5 130 Q197 122 196 101 L196 99 Q196 80 202 66 Q207 53 220.5 43 Q234 33 260 33 Q256 23 247 16 Q239 10 227 5 Q215 0 196 0 Q164 0 149.5 9 Q135 18 130 24 Q125 18 111 9 Q97 0 64 0 Q45 0 33 5 Q21 10 13 16 Q4 23 0 33 Q26 33 39.5 43 Q53 53 58 66 Q64 80 64 99 L64 227 Q63 254 57 273.5 Q51 293 43.5 306 Q36 319 29 325.5 Q22 332 21 333 Q22 333 28.5 338 Q35 343 43 354.5 Q51 366 57.5 385 Q64 404 64 434 L64 566 Q64 572 61.5 582 Q59 592 52 601.5 Q45 611 33 617.5 Q21 624 0 624 Q4 633 13 640 Q21 646 33 651.5 Q45 657 64 657 Q96 657 110.5 648 Q125 639 130 632 Q134 639 148 648 Q162 657 196 657 Q215 657 227 651.5 Q239 646 247 640 Q256 633 260 624 Q237 624 224 615.5 Q211 607 204 596 L351 410 Q366 433 383 460 Q400 487 415.5 513 Q431 539 444 561 Q457 583 464 595 Q458 606 445 615 Q432 624 408 624 Q412 633 421 640 Q429 646 441 651.5 Q453 657 472 657 Q504 657 518.5 648 Q533 639 538 632 Q542 639 556 648 Q570 657 604 657 Q623 657 635 651.5 Q647 646 655 640 Q664 633 668 624 Q648 624 635.5 617.5 Q623 611 616 602 Q609 593 606.5 583 Q604 573 604 566 L604 428 Q605 401 611 383 Q617 365 624.5 354 Q632 343 638 338.5 Q644 334 646 333 Q645 332 638.5 326 Q632 320 624.5 307.5 Q617 295 611 275 Q605 255 604 227 L604 99 L604 99 Z " />
<glyph glyph-name="t" unicode="t" horiz-adv-x="633" d="M242 657 Q263 657 277 652 Q291 647 300 639 Q309 647 322.5 652 Q336 657 358 657 L536 657 Q550 658 563.5 663.5 Q577 669 582 684 L599 667 L597 664 Q595 662 593 658 Q591 654 589 648 Q586 640 583 620 Q580 600 580 558 Q580 519 582 493.5 Q584 468 586 452 Q589 434 593 424 Q561 416 535 420 Q513 423 495.5 438 Q478 453 478 491 L478 492 Q461 484 448.5 487 Q436 490 427 496 Q416 503 409 515 Q429 515 440.5 524.5 Q452 534 457 545 Q463 558 464 575 Q460 580 455.5 584 Q451 588 446 592 Q424 605 403 605.5 Q382 606 364 598 L364 428 Q365 401 371 383 Q377 365 384.5 354 Q392 343 398 338.5 Q404 334 406 333 Q405 332 398.5 326 Q392 320 384.5 306.5 Q377 293 370.5 272 Q364 251 364 221 L364 176 Q372 181 383 181 Q400 181 407.5 173.5 Q415 166 419 157 Q423 146 423 134 Q407 140 395 138 Q384 136 374.5 128 Q365 120 364 97 Q364 95 364.5 84.5 Q365 74 371 62.5 Q377 51 390 42 Q403 33 428 33 Q424 23 415 16 Q407 10 395 5 Q383 0 364 0 Q332 0 317.5 9 Q303 18 298 24 Q293 18 279 9 Q265 0 232 0 Q213 0 201 5 Q189 10 181 16 Q172 23 168 33 Q194 33 207.5 43 Q221 53 226 66 Q232 80 232 99 L232 227 Q231 254 225 273.5 Q219 293 211.5 306 Q204 319 197 325.5 Q190 332 189 333 Q190 333 196.5 338 Q203 343 211 354.5 Q219 366 225.5 385 Q232 404 232 434 L232 600 Q214 606 194 605 Q174 604 154 592 Q149 588 144 584 Q139 580 136 575 Q137 558 143 545 Q148 534 159 524.5 Q170 515 191 515 Q184 503 173 496 Q164 490 151.5 487 Q139 484 122 492 L122 491 Q122 453 104 438 Q86 423 64 420 Q38 416 7 424 Q10 434 13 452 Q15 468 17.5 493.5 Q20 519 20 558 Q20 599 16.5 619.5 Q13 640 10 649 Q5 660 3 663 Q1 666 0 667 L18 684 Q22 670 36 664 Q50 658 64 657 L242 657 L242 657 Z " />
<glyph glyph-name="y" unicode="y" horiz-adv-x="648" d="M240 259 Q238 283 229 295.5 Q220 308 209 313 Q197 319 181 320 Q182 328 186 336 Q189 342 196 348 Q203 354 215 356 L221 356 L100 557 L99 557 L98 558 Q89 576 75 591 Q63 603 44.5 613.5 Q26 624 0 624 Q3 633 9 640 Q14 646 24.5 651.5 Q35 657 54 657 Q86 657 102 648 Q118 639 123 632 Q127 638 139.5 647.5 Q152 657 187 657 Q206 657 219.5 651.5 Q233 646 242 640 Q253 633 260 624 Q240 624 231 618 Q222 612 220 603 Q218 594 220 584.5 Q222 575 225 568 L307 435 L383 560 Q385 563 389.5 573.5 Q394 584 393.5 595.5 Q393 607 385 615.5 Q377 624 353 624 Q360 633 371 640 Q380 646 393.5 651.5 Q407 657 426 657 Q458 657 472 648 Q486 639 490 632 Q495 639 510 648 Q525 657 559 657 Q578 657 589 651.5 Q600 646 605 640 Q611 633 613 624 Q579 624 558 607.5 Q537 591 526 577 L373 326 L373 176 Q381 181 392 181 Q409 181 416.5 173.5 Q424 166 428 157 Q432 146 432 134 Q408 146 392 132.5 Q376 119 374 97 Q372 75 386.5 54.5 Q401 34 436 33 Q432 23 423 16 Q415 10 403 5 Q391 0 372 0 Q340 0 325.5 9 Q311 18 306 24 Q301 18 287 9 Q273 0 240 0 Q221 0 209 5 Q197 10 189 16 Q180 23 176 33 Q202 33 215.5 43 Q229 53 234 65 Q240 79 240 98 L240 259 Z " />
<glyph glyph-name="x" unicode="x" horiz-adv-x="658" d="M575 50 Q585 50 592 52 Q599 54 603 56 Q607 59 610 63 Q615 45 611 31 Q607 19 594 9.5 Q581 0 549 0 Q517 0 501 9 Q485 18 480 24 Q477 18 463.5 9 Q450 0 416 0 Q397 0 383.5 5 Q370 10 361 16 Q350 23 343 33 Q366 33 375.5 41 Q385 49 387.5 59 Q390 69 387 79 Q384 89 383 93 L382 95 L311 210 L241 95 Q234 77 235 64 Q236 52 245 42.5 Q254 33 280 33 Q273 23 262 16 Q253 10 239.5 5 Q226 0 207 0 Q175 0 161 9 Q147 18 142 24 Q137 18 122.5 9 Q108 0 74 0 Q42 0 29 9.5 Q16 19 12 31 Q8 45 13 63 Q16 59 20 56 Q24 54 30.5 52 Q37 50 48 50 Q65 50 80 63 Q95 76 106 90 L244 316 Q233 326 222 329 Q211 332 201 332 Q190 332 179 328 Q179 338 183 348 Q186 356 191.5 364.5 Q197 373 208 378 L87 576 Q76 591 55.5 607.5 Q35 624 0 624 Q3 633 9 640 Q14 646 24.5 651.5 Q35 657 54 657 Q86 657 101.5 648 Q117 639 122 632 Q126 639 139.5 648 Q153 657 187 657 Q206 657 219.5 651.5 Q233 646 242 640 Q253 633 260 624 Q239 624 230 617 Q221 610 219.5 600 Q218 590 221.5 580 Q225 570 228 564 L311 426 L393 560 Q395 563 399.5 573.5 Q404 584 403.5 595.5 Q403 607 395 615.5 Q387 624 363 624 Q370 633 381 640 Q390 646 403.5 651.5 Q417 657 436 657 Q468 657 482 648 Q496 639 500 632 Q505 639 520 648 Q535 657 569 657 Q587 657 598 651.5 Q609 646 614 640 Q620 633 623 624 Q589 624 566.5 605 Q544 586 524 557 L377 318 L471 165 Q476 175 483.5 183 Q491 191 505 191 Q516 191 522.5 186 Q529 181 533 176 Q537 170 539 162 Q534 160 529 156 Q524 153 519.5 148 Q515 143 513 135 Q507 121 511 106.5 Q515 92 524.5 80 Q534 68 547.5 59.5 Q561 51 575 50 Z " />
<glyph glyph-name="v" unicode="v" horiz-adv-x="639" d="M535 657 Q554 657 566 651.5 Q578 646 586 640 Q595 633 599 624 Q579 624 566.5 619.5 Q554 615 546.5 609 Q539 603 535.5 596.5 Q532 590 531 585 L511 449 Q507 419 509.5 398 Q512 377 516 363 Q520 347 527 336 Q521 333 514 323 Q508 315 500 298.5 Q492 282 483 256 Q475 201 471 170.5 Q467 140 465 125.5 Q463 111 462 107 Q461 103 461 102 Q461 97 461 86 Q461 75 463.5 62 Q466 49 472.5 36.5 Q479 24 491 17 Q475 20 459 22 Q445 24 430 23 Q415 22 402 17 Q357 -8 303.5 -8.5 Q250 -9 202 15 L203 14 Q190 21 174 23 Q158 25 144 23 Q127 21 109 17 Q121 24 127 36 Q133 48 135 61 Q137 74 137 85.5 Q137 97 137 102 L117 251 Q107 280 99 296.5 Q91 313 85 322 Q78 333 72 336 Q76 344 80 355 Q83 365 86 379.5 Q89 394 89 414 Q89 418 88.5 425 Q88 432 86.5 448 Q85 464 81.5 494 Q78 524 71 575 Q69 588 61 599 Q54 608 40 616 Q26 624 0 624 Q4 633 13 640 Q21 646 33 651.5 Q45 657 64 657 Q96 657 110.5 648 Q125 639 130 632 Q134 639 148 648 Q162 657 196 657 Q215 657 227 651.5 Q239 646 247 640 Q256 633 260 624 Q240 624 228.5 619.5 Q217 615 211 609 Q205 603 203.5 596.5 Q202 590 202 585 L266 128 Q272 77 282.5 62 Q293 47 303.5 55 Q314 63 321 85.5 Q328 108 326.5 132 Q325 156 313 173 Q301 190 272 187 Q275 197 280 205 Q285 212 293 218 Q301 224 315 224 Q333 224 345 214 L398 581 Q398 585 397.5 592 Q397 599 391 606 Q385 613 373 618.5 Q361 624 339 624 Q343 633 352 640 Q360 646 372 651.5 Q384 657 403 657 Q435 657 450 647.5 Q465 638 470 632 Q474 638 487 647.5 Q500 657 535 657 Z " />
<glyph glyph-name="z" unicode="z" horiz-adv-x="547" d="M326 581 L215 581 Q208 581 196 581 Q184 581 172 575.5 Q160 570 151.5 557.5 Q143 545 143 520 Q143 494 128.5 479.5 Q114 465 96 458 Q78 451 62.5 449.5 Q47 448 45 448 Q46 448 48 451 Q50 454 52 464 Q54 474 55.5 493 Q57 512 57 545 Q57 587 53.5 608 Q50 629 47 637 Q42 648 40 651 Q38 654 37 655 L55 672 Q59 658 73 652 Q87 646 101 645 L387 645 Q424 645 448.5 650.5 Q473 656 473 679 Q473 679 479 676.5 Q485 674 490.5 665.5 Q496 657 496 640 Q496 623 483 595 L484 595 Q481 589 477 582 Q473 575 464.5 560.5 Q456 546 441 520.5 Q426 495 401 452 Q397 444 391.5 431 Q386 418 382 401.5 Q378 385 377 365.5 Q376 346 381 327 Q369 330 356 326 Q345 323 331 313 Q317 303 303 281 Q299 275 295.5 268.5 Q292 262 281 243 Q270 224 248 186.5 Q226 149 187 82 Q203 77 224.5 74 Q246 71 278 71 Q284 71 296.5 71 Q309 71 321.5 74.5 Q334 78 345 86.5 Q356 95 361 112 Q360 135 353 146.5 Q346 158 338 163 Q328 169 315 170 Q315 178 319 184 Q322 189 328 194 Q334 199 345 201 Q358 202 368 196 Q378 244 400 267 Q422 290 445 299 Q471 310 503 307 Q493 283 485 240 Q477 197 474.5 151 Q472 105 476.5 63 Q481 21 495 -3 L478 -20 Q473 -6 459.5 -0.5 Q446 5 432 7 L118 7 Q103 7 85 6 Q67 5 51.5 2 Q36 -1 25.5 -7.5 Q15 -14 15 -25 Q15 -26 9 -21 Q3 -16 2 -2 Q1 12 9.5 37 Q18 62 47 102 L160 295 L158 294 Q167 308 167 323 Q167 338 163 350 Q159 364 149 377 Q167 376 183.5 385 Q200 394 214.5 407.5 Q229 421 239.5 436 Q250 451 256 460 L326 581 Z " />
<glyph glyph-name="u" unicode="u" horiz-adv-x="574" d="M469 428 Q470 401 476 383 Q482 365 489.5 354 Q497 343 503 338.5 Q509 334 511 333 Q510 332 503.5 326 Q497 320 489.5 307.5 Q482 295 476 275 Q470 255 469 227 L469 127 Q470 87 473.5 63 Q477 39 482 26 Q487 11 494 5 Q479 14 461 16 Q443 18 426.5 16 Q410 14 397 10.5 Q384 7 380 6 Q360 -2 332 -6.5 Q304 -11 269 -11 L263 -11 Q192 -11 151.5 5.5 Q111 22 91.5 47.5 Q72 73 67.5 104.5 Q63 136 63 165 L63 227 Q62 254 56 273.5 Q50 293 42.5 306 Q35 319 28 325.5 Q21 332 20 333 Q21 333 27.5 338 Q34 343 42 354.5 Q50 366 56.5 385 Q63 404 63 434 L63 566 Q63 572 60.5 582 Q58 592 51 601 Q44 610 32 616.5 Q20 623 -1 623 Q3 632 12 640 Q20 646 32 651.5 Q44 657 63 657 Q95 657 109.5 648 Q124 639 129 632 Q133 639 147 648 Q161 657 195 657 Q214 657 226 651.5 Q238 646 246 640 Q255 632 259 623 Q239 623 226.5 616.5 Q214 610 207 601 Q200 592 197.5 582.5 Q195 573 195 566 L195 434 Q195 405 201 386 Q207 367 214.5 355.5 Q222 344 228.5 339 Q235 334 237 333 Q236 332 229.5 326 Q223 320 215.5 307.5 Q208 295 202 275 Q196 255 195 227 Q195 198 195 180 Q195 162 195.5 151.5 Q196 141 196.5 135.5 Q197 130 198 126 Q203 133 211 139 Q219 145 234 145 Q247 145 253.5 139 Q260 133 262 125 Q265 116 264 105 Q264 109 256.5 112 Q249 115 241 112.5 Q233 110 228 100.5 Q223 91 228 70 Q244 58 263 58 Q279 58 292 61.5 Q305 65 314.5 75.5 Q324 86 329.5 105.5 Q335 125 336 156 Q334 179 323.5 190.5 Q313 202 301 207 Q287 213 269 213 Q272 223 277 231 Q282 238 290 243.5 Q298 249 312 249 Q325 249 336 243 L336 566 Q336 572 333.5 582 Q331 592 324 601 Q317 610 305 616.5 Q293 623 272 623 Q276 632 285 640 Q293 646 305 651.5 Q317 657 336 657 Q369 657 383.5 647.5 Q398 638 402 631 Q406 637 420 647 Q434 657 469 657 Q488 657 500 651.5 Q512 646 520 640 Q529 632 533 623 Q513 623 500.5 616.5 Q488 610 481 601 Q474 592 471.5 582.5 Q469 573 469 566 L469 428 L469 428 Z " />
<glyph glyph-name="n" unicode="n" horiz-adv-x="583" d="M479 428 Q480 401 486 383 Q492 365 499.5 354 Q507 343 513 338.5 Q519 334 521 333 Q520 332 513.5 326 Q507 320 499.5 307.5 Q492 295 486 275 Q480 255 479 227 L479 86 Q500 57 523 57 Q546 57 561 80 Q565 58 558 40 Q552 25 533.5 12.5 Q515 0 476 0 Q446 0 422 14.5 Q398 29 381 47 Q362 68 347 95 L196 368 L196 176 Q204 181 215 181 Q232 181 239.5 173.5 Q247 166 251 157 Q255 146 255 134 Q237 143 224 139.5 Q211 136 204 125 Q197 114 196 99 Q195 84 201.5 70 Q208 56 222.5 45 Q237 34 260 33 Q256 23 247 16 Q239 10 227 5 Q215 0 196 0 Q164 0 149.5 9 Q135 18 130 24 Q125 18 111 9 Q97 0 64 0 Q45 0 33 5 Q21 10 13 16 Q4 23 0 33 Q26 33 39.5 43 Q53 53 58 66 Q64 80 64 99 L64 227 Q63 254 57 273.5 Q51 293 43.5 306 Q36 319 29 325.5 Q22 332 21 333 Q22 333 28.5 338 Q35 343 43 354.5 Q51 366 57.5 385 Q64 404 64 434 L64 566 Q64 572 61.5 582 Q59 592 52 601.5 Q45 611 33 617.5 Q21 624 0 624 Q4 633 13 640 Q21 646 33 651.5 Q45 657 64 657 Q96 657 110.5 648 Q125 639 130 632 Q134 639 148 648 Q162 657 196 657 Q215 657 227 651.5 Q239 646 247 640 Q256 633 260 624 Q235 624 222 614.5 Q209 605 203 593 L344 339 L347 332 L347 558 Q347 576 341 591 Q336 603 322.5 613.5 Q309 624 283 624 Q287 633 296 640 Q304 646 316 651.5 Q328 657 347 657 Q379 657 393.5 648 Q408 639 413 632 Q417 639 431 648 Q445 657 479 657 Q498 657 510 651.5 Q522 646 530 640 Q539 633 543 624 Q517 624 503.5 613.5 Q490 603 485 591 Q479 576 479 558 L479 428 Z " />
<glyph glyph-name="q" unicode="q" horiz-adv-x="543" d="M41 490 Q41 519 46 550 Q51 581 70.5 607 Q90 633 130.5 649.5 Q171 666 242 666 L259 666 Q328 666 367.5 650.5 Q407 635 427.5 610 Q448 585 453.5 555 Q459 525 460 497 L460 163 Q460 136 456 107 Q452 78 435.5 53 Q419 28 386.5 10.5 Q354 -7 296 -11 Q320 -22 336 -38 Q352 -54 367 -69 Q382 -84 399 -95 Q416 -106 441 -106 Q464 -106 479.5 -93 Q495 -80 501.5 -62 Q508 -44 505.5 -25 Q503 -6 491 6 Q505 5 516 -2 Q526 -8 534 -22 Q542 -36 542 -62 Q542 -89 532 -109.5 Q522 -130 506 -144.5 Q490 -159 469 -166.5 Q448 -174 426 -174 Q378 -174 347 -158 Q316 -142 292 -123.5 Q268 -105 247.5 -89 Q227 -73 200 -73 Q166 -73 150 -85.5 Q134 -98 128 -113 Q121 -131 123 -153 Q114 -151 107 -147 Q101 -143 96.5 -135 Q92 -127 92 -113 Q92 -102 96.5 -87 Q101 -72 110.5 -57 Q120 -42 136.5 -29 Q153 -16 177 -8 Q129 -1 102 17 Q75 35 61.5 59 Q48 83 44.5 110 Q41 137 41 163 L41 226 Q40 253 34 272.5 Q28 292 20.5 305 Q13 318 6.5 324.5 Q0 331 -1 332 Q-1 332 6 337 Q13 342 20.5 353.5 Q28 365 34.5 384 Q41 403 41 433 L41 490 Z M174 172 Q181 178 193 178 Q204 178 210.5 173 Q217 168 221 163 Q225 157 227 149 Q215 147 205 142 Q197 137 189.5 128 Q182 119 183 104 Q193 78 208.5 68 Q224 58 238 56 Q256 56 264 56.5 Q272 57 277 58 Q288 61 299.5 70 Q311 79 319 98 Q325 117 325.5 138.5 Q326 160 319 178.5 Q312 197 297.5 211 Q283 225 261 231 Q264 241 269 249 Q274 256 282 261.5 Q290 267 304 267 Q317 267 327 262 L327 496 Q326 525 319.5 543.5 Q313 562 303.5 573.5 Q294 585 283 590 Q272 595 262 596 Q256 596 250 597 Q244 598 238 596 Q228 595 217 590 Q206 585 197 574 Q188 563 181.5 544 Q175 525 174 497 L174 172 Z " />
<glyph glyph-name="o" unicode="o" horiz-adv-x="543" d="M462 427 Q463 400 469 382 Q475 364 482.5 353 Q490 342 496 337.5 Q502 333 504 332 Q503 331 496.5 325 Q490 319 482.5 305.5 Q475 292 468.5 271 Q462 250 462 220 L462 158 Q462 124 465.5 103 Q469 82 474 69 Q479 54 487 47 Q452 41 428 31 Q404 21 380 11.5 Q356 2 326.5 -4.5 Q297 -11 252 -11 Q178 -11 136 5.5 Q94 22 73.5 47.5 Q53 73 48 104.5 Q43 136 43 165 L43 226 Q42 253 36 272.5 Q30 292 22.5 305 Q15 318 8.5 324.5 Q2 331 1 332 Q1 332 8 337 Q15 342 22.5 353.5 Q30 365 36.5 384 Q43 403 43 433 L43 491 Q43 520 48 551.5 Q53 583 73.5 608.5 Q94 634 136 650.5 Q178 667 252 667 Q312 667 376 649 Q440 631 488 586 Q476 586 470.5 572 Q465 558 463 535 Q461 512 461.5 483.5 Q462 455 462 427 Z M188 102 Q199 76 218 64.5 Q237 53 256.5 55 Q276 57 294 72 Q312 87 321 114 Q326 139 317.5 153 Q309 167 297 175 Q283 184 263 186 Q266 196 271 204 Q276 211 284 216.5 Q292 222 306 222 Q319 222 329 217 L329 491 Q329 545 305 572.5 Q281 600 252.5 601 Q224 602 200 575 Q176 548 176 491 L176 427 Q177 400 183 382 Q189 364 196.5 353 Q204 342 210.5 337.5 Q217 333 219 332 Q218 331 211.5 325 Q205 319 197.5 306.5 Q190 294 183.5 274 Q177 254 176 226 L176 174 Q183 180 195 180 Q206 180 212.5 175 Q219 170 223 165 Q227 159 229 151 Q215 150 205 145 Q197 140 191 130 Q185 120 188 102 Z " />
<glyph glyph-name="r" unicode="r" horiz-adv-x="553" d="M64 558 Q64 576 58 591 Q53 603 39.5 613.5 Q26 624 0 624 Q4 633 13 640 Q21 646 33 651.5 Q45 657 64 657 Q90 657 111 648.5 Q132 640 148 625 Q160 638 184 651.5 Q208 665 251 665 Q276 665 309.5 660.5 Q343 656 375.5 645.5 Q408 635 436.5 619 Q465 603 481 580 Q474 576 469 565 Q464 556 460 540.5 Q456 525 456 501 L456 499 Q451 420 415 376.5 Q379 333 327 311 Q362 307 389.5 282.5 Q417 258 427 216 Q434 184 437 157.5 Q440 131 444 111.5 Q448 92 455 81.5 Q462 71 478 71 Q491 71 498.5 74 Q506 77 511 81 Q516 85 518 91 Q526 64 522 43 Q518 25 501 10 Q484 -5 442 -5 Q401 -5 376.5 10 Q352 25 338 48.5 Q324 72 318 101.5 Q312 131 307.5 160.5 Q303 190 298.5 217 Q294 244 282.5 262.5 Q271 281 251 287.5 Q231 294 196 283 L196 90 Q196 84 198.5 74 Q201 64 207.5 55 Q214 46 226.5 39.5 Q239 33 260 33 Q256 23 247 16 Q239 10 227 5 Q215 0 196 0 Q164 0 149.5 9 Q135 18 130 24 Q125 18 111 9 Q97 0 64 0 Q45 0 33 5 Q21 10 13 16 Q4 23 0 33 Q20 33 32 39.5 Q44 46 51 55 Q58 64 60.5 73.5 Q63 83 64 90 L64 227 Q63 254 57 273.5 Q51 293 43.5 306 Q36 319 29 325.5 Q22 332 21 333 Q22 333 28.5 337.5 Q35 342 42.5 353 Q50 364 56.5 382 Q63 400 64 428 L64 558 Z M254 597 Q237 597 226 592 Q215 587 208 580 Q201 573 198 564.5 Q195 556 194 550 Q196 540 202.5 535 Q209 530 215 527 Q222 523 231 523 Q230 515 226 510 Q223 505 217 501.5 Q211 498 201 498 L196 498 L196 343 Q218 351 247.5 368 Q277 385 300 411 Q305 426 301.5 437 Q298 448 291 454 Q284 460 275.5 461 Q267 462 262 459 Q264 468 269 476 Q274 482 281.5 487.5 Q289 493 303 493 Q314 493 320 488 Q326 483 331 475 Q335 494 332.5 515.5 Q330 537 320.5 555 Q311 573 294.5 585 Q278 597 254 597 Z " />
<glyph glyph-name="s" unicode="s" horiz-adv-x="487" d="M416 632 Q404 621 399.5 608 Q395 595 394 580.5 Q393 566 394 551 Q395 536 395 520 Q395 500 391 492 Q387 484 382.5 482 Q378 480 374 479 Q370 478 370 471 Q370 453 356.5 443.5 Q343 434 326.5 429.5 Q310 425 295.5 424.5 Q281 424 280 424 Q281 424 284 428 Q287 432 290.5 441 Q294 450 297 466 Q300 482 300 507 Q300 545 279 570.5 Q258 596 218 599 L217 599 Q208 599 196.5 594.5 Q185 590 175 579.5 Q165 569 158 552.5 Q151 536 151 512 Q151 492 162.5 475 Q174 458 193 442.5 Q212 427 236 412 Q260 397 285 382 Q293 378 311 376 Q329 374 360 387 Q359 375 362 363 Q364 352 369.5 338 Q375 324 386 310 Q414 281 430.5 246 Q447 211 451 175.5 Q455 140 446 106.5 Q437 73 414 47.5 Q391 22 354.5 6.5 Q318 -9 266 -9 Q227 -9 200 -6 Q145 -4 108.5 -5 Q72 -6 49 -8 Q23 -11 7 -16 Q32 -3 41 26.5 Q50 56 52 87 Q54 123 48 164 L17 164 L17 197 Q60 199 91.5 208 Q123 217 143 226 Q167 237 183 249 L200 233 Q191 228 183 216 Q176 205 170 185.5 Q164 166 163 132 Q162 106 165 90.5 Q168 75 173 66 Q180 55 190.5 50.5 Q201 46 216 46 Q232 46 248 51.5 Q264 57 277.5 68.5 Q291 80 299.5 97.5 Q308 115 308 139 Q308 171 294 196 Q280 221 261 240 Q242 259 222.5 271.5 Q203 284 192 292 L192 291 Q172 304 155.5 307 Q139 310 125 308 Q109 306 96 299 Q98 316 93 330.5 Q88 345 82 356 Q75 368 65 379 Q20 419 10.5 469.5 Q1 520 21.5 564 Q42 608 91 638 Q140 668 212 668 L214 668 Q234 668 260 660.5 Q286 653 312.5 646.5 Q339 640 363 639.5 Q387 639 404 654 L416 632 Z " />
<glyph glyph-name="p" unicode="p" horiz-adv-x="531" d="M64 558 Q64 576 58 591 Q53 603 39.5 613.5 Q26 624 0 624 Q4 633 13 640 Q21 646 33 651.5 Q45 657 64 657 Q90 657 111.5 648 Q133 639 150 624 Q165 637 193 651 Q221 665 263 665 Q325 665 384 643.5 Q443 622 491 576 Q480 576 474.5 563.5 Q469 551 466.5 532.5 Q464 514 464 491.5 Q464 469 464 449 Q464 420 458 386 Q452 352 432 323 Q412 294 372 275 Q332 256 263 256 Q243 256 226.5 259 Q210 262 196 267 L196 90 Q196 84 198.5 74 Q201 64 207.5 55 Q214 46 226.5 39.5 Q239 33 260 33 Q256 23 247 16 Q239 10 227 5 Q215 0 196 0 Q164 0 149.5 9 Q135 18 130 24 Q125 18 111 9 Q97 0 64 0 Q45 0 33 5 Q21 10 13 16 Q4 23 0 33 Q26 33 39.5 43 Q53 53 58 66 Q64 80 64 99 L64 227 Q63 254 57 273.5 Q51 293 43.5 306 Q36 319 29 325.5 Q22 332 21 333 Q22 333 28.5 338 Q35 343 43 354.5 Q51 366 57.5 385 Q64 404 64 434 L64 558 Z M258 325 Q271 325 287.5 331.5 Q304 338 316 361 Q324 390 317 406 Q310 422 299 430 Q286 440 266 442 Q269 452 274 460 Q279 467 287 472.5 Q295 478 309 478 Q321 478 331 473 Q331 510 323 532.5 Q315 555 304 567.5 Q293 580 280.5 584 Q268 588 258 588 Q231 588 217 580 Q203 572 197 562 Q196 548 201.5 540.5 Q207 533 215 529 Q224 525 235 523 Q234 515 230 510 Q223 497 205 497 Q198 497 196 498 L196 374 Q196 364 197.5 355 Q199 346 205.5 339.5 Q212 333 224.5 329 Q237 325 258 325 Z " />
<glyph glyph-name="k" unicode="k" horiz-adv-x="550" d="M64 566 Q64 572 61.5 582 Q59 592 52 601.5 Q45 611 33 617.5 Q21 624 0 624 Q4 633 13 640 Q21 646 33 651.5 Q45 657 64 657 Q96 657 110.5 648 Q125 639 130 632 Q134 639 148 648 Q162 657 196 657 Q215 657 227 651.5 Q239 646 247 640 Q256 633 260 624 Q240 624 227.5 617.5 Q215 611 208 602 Q201 593 198.5 583 Q196 573 196 566 L196 399 Q214 399 237.5 403.5 Q261 408 282 421 Q303 434 317.5 459 Q332 484 332 525 L332 579 Q331 586 329 594 Q327 602 321.5 608.5 Q316 615 307.5 619.5 Q299 624 286 624 Q288 633 293 640 Q298 646 307 651.5 Q316 657 332 657 Q361 657 374.5 647.5 Q388 638 392 632 Q396 638 408.5 647.5 Q421 657 452 657 Q469 657 480 651.5 Q491 646 498 640 Q506 633 510 624 Q490 624 477.5 616.5 Q465 609 457.5 598.5 Q450 588 446.5 577.5 Q443 567 442 562 L442 489 Q438 435 411 404.5 Q384 374 344 359 Q345 358 347 358 Q375 348 400 337 Q421 327 441 314 Q461 301 469 287 Q459 287 455 273.5 Q451 260 450 236 Q449 212 449.5 180 Q450 148 450 111 Q449 95 453 84 Q456 73 464 65 Q472 57 489 57 Q501 57 508 61.5 Q515 66 519 72 Q523 79 524 88 Q529 63 521 44 Q514 27 492.5 13.5 Q471 0 423 0 Q381 0 359 18 Q337 36 328 62.5 Q319 89 318.5 118 Q318 147 318 168 Q318 193 318.5 223 Q319 253 313 278.5 Q307 304 291 321 Q275 338 242 338 Q216 338 206.5 326.5 Q197 315 196 297 L196 176 Q204 181 215 181 Q232 181 239.5 173.5 Q247 166 251 157 Q255 146 255 134 Q237 143 224.5 139.5 Q212 136 204.5 125.5 Q197 115 196.5 100 Q196 85 202.5 70.5 Q209 56 223 45.5 Q237 35 260 33 Q256 23 247 16 Q239 10 227 5 Q215 0 196 0 Q164 0 149.5 9 Q135 18 130 24 Q125 18 111 9 Q97 0 64 0 Q45 0 33 5 Q21 10 13 16 Q4 23 0 33 Q26 33 39.5 43 Q53 53 58 66 Q64 80 64 99 L64 227 Q63 254 57 273.5 Q51 293 43.5 306 Q36 319 29 325.5 Q22 332 21 333 Q22 333 28.5 337.5 Q35 342 42.5 353 Q50 364 56.5 382 Q63 400 64 428 L64 566 Z " />
<glyph glyph-name="D" unicode="D" horiz-adv-x="566" d="M92 660 Q92 678 86 693 Q81 705 67.5 715.5 Q54 726 28 726 Q32 735 41 742 Q49 748 61 753.5 Q73 759 92 759 Q117 759 137 751.5 Q157 744 173 730 Q176 734 184 740.5 Q192 747 205 753 Q218 759 237 763.5 Q256 768 281 768 Q312 768 345 763 Q378 758 410.5 747 Q443 736 473.5 719.5 Q504 703 528 681 Q514 681 508.5 661 Q503 641 501 607 Q499 573 500 526.5 Q501 480 501 428 Q502 401 508 383 Q514 365 521.5 354 Q529 343 535 338.5 Q541 334 543 333 Q542 332 535.5 326 Q529 320 521.5 307.5 Q514 295 508 275 Q502 255 501 227 L501 113 Q501 78 504.5 56.5 Q508 35 513 22 Q518 7 526 -1 Q514 0 500.5 -3.5 Q487 -7 474 -11.5 Q461 -16 450.5 -21.5 Q440 -27 434 -30 Q409 -47 372 -58 Q335 -69 281 -69 Q254 -69 234 -63.5 Q214 -58 200 -50 Q168 -103 92 -103 Q73 -103 61 -98 Q49 -93 41 -87 Q32 -80 28 -70 Q54 -70 67.5 -52.5 Q81 -35 86 -14 Q92 11 92 42 L92 227 Q91 254 85 273.5 Q79 293 71.5 306 Q64 319 57 325.5 Q50 332 49 333 Q50 333 56.5 338 Q63 343 71 354.5 Q79 366 85.5 385 Q92 404 92 434 L92 660 Z M368 586 Q368 620 357.5 641 Q347 662 332 673.5 Q317 685 301.5 689 Q286 693 276 693 Q250 693 239 687.5 Q228 682 225 672 Q223 656 228.5 647.5 Q234 639 242 634 Q251 629 263 627 Q262 619 258 614 Q255 609 249 605.5 Q243 602 233 602 Q226 602 224 603 L224 49 Q224 41 225 33.5 Q226 26 231 21 Q236 16 246.5 13 Q257 10 276 10 Q283 10 294 12 Q305 14 316.5 19.5 Q328 25 338.5 35 Q349 45 357 61 Q360 84 352 97 Q344 110 333 117 Q320 125 303 127 Q306 137 311 145 Q316 152 324 157.5 Q332 163 346 163 Q358 163 368 158 L368 586 Z M68 383 Q64 375 58.5 367 Q53 359 44 354 Q44 440 44 488 Q44 536 43 546 Q43 581 32.5 594 Q22 607 19 609 Q21 609 27.5 618.5 Q34 628 34 656 Q34 670 29 680.5 Q24 691 18 698 Q11 706 2 712 Q30 712 44.5 699.5 Q59 687 65 667 Q71 647 71 623 Q71 599 71 575 Q71 550 70 519 Q69 493 68.5 458 Q68 423 68 383 Z M44 309 Q50 306 58.5 294.5 Q67 283 68 276 Q68 229 69 178.5 Q70 128 68 77 Q68 23 57.5 -3 Q47 -29 34 -40 Q19 -52 0 -49 Q20 -36 29.5 -14.5 Q39 7 43 28 Q47 53 47 79 L44 309 Z " />
<glyph glyph-name="V" unicode="V" horiz-adv-x="609" d="M610 798 Q629 798 641 792.5 Q653 787 661 781 Q670 774 674 765 Q647 765 629.5 754 Q612 743 602 728 Q592 713 587.5 698.5 Q583 684 582 678 L552 444 Q549 415 551.5 393 Q554 371 559 356 Q564 338 571 326 Q565 323 558 312 Q552 303 543.5 286.5 Q535 270 526 241 Q516 164 510.5 122 Q505 80 502.5 59.5 Q500 39 499 34.5 Q498 30 498 29 Q498 24 498 13 Q498 2 500.5 -11 Q503 -24 509.5 -36.5 Q516 -49 528 -56 Q512 -53 496 -51 Q482 -49 467 -49.5 Q452 -50 439 -55 Q413 -70 385.5 -75.5 Q358 -81 339 -82 L334 -82 Q319 -82 292 -77 Q265 -72 239 -58 L240 -59 Q227 -52 211 -50 Q195 -48 181 -50 Q164 -52 146 -56 Q158 -49 164 -37.5 Q170 -26 172 -13 Q174 0 174 14 Q174 28 173 41 L147 246 Q137 275 129 291.5 Q121 308 115 317 Q108 328 102 331 Q110 342 115 360 Q120 375 122.5 397.5 Q125 420 121 451 L121 452 Q120 453 120 456 L103 594 L97 638 L94 653 Q83 693 65.5 707.5 Q48 722 31 719 Q14 716 0 701 Q-14 686 -18 666.5 Q-22 647 -13 628.5 Q-4 610 25 600 Q20 576 -2 566.5 Q-24 557 -48.5 563.5 Q-73 570 -93 592.5 Q-113 615 -113 654 Q-113 675 -102.5 696.5 Q-92 718 -73 735.5 Q-54 753 -27.5 764.5 Q-1 776 31 776 Q71 776 100.5 765.5 Q130 755 151 741 Q155 748 169 757 Q183 766 217 766 Q236 766 248 760.5 Q260 755 268 749 Q277 742 281 733 Q255 733 243 726 Q231 719 226.5 710 Q222 701 222.5 693.5 Q223 686 223 686 Q244 523 258 410.5 Q272 298 281.5 224 Q291 150 296.5 109 Q302 68 304.5 47.5 Q307 27 307.5 21.5 Q308 16 309 14 Q312 1 319 -10 Q326 -21 343 -19 Q356 -13 364 7.5 Q372 28 369.5 51 Q367 74 353 93 Q339 112 309 114 Q312 124 317 132 Q322 139 330 145 Q338 151 352 151 Q369 151 381 141 L451 687 L451 688 Q452 700 447 711 Q442 719 430 726.5 Q418 734 392 734 Q396 743 405 750 Q413 756 425 761.5 Q437 767 456 767 Q490 767 504.5 757 Q519 747 524 741 Q527 747 534.5 756.5 Q542 766 552.5 775 Q563 784 577.5 791 Q592 798 610 798 Z M84 579 Q87 552 88.5 534.5 Q90 517 91.5 499.5 Q93 482 95 461 Q97 440 102 406 Q102 402 101 395 Q100 388 98 380 Q96 372 93 365.5 Q90 359 86 356 Q80 399 77 426 Q74 453 72 469 Q70 485 69 493 Q68 501 67 506 Q61 541 51.5 555 Q42 569 39 571 Q41 572 46 580.5 Q51 589 47 616 Q45 629 38.5 639 Q32 649 24.5 656 Q17 663 10.5 667 Q4 671 2 672 Q31 671 47 656.5 Q63 642 71 625 Q81 605 84 579 Z M148 84 Q156 30 149.5 2 Q143 -26 132 -39 Q120 -54 101 -54 Q118 -41 124.5 -17.5 Q131 6 132 29 Q133 56 127 86 L94 300 Q96 298 105.5 287 Q115 276 122 266 Q129 219 135.5 177 Q142 135 148 84 Z " />
<glyph glyph-name="A" unicode="A" horiz-adv-x="621" d="M393 270 Q392 290 384 303.5 Q376 317 362 325 Q336 337 319.5 332.5 Q303 328 294 317 Q283 305 278 285 Q267 285 260 292 Q253 299 251 310 L251 21 Q251 15 253.5 5.5 Q256 -4 262.5 -13 Q269 -22 281.5 -28.5 Q294 -35 315 -35 Q311 -45 302 -52 Q294 -59 282 -64 Q270 -69 251 -69 Q220 -69 205 -60.5 Q190 -52 185 -45 Q182 -53 174 -69.5 Q166 -86 151.5 -103 Q137 -120 115.5 -132.5 Q94 -145 64 -145 Q45 -145 33 -140 Q21 -135 13 -129 Q4 -122 0 -112 Q30 -112 52 -101 Q74 -90 88.5 -71.5 Q103 -53 110.5 -29.5 Q118 -6 119 19 L119 267 Q69 268 43.5 285 Q18 302 7 322 Q-6 346 -5 375 Q14 360 30.5 354 Q47 348 62 349.5 Q77 351 91 357.5 Q105 364 119 373 L119 592 Q119 651 136.5 685 Q154 719 182.5 735 Q211 751 247.5 754 Q284 757 323 754 Q362 751 399.5 747 Q437 743 468 744.5 Q499 746 520 758 Q541 770 546 800 Q546 800 553.5 783 Q561 766 564 743.5 Q567 721 560 699 Q553 677 523 668 Q525 662 525 661 L525 658 L525 430 Q526 402 532 382.5 Q538 363 545.5 350.5 Q553 338 559 331.5 Q565 325 567 324 Q566 324 559.5 319 Q553 314 545.5 302.5 Q538 291 531.5 272 Q525 253 525 223 L525 21 Q525 15 527.5 5.5 Q530 -4 536.5 -13 Q543 -22 555.5 -28.5 Q568 -35 589 -35 Q585 -45 576 -52 Q568 -59 556 -64 Q544 -69 525 -69 Q492 -69 477.5 -59.5 Q463 -50 458 -44 Q454 -50 440.5 -59.5 Q427 -69 392 -69 Q373 -69 361 -64 Q349 -59 341 -52 Q332 -45 328 -35 Q354 -35 367 -25 Q380 -15 386 -2.5 Q392 10 392.5 20 Q393 30 393 30 L393 270 Z M286 607 Q273 607 265 611.5 Q257 616 252 622 Q251 615 251 607.5 Q251 600 251 592 L251 430 Q303 430 336.5 412.5 Q370 395 393 374 L393 581 Q393 588 391.5 599.5 Q390 611 387.5 622.5 Q385 634 382 643 Q379 652 375 653 L424 674 Q403 680 382.5 686 Q362 692 343.5 695.5 Q325 699 309 698.5 Q293 698 281 689 Q274 670 279.5 660.5 Q285 651 294 648 Q303 645 311.5 646.5 Q320 648 320 652 Q323 649 323.5 641.5 Q324 634 321 626.5 Q318 619 309.5 613 Q301 607 286 607 Z M95 374 Q93 372 84 368.5 Q75 365 71 367 Q71 453 71 494.5 Q71 536 70 546 Q70 581 59.5 594 Q49 607 46 609 Q48 609 54.5 618.5 Q61 628 61 656 Q61 670 56 680.5 Q51 691 45 698 Q38 706 29 712 Q58 712 72 697 Q86 682 92 665 Q99 645 98 619 Q96 565 96 504 Q96 443 95 374 Z M71 261 Q85 254 95 257 Q95 210 96 165 Q97 120 95 69 Q95 15 84.5 -13 Q74 -41 61 -54 Q46 -69 27 -69 Q47 -56 56.5 -32.5 Q66 -9 70 14 Q74 41 74 71 L71 261 Z " />
<glyph glyph-name="F" unicode="F" horiz-adv-x="568" d="M357 510 Q365 509 372 504 Q377 499 382 489.5 Q387 480 387 462 Q387 443 386 424.5 Q385 406 387 389.5 Q389 373 397.5 360 Q406 347 425 340 Q417 329 408 320 Q400 312 390 306.5 Q380 301 368 301 Q348 301 332 317.5 Q316 334 318 374 Q289 332 251 298 L251 107 Q259 112 270 112 Q287 112 294.5 104.5 Q302 97 306 88 Q310 77 310 65 Q292 74 279 70.5 Q266 67 259 56 Q252 45 251.5 30 Q251 15 257.5 1 Q264 -13 278 -24 Q292 -35 315 -36 Q311 -46 302 -53 Q294 -59 282 -64 Q270 -69 251 -69 Q220 -69 205 -60.5 Q190 -52 185 -45 Q182 -53 174 -69.5 Q166 -86 151.5 -103 Q137 -120 115.5 -133 Q94 -146 64 -146 Q45 -146 33 -141 Q21 -136 13 -130 Q4 -123 0 -113 Q30 -113 52 -102 Q74 -91 88.5 -72.5 Q103 -54 110.5 -30 Q118 -6 119 19 L119 233 Q113 232 107 231.5 Q101 231 96 231 Q56 231 26.5 244.5 Q-3 258 -23 277.5 Q-43 297 -53 319.5 Q-63 342 -63 361 Q-63 379 -59 399 Q-55 419 -44.5 435.5 Q-34 452 -15 463 Q4 474 34 474 Q66 474 86 459 Q106 444 119 424 L119 669 Q119 687 113 702 Q108 714 94.5 724.5 Q81 735 55 735 Q59 744 68 751 Q76 757 88 762.5 Q100 768 119 768 Q141 768 159.5 762 Q178 756 192 745 Q203 755 223.5 761.5 Q244 768 280 768 L423 768 Q446 770 465 774 Q482 778 496.5 785 Q511 792 516 805 L540 785 Q525 771 518.5 737 Q512 703 512 664 Q512 625 516.5 589 Q521 553 528 535 Q503 530 485 535 Q469 540 456 555.5 Q443 571 443 608 Q443 613 443 617.5 Q443 622 442 627 Q436 618 429 614.5 Q422 611 415 610 Q407 609 399 611 Q404 629 400 644 Q397 657 385.5 669 Q374 681 345 684 L238 684 Q244 667 247.5 648.5 Q251 630 251 610 L251 344 Q270 363 286 384.5 Q302 406 314.5 426.5 Q327 447 336 465 Q345 483 350 494 Q352 499 353 502 Q354 505 355 507 Q356 509 357 510 Z M10 377 Q10 359 15.5 342 Q21 325 33.5 312 Q46 299 67 291 Q88 283 119 282 L119 342 Q112 381 94 399 Q76 417 57.5 419 Q39 421 24.5 409.5 Q10 398 10 377 Z M95 479 Q93 482 84 486 Q75 490 71 488 Q71 500 72 517.5 Q73 535 71.5 552.5 Q70 570 64.5 585.5 Q59 601 46 609 Q48 609 54.5 618.5 Q61 628 61 656 Q61 670 56 680.5 Q51 691 45 698 Q38 706 29 712 Q58 712 72 697 Q86 682 92 665 Q99 645 98 619 Q97 592 96.5 579.5 Q96 567 96 556 Q96 545 95.5 529 Q95 513 95 479 Z M71 212 Q77 209 83.5 208.5 Q90 208 95 210 Q95 187 95.5 171.5 Q96 156 96 141.5 Q96 127 96 110.5 Q96 94 95 69 Q95 15 84.5 -13 Q74 -41 61 -54 Q46 -69 27 -69 Q47 -56 56.5 -32.5 Q66 -9 70 14 Q74 41 74 71 L71 212 Z " />
<glyph glyph-name="_0129" unicode="&#xe000;" horiz-adv-x="580" d="" />
<glyph glyph-name="B" unicode="B" horiz-adv-x="564" d="M92 227 Q91 254 85 273.5 Q79 293 71.5 306 Q64 319 57 325.5 Q50 332 49 333 Q50 333 56.5 337.5 Q63 342 70.5 353 Q78 364 84.5 382 Q91 400 92 428 L92 660 Q92 678 86 693 Q81 705 67.5 715.5 Q54 726 28 726 Q32 735 41 742 Q49 748 61 753.5 Q73 759 92 759 Q141 759 174 729 Q179 733 188.5 739.5 Q198 746 213 752.5 Q228 759 248 763.5 Q268 768 294 768 Q311 768 325.5 765.5 Q340 763 353 759 Q381 749 407 738 Q430 728 453.5 714 Q477 700 493 682 Q483 680 476 670 Q469 662 464 645.5 Q459 629 460 600 Q465 567 464 541 Q463 515 463 507 Q463 462 448.5 432.5 Q434 403 411 384 Q443 367 461 340.5 Q479 314 488 285 Q497 256 499.5 227 Q502 198 502 176 L502 115 Q502 80 506 58.5 Q510 37 515 24 Q520 9 528 1 Q503 3 485 -6 Q467 -15 460 -20 Q439 -42 401 -55.5 Q363 -69 302 -69 Q269 -69 244.5 -61 Q220 -53 204 -44 Q172 -103 92 -103 Q73 -103 61 -98 Q49 -93 41 -87 Q32 -80 28 -70 Q54 -70 67.5 -52.5 Q81 -35 86 -14 Q92 11 92 42 L92 227 Z M370 182 Q370 216 367.5 245 Q365 274 357.5 295 Q350 316 335.5 328 Q321 340 297 340 Q256 340 240.5 330 Q225 320 224 306 L224 49 Q224 41 223.5 34.5 Q223 28 222 22 Q245 13 271 10.5 Q297 8 320 19 Q342 28 352.5 45.5 Q363 63 360.5 81 Q358 99 344 113 Q330 127 304 129 Q307 146 312 159 Q317 170 325 180 Q333 190 347 190 Q360 190 370 182 Z M290 702 Q267 702 250 691 Q233 680 227 666.5 Q221 653 228.5 640.5 Q236 628 262 625 Q261 617 257 612 Q254 607 248 603.5 Q242 600 232 600 L224 600 L224 395 Q252 395 275.5 405.5 Q299 416 316.5 434.5 Q334 453 343.5 478 Q353 503 353 532 Q353 571 351 602 Q349 633 342 655.5 Q335 678 323 690 Q311 702 290 702 Z M68 383 Q64 375 58.5 367 Q53 359 44 354 L44 402 Q44 427 44 450.5 Q44 474 44 493.5 Q44 513 43.5 527 Q43 541 43 546 Q43 581 32.5 594 Q22 607 19 609 Q21 609 27.5 618.5 Q34 628 34 656 Q34 670 29 680.5 Q24 691 18 698 Q11 706 2 712 Q30 712 44.5 699.5 Q59 687 65 667 Q71 647 71 623 Q71 599 71 575 Q71 549 70 521 Q69 497 68.5 466 Q68 435 68 402 L68 383 Z M44 309 Q50 306 58.5 294.5 Q67 283 68 276 Q68 229 69 174.5 Q70 120 68 69 Q68 15 57.5 -11 Q47 -37 34 -48 Q19 -60 0 -57 Q20 -44 29.5 -22.5 Q39 -1 43 20 Q47 45 47 71 L44 309 Z " />
<glyph glyph-name="C" unicode="C" horiz-adv-x="569" d="M543 768 Q536 762 528 750 Q520 738 513 721.5 Q506 705 502 683.5 Q498 662 500 637 Q500 633 500.5 629 Q501 625 501 621 Q501 601 497 593 Q493 585 488.5 583 Q484 581 480 580 Q476 579 476 572 Q476 554 462.5 544.5 Q449 535 432.5 530.5 Q416 526 401.5 525.5 Q387 525 386 525 Q387 525 390 529 Q393 533 396.5 542 Q400 551 403 567 Q406 583 406 608 Q406 648 377.5 674 Q349 700 307 700 L303 700 Q293 700 280.5 696 Q268 692 256.5 680.5 Q245 669 237.5 648 Q230 627 230 593 L230 153 Q240 158 252 158 Q266 158 274 152 Q282 146 287 139 Q292 131 295 121 Q278 119 264 113 Q252 108 242 97 Q232 86 231 67 Q236 32 255.5 11.5 Q275 -9 299 -16.5 Q323 -24 346.5 -19 Q370 -14 383 3 Q400 25 392.5 48.5 Q385 72 356 76 Q357 83 361 89 Q364 94 370 98 Q376 102 387 102 Q389 102 391.5 101.5 Q394 101 396 101 L396 153 Q393 182 403 206 Q411 225 433.5 242 Q456 259 503 259 L503 52 Q515 51 523 45 Q530 40 534 28.5 Q538 17 533 -3 Q533 -3 529.5 0 Q526 3 517 2.5 Q508 2 491.5 -6.5 Q475 -15 449 -37 Q429 -51 405 -62 Q385 -72 357 -79.5 Q329 -87 298 -87 Q256 -87 217 -78 Q178 -69 143 -46 Q129 -37 110 -28.5 Q91 -20 72 -22 Q79 -16 84 -4 Q89 7 92.5 26 Q96 45 97 77 L97 226 Q96 254 90 273.5 Q84 293 76.5 305.5 Q69 318 62 324.5 Q55 331 54 332 Q55 332 61.5 336.5 Q68 341 75.5 352 Q83 363 89.5 381 Q96 399 97 427 L97 593 Q97 622 101.5 653.5 Q106 685 126 710.5 Q146 736 186.5 752.5 Q227 769 298 769 L299 769 Q316 769 344 764 Q345 763 347 763 Q354 761 361 759.5 Q368 758 376 756 Q398 751 420.5 750.5 Q443 750 463.5 754.5 Q484 759 501.5 768 Q519 777 531 790 L543 768 Z M74 383 Q70 375 64.5 367 Q59 359 50 354 Q50 440 50 488 Q50 536 49 546 Q49 581 38.5 594 Q28 607 25 609 Q27 609 33.5 618.5 Q40 628 40 656 Q40 670 35 680.5 Q30 691 24 698 Q17 706 8 712 Q37 712 51 697 Q65 682 71 665 Q78 645 77 619 Q75 565 75 508.5 Q75 452 74 383 Z M50 309 Q56 306 62.5 295.5 Q69 285 74 275 Q74 252 74.5 231 Q75 210 75 189.5 Q75 169 75 147 Q75 125 74 100 Q74 49 62.5 22 Q51 -5 37 -17 Q20 -31 0 -33 Q20 -28 31 -6.5 Q42 15 47 39 Q52 67 53 102 L50 309 Z " />
<glyph glyph-name="G" unicode="G" horiz-adv-x="583" d="M513 317 Q512 317 512 316 L512 54 Q524 52 532 46 Q539 41 543 30 Q547 19 542 -1 Q521 4 500 -8.5 Q479 -21 453 -38 Q427 -55 391.5 -70 Q356 -85 306 -85 Q265 -85 227.5 -77 Q190 -69 152 -48 Q146 -44 136.5 -39 Q127 -34 116.5 -29.5 Q106 -25 94.5 -22 Q83 -19 73 -20 Q80 -14 85 -1 Q90 10 94 31 Q98 52 98 87 L98 226 Q97 254 91 273.5 Q85 293 77.5 305.5 Q70 318 63 324.5 Q56 331 55 332 Q56 332 62.5 337 Q69 342 77 353.5 Q85 365 91.5 384 Q98 403 98 433 L98 593 Q99 624 105.5 655.5 Q112 687 133.5 712.5 Q155 738 196 753.5 Q237 769 306 769 L307 769 Q321 769 340.5 766 Q360 763 381 756 Q403 750 426 750 Q449 750 470.5 754.5 Q492 759 510 768 Q528 777 540 790 L552 768 Q545 762 537 750 Q529 738 522 721.5 Q515 705 511 683.5 Q507 662 509 637 Q509 633 509.5 629 Q510 625 510 621 Q510 601 506 593 Q502 585 497.5 583 Q493 581 489 580 Q485 579 485 572 Q485 554 471.5 544.5 Q458 535 441.5 530.5 Q425 526 410.5 525.5 Q396 525 395 525 Q396 525 399 529 Q402 533 405.5 542 Q409 551 412 567 Q415 583 415 608 Q415 631 408.5 647 Q402 663 391.5 673 Q381 683 368.5 688.5 Q356 694 345 697 Q328 700 311 700 Q301 700 287.5 696 Q274 692 262 681 Q250 670 241 650.5 Q232 631 231 599 L231 155 Q241 160 253 160 Q267 160 275 154 Q283 148 288 141 Q293 133 296 123 Q278 121 265 115 Q253 110 243.5 99.5 Q234 89 232 71 Q230 43 242 24.5 Q254 6 273.5 -3.5 Q293 -13 315.5 -14.5 Q338 -16 358 -10 Q378 -4 391 9 Q404 22 404 41 Q403 54 397.5 61 Q392 68 384 72 Q375 76 365 78 Q366 85 370 91 Q373 96 379 100 Q385 104 396 104 Q398 104 400.5 103.5 Q403 103 405 103 L405 240 L405 247 Q405 250 404.5 254 Q404 258 405 263 Q385 243 375 220.5 Q365 198 363 175 Q320 212 316 239 Q312 266 330.5 287 Q349 308 383 326 Q417 344 449.5 364.5 Q482 385 505 411 Q528 437 526 473 Q545 463 559.5 440.5 Q574 418 576 393.5 Q578 369 564 347.5 Q550 326 513 317 Z M41 656 Q41 670 36 680.5 Q31 691 25 698 Q18 706 9 712 Q38 712 52 697 Q66 682 72 665 Q79 645 78 619 Q76 565 76 508.5 Q76 452 75 383 Q71 375 65.5 367 Q60 359 51 354 Q51 440 51 488 Q51 536 50 546 Q50 581 39.5 594 Q29 607 26 609 Q28 609 34.5 618.5 Q41 628 41 656 Z M75 275 Q75 252 75.5 231 Q76 210 76 189.5 Q76 169 76 147 Q76 125 75 100 Q75 49 63.5 22 Q52 -5 38 -17 Q21 -31 1 -33 Q21 -28 32 -6.5 Q43 15 48 39 Q53 67 54 102 L51 309 Q57 306 63.5 295.5 Q70 285 75 275 Z " />
<glyph glyph-name="I" unicode="I" horiz-adv-x="334" d="M251 428 Q252 401 258 383 Q264 365 271.5 354 Q279 343 285 338.5 Q291 334 293 333 Q292 332 285.5 326 Q279 320 271.5 306.5 Q264 293 257.5 272 Q251 251 251 221 L251 107 Q259 112 270 112 Q287 112 294.5 104.5 Q302 97 306 88 Q310 77 310 65 Q294 71 282 70 Q271 69 261.5 61 Q252 53 251 32 Q251 31 251.5 20.5 Q252 10 257.5 -2.5 Q263 -15 276 -25.5 Q289 -36 315 -36 Q311 -46 302 -53 Q294 -59 282 -64 Q270 -69 251 -69 Q220 -69 205 -60.5 Q190 -52 185 -45 Q182 -53 174 -69.5 Q166 -86 151.5 -103 Q137 -120 115.5 -133 Q94 -146 64 -146 Q45 -146 33 -141 Q21 -136 13 -130 Q4 -123 0 -113 Q30 -113 52 -102 Q74 -91 88.5 -72.5 Q103 -54 110.5 -30 Q118 -6 119 19 L119 221 Q119 250 113 271 Q107 292 99 305.5 Q91 319 84 325.5 Q77 332 76 333 Q77 333 83.5 337.5 Q90 342 97.5 353 Q105 364 111.5 382 Q118 400 119 428 L119 669 Q119 687 113 702 Q108 714 94.5 724.5 Q81 735 55 735 Q59 744 68 751 Q76 757 88 762.5 Q100 768 119 768 Q151 768 165.5 759 Q180 750 185 743 Q188 748 195 758 Q202 768 212.5 777.5 Q223 787 238 794 Q253 801 271 801 Q290 801 302 795.5 Q314 790 322 784 Q331 777 335 768 Q309 768 292.5 752.5 Q276 737 267 718 Q256 696 251 669 L251 428 Z M95 383 Q91 375 85.5 367 Q80 359 71 354 Q71 440 71 488 Q71 536 70 546 Q70 581 59.5 594 Q49 607 46 609 Q48 609 54.5 618.5 Q61 628 61 656 Q61 670 56 680.5 Q51 691 45 698 Q38 706 29 712 Q58 712 72 697 Q86 682 92 665 Q99 645 98 619 Q96 565 96 508.5 Q96 452 95 383 Z M71 309 Q85 302 95 284 Q95 237 96 178.5 Q97 120 95 69 Q95 15 84.5 -13 Q74 -41 61 -54 Q46 -69 27 -69 Q47 -56 56.5 -32.5 Q66 -9 70 14 Q74 41 74 71 L71 309 Z " />
<glyph glyph-name="J" unicode="J" horiz-adv-x="552" d="M469 428 Q470 401 476 383 Q482 365 489.5 354 Q497 343 503 338.5 Q509 334 511 333 Q510 332 503.5 326 Q497 320 489.5 306.5 Q482 293 475.5 272 Q469 251 469 221 L469 142 Q470 119 473.5 104.5 Q477 90 481.5 81.5 Q486 73 489.5 69.5 Q493 66 494 66 Q486 67 477.5 65 Q469 63 461 61 Q442 55 427 40 Q412 25 397.5 6 Q383 -13 366 -33.5 Q349 -54 327.5 -71 Q306 -88 277.5 -99 Q249 -110 210 -110 Q183 -110 149 -102.5 Q115 -95 84.5 -79 Q54 -63 33 -37.5 Q12 -12 12 25 Q12 77 11.5 105.5 Q11 134 9.5 151 Q8 168 6 180 Q4 192 0 211 Q28 217 53 212 Q74 207 93.5 190 Q113 173 119 135 Q129 143 145 143 Q159 143 167 137 Q175 131 180 124 Q185 115 188 105 Q170 105 156 100 Q144 95 133 83.5 Q122 72 121 48 L121 33 Q121 19 128.5 3.5 Q136 -12 149 -24 Q162 -36 178.5 -43.5 Q195 -51 213 -49 Q234 -47 256 -36 Q278 -25 295.5 0 Q313 25 324.5 67 Q336 109 337 172 L337 221 Q337 250 331 271 Q325 292 317 305.5 Q309 319 302 325.5 Q295 332 294 333 Q295 333 301.5 337.5 Q308 342 315.5 353 Q323 364 329.5 382 Q336 400 337 428 L337 669 Q337 687 331 702 Q326 714 312.5 724.5 Q299 735 273 735 Q277 744 286 751 Q294 757 306 762.5 Q318 768 337 768 Q366 768 381 760 Q396 752 401 745 Q403 751 407 760.5 Q411 770 419 779 Q427 788 439 794.5 Q451 801 469 801 Q488 801 500 795.5 Q512 790 520 784 Q529 777 533 768 Q513 768 500.5 758.5 Q488 749 481 735.5 Q474 722 471.5 707 Q469 692 469 682 L469 428 Z M314 391 Q310 383 304.5 375 Q299 367 290 362 Q290 448 290 496 Q290 544 289 554 Q289 589 278.5 602 Q268 615 265 617 Q267 617 273.5 626.5 Q280 636 280 664 Q280 678 275 688.5 Q270 699 264 706 Q257 714 248 720 Q277 720 291 705 Q305 690 311 673 Q318 653 317 627 Q315 573 315 516.5 Q315 460 314 391 Z M290 317 Q304 310 314 292 Q314 269 314.5 251.5 Q315 234 315 217.5 Q315 201 315 183 Q315 165 314 140 Q314 95 303.5 67.5 Q293 40 280 25 Q265 7 246 0 Q265 17 275 41 Q285 65 289 88 Q293 114 293 142 L290 317 Z " />
<glyph glyph-name="K" unicode="K" horiz-adv-x="557" d="M497 672 L497 489 Q493 435 466 404.5 Q439 374 399 359 Q400 358 402 358 Q430 348 455 337 Q476 327 496 314 Q516 301 524 287 Q514 287 509.5 271 Q505 255 504 226.5 Q503 198 504 159 Q505 120 505 73 Q505 28 512.5 0.5 Q520 -27 532 -41.5 Q544 -56 558 -60.5 Q572 -65 585 -65 Q599 -65 607.5 -60.5 Q616 -56 622 -51 Q628 -45 633 -37 Q640 -44 640.5 -59.5 Q641 -75 633 -91 Q625 -107 606 -119.5 Q587 -132 554 -132 Q517 -132 484 -122.5 Q451 -113 426.5 -87.5 Q402 -62 387.5 -17 Q373 28 373 98 Q373 117 373.5 141.5 Q374 166 372.5 193 Q371 220 367.5 246 Q364 272 355.5 292.5 Q347 313 333 325.5 Q319 338 297 338 Q269 338 260 324.5 Q251 311 251 291 L251 106 Q259 111 270 111 Q287 111 294.5 103.5 Q302 96 306 87 Q310 76 310 64 Q294 70 281 69 Q270 68 260.5 60 Q251 52 251 29 L251 20 Q251 14 253.5 4 Q256 -6 262.5 -15 Q269 -24 281.5 -30.5 Q294 -37 315 -37 Q311 -47 302 -54 Q294 -60 282 -65 Q270 -70 251 -70 Q220 -70 205 -61.5 Q190 -53 185 -46 Q182 -54 173.5 -70.5 Q165 -87 150.5 -104 Q136 -121 114.5 -133.5 Q93 -146 64 -146 Q45 -146 33 -141 Q21 -136 13 -130 Q4 -123 0 -113 Q30 -113 52 -102 Q74 -91 88.5 -72.5 Q103 -54 110.5 -30 Q118 -6 119 19 L119 221 Q119 250 113 271 Q107 292 99 305.5 Q91 319 84 325.5 Q77 332 76 333 Q77 333 83.5 337.5 Q90 342 97.5 353 Q105 364 111.5 382 Q118 400 119 428 L119 678 Q119 684 116.5 694 Q114 704 107 713.5 Q100 723 88 729.5 Q76 736 55 736 Q59 745 68 752 Q76 758 88 763.5 Q100 769 119 769 Q151 769 165.5 760 Q180 751 185 744 Q189 751 203 760 Q217 769 251 769 Q270 769 282 763.5 Q294 758 302 752 Q311 745 315 736 Q295 736 282.5 729.5 Q270 723 263 714 Q256 705 253.5 695 Q251 685 251 678 L251 399 Q269 399 292.5 403.5 Q316 408 337 421 Q358 434 372.5 459 Q387 484 387 525 L387 691 Q386 698 384 706 Q382 714 376.5 720.5 Q371 727 362.5 731.5 Q354 736 341 736 Q343 745 348 752 Q353 758 362 763.5 Q371 769 387 769 Q410 769 423.5 762.5 Q437 756 443 750 Q446 756 452 765 Q458 774 467 782.5 Q476 791 488.5 796.5 Q501 802 518 802 Q537 802 549 796.5 Q561 791 569 785 Q578 778 582 769 Q555 769 538.5 754 Q522 739 513 721 Q502 700 498 673 L497 672 Z M95 383 Q91 375 85.5 367 Q80 359 71 354 Q71 440 71 488 Q71 536 70 546 Q70 581 59.5 594 Q49 607 46 609 Q48 609 54.5 618.5 Q61 628 61 656 Q61 670 56 680.5 Q51 691 45 698 Q38 706 29 712 Q58 712 72 697 Q86 682 92 665 Q99 645 98 619 Q96 565 96 508.5 Q96 452 95 383 Z M71 309 Q85 302 95 284 Q95 237 96 178.5 Q97 120 95 69 Q95 15 84.5 -15 Q74 -45 61 -60 Q46 -78 27 -81 Q47 -68 56.5 -43 Q66 -18 70 8 Q74 38 74 71 L71 309 Z " />
<glyph glyph-name="L" unicode="L" horiz-adv-x="548" d="M531 75 Q523 74 513.5 55 Q504 36 502.5 13 Q501 -10 511 -29 Q521 -48 552 -48 L552 -69 L253 -69 Q232 -69 217 -65 Q202 -61 191 -54 Q174 -77 149.5 -90 Q125 -103 92 -103 Q73 -103 61 -98 Q49 -93 41 -87 Q32 -80 28 -70 Q54 -70 67.5 -52.5 Q81 -35 86 -13 Q92 12 92 44 L92 228 Q91 255 85 274.5 Q79 294 71.5 307 Q64 320 57 326.5 Q50 333 49 334 Q50 334 56.5 338.5 Q63 343 70.5 354 Q78 365 84.5 383 Q91 401 92 429 L92 670 Q92 688 86 703 Q81 715 67.5 725.5 Q54 736 28 736 Q32 745 41 752 Q49 758 61 763.5 Q73 769 92 769 Q124 769 138.5 760 Q153 751 158 744 Q162 751 176 760 Q190 769 224 769 Q243 769 255 763.5 Q267 758 275 752 Q284 745 288 736 Q268 736 255.5 729.5 Q243 723 236 714 Q229 705 226.5 695 Q224 685 224 678 L224 429 Q225 402 231 384 Q237 366 244.5 355 Q252 344 258 339.5 Q264 335 266 334 Q265 333 258.5 327 Q252 321 244.5 308.5 Q237 296 231 276 Q225 256 224 228 L224 152 Q226 152 228 152.5 Q230 153 233 153 Q247 153 255 147.5 Q263 142 268 135 Q273 127 276 117 Q251 121 236.5 103 Q222 85 222.5 62 Q223 39 239.5 19.5 Q256 0 292 0 Q334 0 355 19.5 Q376 39 384.5 66.5 Q393 94 392.5 123.5 Q392 153 392 173 Q392 223 410 245 Q428 267 450 274 Q476 282 508 275 Q501 261 495 232.5 Q489 204 489.5 173 Q490 142 499 114.5 Q508 87 531 75 Z M68 384 Q64 376 58.5 368 Q53 360 44 355 Q44 441 44 489 Q44 537 43 547 Q43 582 32.5 595 Q22 608 19 610 Q21 610 27.5 619.5 Q34 629 34 657 Q34 671 29 681.5 Q24 692 18 699 Q11 707 2 713 Q31 713 45 698 Q59 683 65 666 Q72 646 71 620 Q69 566 69 509.5 Q69 453 68 384 Z M68 70 Q68 16 57.5 -10 Q47 -36 34 -47 Q19 -59 0 -56 Q20 -43 29.5 -21.5 Q39 0 43 21 Q47 46 47 72 L44 310 Q58 303 68 285 Q68 238 69 179.5 Q70 121 68 70 Z " />
<glyph glyph-name="M" unicode="M" horiz-adv-x="742" d="M659 29 Q659 10 665 -4 Q670 -17 683.5 -27 Q697 -37 723 -37 Q719 -47 710 -54 Q702 -60 690 -65 Q678 -70 659 -70 Q627 -70 612.5 -61 Q598 -52 593 -45 Q588 -52 574 -61 Q560 -70 527 -70 Q508 -70 496 -65 Q484 -60 476 -54 Q467 -47 463 -37 Q487 -36 503.5 -22.5 Q520 -9 524.5 7.5 Q529 24 520.5 38.5 Q512 53 487 56 Q488 63 492 69 Q495 74 501 78 Q507 82 518 82 Q520 82 522.5 81.5 Q525 81 527 81 L527 420 L452 253 Q449 232 450 210 Q451 188 468 174 Q458 169 447.5 171.5 Q437 174 430 183 L251 490 L251 106 Q259 111 270 111 Q287 111 294.5 103.5 Q302 96 306 87 Q310 76 310 64 Q294 70 282 69 Q271 68 261.5 60 Q252 52 251 31 L251 29 Q251 10 257 -4 Q262 -17 275.5 -27 Q289 -37 315 -37 Q311 -47 302 -54 Q294 -60 282 -65 Q270 -70 251 -70 Q220 -70 205 -61.5 Q190 -53 185 -46 Q182 -54 174 -70.5 Q166 -87 151.5 -104 Q137 -121 115.5 -134 Q94 -147 64 -147 Q45 -147 33 -142 Q21 -137 13 -131 Q4 -124 0 -114 Q32 -114 54.5 -101.5 Q77 -89 91.5 -69 Q106 -49 112.5 -23.5 Q119 2 119 29 L119 226 Q118 253 112 272.5 Q106 292 98.5 305 Q91 318 84 324.5 Q77 331 76 332 Q77 332 83.5 336.5 Q90 341 97.5 352 Q105 363 111.5 381 Q118 399 119 427 L119 676 Q119 682 116.5 692 Q114 702 107 711.5 Q100 721 88 727.5 Q76 734 55 734 Q59 743 68 750 Q76 756 88 761.5 Q100 767 119 767 Q151 767 165.5 758 Q180 749 185 742 Q189 749 203 758 Q217 767 251 767 Q270 767 282 761.5 Q294 756 302 750 Q311 743 315 734 Q290 734 277 724.5 Q264 715 258 703 L406 420 Q421 452 438.5 493 Q456 534 472 574.5 Q488 615 501 649 Q514 683 520 701 Q515 714 502 724 Q489 734 463 734 Q467 743 476 750 Q484 756 496 761.5 Q508 767 527 767 Q559 767 573.5 758 Q588 749 593 742 Q596 747 603 757 Q610 767 620.5 776.5 Q631 786 646 793 Q661 800 679 800 Q698 800 710 794.5 Q722 789 730 783 Q739 776 743 767 Q717 767 700.5 751.5 Q684 736 675 717 Q664 695 659 668 L659 427 Q660 400 666 382 Q672 364 679.5 353 Q687 342 693 337.5 Q699 333 701 332 Q700 331 693.5 325 Q687 319 679.5 305.5 Q672 292 665.5 271 Q659 250 659 220 L659 29 Z M95 382 Q91 374 85.5 366 Q80 358 71 353 Q71 439 71 487 Q71 535 70 545 Q70 580 59.5 593 Q49 606 46 608 Q48 608 54.5 617.5 Q61 627 61 655 Q61 669 56 679.5 Q51 690 45 697 Q38 705 29 711 Q58 711 72 696 Q86 681 92 664 Q99 644 98 618 Q96 564 96 507.5 Q96 451 95 382 Z M95 68 Q95 14 84.5 -14 Q74 -42 61 -55 Q46 -70 27 -70 Q47 -57 56.5 -33.5 Q66 -10 70 13 Q74 40 74 70 L71 308 Q85 301 95 283 Q95 236 96 177.5 Q97 119 95 68 Z " />
<glyph glyph-name="N" unicode="N" horiz-adv-x="655" d="M672 -15 Q672 -37 662 -55 Q654 -70 633.5 -82.5 Q613 -95 574 -95 Q554 -95 534.5 -88.5 Q515 -82 494.5 -62.5 Q474 -43 450.5 -9 Q427 25 397.5 79.5 Q368 134 332 212.5 Q296 291 251 398 L251 107 Q259 112 270 112 Q287 112 294.5 104.5 Q302 97 306 88 Q310 77 310 65 Q284 78 269 64.5 Q254 51 252.5 29 Q251 7 265.5 -13.5 Q280 -34 315 -36 Q311 -46 302 -53 Q294 -59 282 -64 Q270 -69 251 -69 Q220 -69 205 -60.5 Q190 -52 185 -45 Q182 -53 174 -69.5 Q166 -86 151.5 -103 Q137 -120 115.5 -133 Q94 -146 64 -146 Q45 -146 33 -141 Q21 -136 13 -130 Q4 -123 0 -113 Q32 -113 54.5 -100.5 Q77 -88 91.5 -68 Q106 -48 112.5 -22.5 Q119 3 119 30 L119 221 Q119 250 113 271 Q107 292 99 305.5 Q91 319 84 325.5 Q77 332 76 333 Q77 333 83.5 337.5 Q90 342 97.5 353 Q105 364 111.5 382 Q118 400 119 428 L119 678 Q119 684 116.5 694 Q114 704 107 713.5 Q100 723 88 729.5 Q76 736 55 736 Q59 745 68 752 Q76 758 88 763.5 Q100 769 119 769 Q151 769 165.5 760 Q180 751 185 744 Q189 751 203 760 Q217 769 251 769 Q270 769 282 763.5 Q294 758 302 752 Q311 745 315 736 Q280 736 267 718.5 Q254 701 252 686 Q263 660 283 614.5 Q303 569 328 512.5 Q353 456 381.5 393.5 Q410 331 439 271 L439 670 Q439 688 433 703 Q428 715 414.5 725.5 Q401 736 375 736 Q379 745 388 752 Q396 758 408 763.5 Q420 769 439 769 Q471 769 485.5 759.5 Q500 750 505 744 Q508 750 515.5 759.5 Q523 769 533.5 778 Q544 787 558.5 794 Q573 801 591 801 Q610 801 622 795.5 Q634 790 642 784 Q651 777 655 768 Q628 768 611.5 756 Q595 744 586 728 Q577 712 574 696 Q571 680 571 673 L571 428 Q572 401 578 383 Q584 365 591.5 354 Q599 343 605 338.5 Q611 334 613 333 Q612 332 605.5 326 Q599 320 591.5 307.5 Q584 295 578 275 Q572 255 571 227 L571 0 Q582 -18 596 -27.5 Q610 -37 624.5 -38.5 Q639 -40 651.5 -33.5 Q664 -27 672 -15 Z M95 383 Q91 375 85.5 367 Q80 359 71 354 Q71 440 71 488 Q71 536 70 546 Q70 581 59.5 594 Q49 607 46 609 Q48 609 54.5 618.5 Q61 628 61 656 Q61 670 56 680.5 Q51 691 45 698 Q38 706 29 712 Q58 712 72 697 Q86 682 92 665 Q99 645 98 619 Q96 565 96 508.5 Q96 452 95 383 Z M95 69 Q95 15 84.5 -13 Q74 -41 61 -54 Q46 -69 27 -69 Q47 -56 56.5 -32.5 Q66 -9 70 14 Q74 41 74 71 L71 309 Q85 302 95 284 Q95 237 96 178.5 Q97 120 95 69 Z " />
<glyph glyph-name="O" unicode="O" horiz-adv-x="605" d="M522 94 Q522 60 525.5 38.5 Q529 17 534 4 Q539 -11 547 -19 Q524 -18 498.5 -26.5 Q473 -35 460 -42 Q431 -62 391 -69.5 Q351 -77 302 -77 Q250 -77 210.5 -68.5 Q171 -60 144 -40 Q117 -20 103 12.5 Q89 45 87 92 L87 226 Q86 253 80 272.5 Q74 292 66.5 305 Q59 318 52 324.5 Q45 331 44 332 Q45 332 51.5 337 Q58 342 66 353.5 Q74 365 80.5 384 Q87 403 87 433 L87 610 Q91 704 144.5 741.5 Q198 779 302 779 Q365 779 431 761.5 Q497 744 548 698 Q539 697 533 687 Q528 679 524 660.5 Q520 642 522 610 L522 427 Q523 400 529 382 Q535 364 542.5 353 Q550 342 556 337.5 Q562 333 564 332 Q563 331 556.5 325 Q550 319 542.5 306.5 Q535 294 529 274 Q523 254 522 226 L522 94 Z M229 48 Q241 18 264.5 4 Q288 -10 313 -7.5 Q338 -5 359 14 Q380 33 386 70 Q384 87 374 97 Q364 107 353 112 Q340 118 323 120 Q326 130 331 138 Q336 145 344 150.5 Q352 156 366 156 Q379 156 389 151 L389 603 Q389 639 376.5 663 Q364 687 345 699 Q326 711 304.5 710.5 Q283 710 264 698 Q245 686 232.5 662 Q220 638 220 603 L220 410 Q222 388 228.5 373.5 Q235 359 242 350 Q249 341 255 337 Q261 333 262 332 Q261 331 255.5 326 Q250 321 243 310 Q236 299 229.5 282.5 Q223 266 220 243 L220 108 Q227 114 239 114 Q250 114 256.5 109 Q263 104 267 99 Q271 93 273 85 Q262 83 253 79 Q245 75 238 67.5 Q231 60 229 48 Z M66 383 Q62 375 56.5 367 Q51 359 42 354 Q42 440 42 488 Q42 536 41 546 Q41 581 30.5 594 Q20 607 17 609 Q19 609 25.5 618.5 Q32 628 32 656 Q32 670 27 680.5 Q22 691 16 698 Q9 706 0 712 Q29 712 43 697 Q57 682 63 665 Q70 645 69 619 Q67 565 67 508.5 Q67 452 66 383 Z M66 69 Q66 30 76 5 Q86 -20 99 -35 Q112 -50 123.5 -56.5 Q135 -63 137 -64 Q120 -64 107 -58 Q94 -52 84.5 -42.5 Q75 -33 68 -21 Q61 -9 57 4 Q46 34 45 71 L42 309 Q48 306 54.5 295.5 Q61 285 66 275 Q66 228 67 174 Q68 120 66 69 Z " />
<glyph glyph-name="P" unicode="P" horiz-adv-x="554" d="M101 669 Q101 687 95 702 Q90 714 76.5 724.5 Q63 735 37 735 Q41 744 50 751 Q58 757 70 762.5 Q82 768 101 768 Q131 768 154.5 757 Q178 746 195 726 Q209 740 234 754.5 Q259 769 300 769 Q363 769 427 747.5 Q491 726 541 680 Q533 678 527 669 Q522 661 517 646 Q512 631 513 603 Q513 601 513.5 597 Q514 593 514 578.5 Q514 564 514 534.5 Q514 505 514 452 Q514 423 507.5 387 Q501 351 478.5 319.5 Q456 288 413.5 267 Q371 246 300 246 Q280 246 263.5 249 Q247 252 233 257 L233 30 Q233 11 239 -3 Q244 -16 257.5 -26 Q271 -36 297 -36 Q293 -46 284 -53 Q276 -59 264 -64 Q252 -69 233 -69 Q203 -69 188 -61 Q173 -53 168 -46 Q166 -52 160.5 -64 Q155 -76 144 -88 Q133 -100 115 -108.5 Q97 -117 71 -117 Q49 -117 35.5 -112 Q22 -107 14 -101 Q4 -94 0 -84 Q32 -84 52 -76 Q72 -68 83 -53.5 Q94 -39 97.5 -18 Q101 3 101 30 L101 227 Q100 254 94 273.5 Q88 293 80.5 306 Q73 319 66 325.5 Q59 332 58 333 Q59 333 65.5 338 Q72 343 80 354.5 Q88 366 94.5 385 Q101 404 101 434 L101 669 Z M295 315 Q315 315 331.5 325.5 Q348 336 358 351.5 Q368 367 371.5 385.5 Q375 404 371 420 Q367 436 353.5 448 Q340 460 316 462 Q319 472 324 480 Q329 487 337 492.5 Q345 498 359 498 Q371 498 381 493 L381 585 Q381 619 371 640 Q361 661 347.5 672.5 Q334 684 319.5 688 Q305 692 295 692 Q268 692 254 684 Q240 676 234 666 Q233 652 238.5 644.5 Q244 637 252 633 Q261 629 272 627 Q271 619 267 614 Q260 601 242 601 Q235 601 233 602 L233 364 Q233 354 234.5 345 Q236 336 242.5 329.5 Q249 323 261.5 319 Q274 315 295 315 Z M77 383 Q73 375 67.5 367 Q62 359 53 354 Q53 440 53 488 Q53 536 52 546 Q52 581 41.5 594 Q31 607 28 609 Q30 609 36.5 618.5 Q43 628 43 656 Q43 670 38 680.5 Q33 691 27 698 Q20 706 11 712 Q40 712 54 697 Q68 682 74 665 Q81 645 80 619 Q78 565 78 508.5 Q78 452 77 383 Z M53 309 Q67 302 77 284 Q77 237 78 178.5 Q79 120 77 69 Q77 15 66.5 -11 Q56 -37 43 -47 Q28 -58 9 -55 Q29 -50 38.5 -30 Q48 -10 52 13 Q56 39 56 71 L53 309 Z " />
<glyph glyph-name="Q" unicode="Q" horiz-adv-x="605" d="M87 610 Q91 704 144.5 741.5 Q198 779 302 779 Q365 779 431 761.5 Q497 744 548 698 Q539 696 533 686 Q528 677 524 659 Q520 641 522 607 L522 427 Q523 400 529 382 Q535 364 542.5 353 Q550 342 556 337.5 Q562 333 564 332 Q563 331 556.5 325 Q550 319 542.5 306.5 Q535 294 529 274 Q523 254 522 226 L522 94 Q522 60 525.5 38.5 Q529 17 534 4 Q539 -11 547 -19 Q523 -17 497 -26.5 Q471 -36 458 -42 Q431 -61 394.5 -68.5 Q358 -76 313 -77 Q354 -82 396 -97.5 Q438 -113 477.5 -129.5 Q517 -146 552.5 -158.5 Q588 -171 617 -171 Q640 -171 655.5 -159.5 Q671 -148 677.5 -132 Q684 -116 681.5 -98.5 Q679 -81 667 -69 Q685 -70 699 -77 Q711 -83 721 -97 Q731 -111 731 -137 Q731 -164 719 -184.5 Q707 -205 688.5 -219.5 Q670 -234 647 -241.5 Q624 -249 602 -249 Q554 -249 502.5 -233 Q451 -217 403 -198.5 Q355 -180 314 -164 Q273 -148 246 -148 Q212 -148 196 -160.5 Q180 -173 174 -188 Q167 -206 169 -228 Q160 -226 153 -222 Q147 -218 142.5 -210 Q138 -202 138 -188 Q138 -175 144 -156.5 Q150 -138 164.5 -121 Q179 -104 203.5 -91 Q228 -78 264 -75 Q178 -70 134 -32 Q90 6 87 92 L87 226 Q86 253 80 272.5 Q74 292 66.5 305 Q59 318 52 324.5 Q45 331 44 332 Q45 332 51.5 336.5 Q58 341 65.5 352 Q73 363 79.5 381 Q86 399 87 427 L87 610 Z M366 156 Q379 156 389 151 L389 603 Q389 639 376.5 663 Q364 687 345 699 Q326 711 304.5 710.5 Q283 710 264 698 Q245 686 232.5 662 Q220 638 220 603 L220 108 Q227 114 239 114 Q250 114 256.5 109 Q263 104 267 99 Q271 93 273 85 Q262 83 253 79 Q245 75 238 67.5 Q231 60 229 48 Q241 18 264.5 4 Q288 -10 313 -7.5 Q338 -5 359 14 Q380 33 386 70 Q384 87 374 97 Q364 107 353 112 Q340 118 323 120 Q326 130 331 138 Q336 145 344 150.5 Q352 156 366 156 Z M66 383 Q62 375 56.5 367 Q51 359 42 354 Q42 440 42 488 Q42 536 41 546 Q41 581 30.5 594 Q20 607 17 609 Q19 609 25.5 618.5 Q32 628 32 656 Q32 670 27 680.5 Q22 691 16 698 Q9 706 0 712 Q29 712 43 697 Q57 682 63 665 Q70 645 69 619 Q67 565 67 508.5 Q67 452 66 383 Z M42 309 Q48 306 54.5 295.5 Q61 285 66 275 Q66 228 67 174 Q68 120 66 69 Q66 30 76 5 Q86 -20 99 -35 Q112 -50 123.5 -56.5 Q135 -63 137 -64 Q120 -64 107 -58 Q94 -52 84.5 -42.5 Q75 -33 68 -21 Q61 -9 57 4 Q46 34 45 71 L42 309 Z " />
<glyph glyph-name="R" unicode="R" horiz-adv-x="551" d="M612 -18 Q615 -45 606 -66 Q598 -84 577.5 -99 Q557 -114 515 -114 Q474 -114 447.5 -94.5 Q421 -75 404 -44 Q387 -13 377 26.5 Q367 66 359 105.5 Q351 145 343 182 Q335 219 321.5 245.5 Q308 272 287 284 Q266 296 233 286 L233 34 Q233 15 239 1 Q244 -12 257.5 -22 Q271 -32 297 -32 Q293 -42 284 -49 Q276 -55 264 -60 Q252 -65 233 -65 Q204 -65 189 -57 Q174 -49 168 -42 Q166 -49 160.5 -61 Q155 -73 144 -84.5 Q133 -96 115 -104.5 Q97 -113 71 -113 Q49 -113 35.5 -108 Q22 -103 14 -97 Q4 -90 0 -80 Q32 -80 52 -72 Q72 -64 83 -49.5 Q94 -35 97.5 -14 Q101 7 101 34 L101 231 Q100 258 94 277.5 Q88 297 80.5 310 Q73 323 66 329.5 Q59 336 58 337 Q59 337 65.5 341.5 Q72 346 79.5 357 Q87 368 93.5 386 Q100 404 101 432 L101 673 Q101 691 95 706 Q90 718 76.5 728.5 Q63 739 37 739 Q41 748 50 755 Q58 761 70 766.5 Q82 772 101 772 Q127 772 148 763.5 Q169 755 185 740 Q197 753 221 766.5 Q245 780 288 780 Q315 780 350.5 775.5 Q386 771 421.5 761 Q457 751 488 734.5 Q519 718 536 695 Q528 690 522 678 Q517 667 513 648.5 Q509 630 511 600 L511 598 Q511 531 501.5 482.5 Q492 434 475 400 Q458 366 435 344.5 Q412 323 386 311 Q420 303 447 279 Q474 255 482 220 Q489 188 496 143 Q503 98 512.5 56.5 Q522 15 534.5 -14.5 Q547 -44 567 -45 Q583 -46 591.5 -41.5 Q600 -37 605 -32 Q610 -26 612 -18 Z M372 455 Q372 466 367.5 473.5 Q363 481 356 485 Q349 489 342 489.5 Q335 490 331 487 Q333 496 338 504 Q343 510 350.5 515.5 Q358 521 372 521 Q378 521 384 518 Q387 545 387 576 Q387 619 374.5 645.5 Q362 672 346 687 Q330 702 314 707 Q298 712 291 712 Q274 712 263 707 Q252 702 245 695 Q238 688 235 679.5 Q232 671 231 665 Q233 655 239.5 650 Q246 645 252 642 Q259 638 268 638 Q267 630 263 625 Q260 620 254 616.5 Q248 613 238 613 L233 613 L233 335 Q248 335 267 338.5 Q286 342 305.5 355 Q325 368 343 391.5 Q361 415 372 455 Z M77 387 Q73 379 67.5 371 Q62 363 53 358 Q53 444 53 492 Q53 540 52 550 Q52 585 41.5 598 Q31 611 28 613 Q30 613 36.5 622.5 Q43 632 43 660 Q43 674 38 684.5 Q33 695 27 702 Q20 710 11 716 Q40 716 54 701 Q68 686 74 669 Q81 649 80 623 Q78 569 78 512.5 Q78 456 77 387 Z M77 73 Q77 19 66.5 -6.5 Q56 -32 43 -41 Q28 -52 9 -48 Q29 -43 38.5 -23.5 Q48 -4 52 18 Q56 44 56 75 L53 313 Q67 306 77 288 Q77 241 78 182.5 Q79 124 77 73 Z " />
<glyph glyph-name="S" unicode="S" horiz-adv-x="529" d="M473 768 Q457 753 448.5 735.5 Q440 718 436 699 Q432 680 431.5 659.5 Q431 639 431 619 Q431 599 427 591 Q423 583 418.5 581 Q414 579 410 578 Q406 577 406 570 Q406 552 392.5 542.5 Q379 533 362.5 528.5 Q346 524 331.5 523.5 Q317 523 316 523 Q317 523 320 527 Q323 531 326.5 540 Q330 549 333 565 Q336 581 336 606 Q336 645 312 670.5 Q288 696 244 698 L243 698 Q234 698 220 691 Q206 684 193 668.5 Q180 653 171 627.5 Q162 602 162 565 Q162 533 174.5 507 Q187 481 207 459.5 Q227 438 252.5 419.5 Q278 401 305 384 L305 385 Q314 380 326 378 Q337 376 351.5 377.5 Q366 379 386 387 Q385 377 388 366 Q390 356 394.5 344 Q399 332 407 319 Q453 279 475 227 Q497 175 496 124 Q506 123 512 119.5 Q518 116 521 111 Q525 106 526 98 Q519 98 513 94 Q508 91 501 84.5 Q494 78 488 67 Q479 22 451.5 -6 Q424 -34 386.5 -49 Q349 -64 306 -68 Q263 -72 224 -68 Q163 -64 119 -65 Q75 -66 46 -69 Q13 -73 -10 -78 Q2 -72 10.5 -58 Q19 -44 24 -25.5 Q29 -7 31.5 14 Q34 35 35 56 Q37 105 31 164 L0 164 L0 197 Q43 199 72.5 206.5 Q102 214 122 222 Q144 231 159 242 L176 226 Q168 224 162 213 Q157 204 152 185 Q147 166 146 132 Q145 106 147.5 81 Q150 56 159.5 36.5 Q169 17 188.5 5 Q208 -7 241 -7 Q264 -7 288 -0.5 Q312 6 331.5 18 Q351 30 363.5 48.5 Q376 67 376 92 Q376 128 361.5 156.5 Q347 185 324 209 Q301 233 273 253.5 Q245 274 218 292 Q198 305 181.5 307.5 Q165 310 151 308 Q135 305 122 299 Q124 316 119 330.5 Q114 345 108 356 Q101 368 91 379 L92 379 Q62 409 47.5 449.5 Q33 490 33 533 Q33 576 47 618 Q61 660 87.5 693 Q114 726 152 746.5 Q190 767 238 767 Q266 767 294.5 761 Q323 755 351.5 753 Q380 751 407.5 758 Q435 765 461 790 L473 768 Z M96 726 Q71 711 53 686 Q37 665 24 631 Q11 597 11 546 Q11 495 22.5 459.5 Q34 424 48 401 Q64 374 85 356 L96 327 Q96 321 79.5 334 Q63 347 43.5 376.5 Q24 406 8 449.5 Q-8 493 -8 549 Q-8 590 -15.5 604 Q-23 618 -32 620 Q-43 622 -55 611 Q-58 623 -55 634 Q-53 642 -46.5 649.5 Q-40 657 -24 657 Q-12 657 -6 652 Q0 647 2 642 Q5 635 4 627 Q16 666 31.5 686.5 Q47 707 60.5 716 Q74 725 84 725.5 Q94 726 96 726 Z M143 287 Q147 288 152 289 Q157 290 163 290.5 Q169 291 177 291 Q183 291 204 279.5 Q225 268 250.5 248.5 Q276 229 300.5 203.5 Q325 178 339 149.5 Q353 121 351 91.5 Q349 62 322 35 Q343 77 331 118.5 Q319 160 289 195 Q259 230 219 254.5 Q179 279 143 287 Z " />
<glyph glyph-name="T" unicode="T" horiz-adv-x="653" d="M377 428 Q378 401 384 383 Q390 365 397.5 354 Q405 343 411 338.5 Q417 334 419 333 Q418 332 411.5 326 Q405 320 397.5 306.5 Q390 293 383.5 272 Q377 251 377 221 L377 107 Q385 112 396 112 Q413 112 420.5 104.5 Q428 97 432 88 Q436 77 436 65 Q420 71 408 70 Q397 69 387.5 61 Q378 53 377 32 L377 30 Q377 11 383 -3 Q388 -16 401.5 -26 Q415 -36 441 -36 Q437 -46 428 -53 Q420 -59 408 -64 Q396 -69 377 -69 Q346 -69 331 -60.5 Q316 -52 311 -45 Q308 -53 300 -69.5 Q292 -86 277.5 -103 Q263 -120 241.5 -133 Q220 -146 190 -146 Q171 -146 159 -141 Q147 -136 139 -130 Q130 -123 126 -113 Q156 -113 178 -102 Q200 -91 214.5 -72.5 Q229 -54 236.5 -30 Q244 -6 245 19 L245 227 Q244 254 238 273.5 Q232 293 224.5 306 Q217 319 210 325.5 Q203 332 202 333 Q203 333 209.5 338 Q216 343 224 354.5 Q232 366 238.5 385 Q245 404 245 434 L245 715 Q221 721 195.5 718.5 Q170 716 147 703 Q142 699 137 695 Q132 691 129 686 Q130 669 136 656 Q141 645 152 635.5 Q163 626 184 626 Q177 614 166 607 Q157 601 144.5 598 Q132 595 115 603 L115 602 Q115 564 97 549 Q79 534 57 531 Q31 527 0 535 Q3 545 6 563 Q8 579 10.5 604.5 Q13 630 13 669 Q13 710 9.5 730.5 Q6 751 3 760 Q-1 771 -3 774 Q-5 777 -6 778 L11 795 Q15 781 29 775 Q43 769 57 768 L255 768 Q276 768 290 763 Q304 758 313 750 Q322 758 335.5 763 Q349 768 371 768 L569 768 Q583 769 596.5 774.5 Q610 780 615 795 L632 778 L630 775 Q628 773 626 769 Q624 765 622 759 Q619 751 616 731 Q613 711 613 669 Q613 630 615 604.5 Q617 579 619 563 Q622 545 626 535 Q594 527 568 531 Q546 534 528.5 549 Q511 564 511 602 L511 603 Q494 595 481.5 598 Q469 601 460 607 Q449 614 442 626 Q462 626 473.5 635.5 Q485 645 490 656 Q496 669 497 686 Q493 691 488.5 695 Q484 699 479 703 Q456 717 428.5 719 Q401 721 377 713 L377 428 Z M223 383 Q219 375 213.5 367 Q208 359 199 354 Q199 397 199 425 Q199 453 199 471 Q199 489 198.5 498.5 Q198 508 198 513 Q198 548 187.5 561 Q177 574 174 576 Q175 577 179 580 Q183 583 187.5 589.5 Q192 596 195.5 606 Q199 616 199 630 Q199 664 189 677 Q179 690 176 692 Q198 691 208.5 680 Q219 669 223 655 Q227 639 226 619 Q224 565 224 508.5 Q224 452 223 383 Z M199 309 Q213 302 223 284 Q223 237 224 178.5 Q225 120 223 69 Q223 15 212.5 -13 Q202 -41 189 -54 Q174 -69 155 -69 Q175 -56 184.5 -32.5 Q194 -9 198 14 Q202 41 202 71 L199 309 Z " />
<glyph glyph-name="U" unicode="U" horiz-adv-x="590" d="M507 434 Q507 405 513 386 Q519 367 526.5 355.5 Q534 344 540.5 339 Q547 334 549 333 Q548 332 541.5 326 Q535 320 527.5 307.5 Q520 295 514 275 Q508 255 507 227 L507 58 Q508 18 511.5 -5.5 Q515 -29 520 -42 Q525 -57 532 -64 Q491 -53 464.5 -54 Q438 -55 414.5 -61 Q391 -67 365 -73.5 Q339 -80 298 -80 Q224 -80 182 -63.5 Q140 -47 119.5 -21.5 Q99 4 94.5 35.5 Q90 67 90 96 L90 227 Q89 254 83 273.5 Q77 293 69.5 306 Q62 319 55 325.5 Q48 332 47 333 Q48 333 54.5 338 Q61 343 69 354.5 Q77 366 83.5 385 Q90 404 90 434 L90 677 Q90 683 87.5 693 Q85 703 78 712 Q71 721 59 727.5 Q47 734 26 734 Q30 743 39 751 Q47 757 59 762.5 Q71 768 90 768 Q122 768 136.5 759 Q151 750 156 743 Q160 750 174 759 Q188 768 222 768 Q241 768 253 762.5 Q265 757 273 751 Q282 743 286 734 Q260 734 246.5 723.5 Q233 713 228 701 Q222 687 222 669 L222 428 Q223 401 229 383 Q235 365 242.5 354 Q250 343 256 338.5 Q262 334 264 333 Q263 332 256.5 326 Q250 320 242.5 307.5 Q235 295 229 275 Q223 255 222 227 Q222 173 222 141.5 Q222 110 222.5 93 Q223 76 224 69.5 Q225 63 226 59 Q231 66 239 71 Q247 76 261 76 Q273 76 279.5 70 Q286 64 288.5 57 Q291 50 291 44 Q291 38 291 37 Q290 41 283 44 Q276 47 268.5 45 Q261 43 256.5 34 Q252 25 257 5 Q273 -8 293 -9.5 Q313 -11 330.5 -0.5 Q348 10 360 32.5 Q372 55 373 90 Q371 111 360.5 122 Q350 133 338 138 Q324 143 307 144 Q310 154 315 162 Q320 169 328 174.5 Q336 180 350 180 Q363 180 374 174 L374 669 Q374 687 368 701 Q363 713 349.5 723.5 Q336 734 310 734 Q314 743 323 751 Q331 757 343 762.5 Q355 768 374 768 Q407 768 421.5 758.5 Q436 749 440 743 Q443 748 450 757.5 Q457 767 468 777 Q479 787 493.5 794 Q508 801 527 801 Q546 801 558 795.5 Q570 790 578 784 Q587 777 591 768 Q564 768 547.5 756 Q531 744 522 728 Q513 712 510 696 Q507 680 507 673 L507 434 Z M66 383 Q62 375 56.5 367 Q51 359 42 354 Q42 440 42 488 Q42 536 41 546 Q41 581 30.5 594 Q20 607 17 609 Q19 609 25.5 618.5 Q32 628 32 656 Q32 670 27 680.5 Q22 691 16 698 Q9 706 0 712 Q29 712 43 697 Q57 682 63 665 Q70 645 69 619 Q67 565 67 508.5 Q67 452 66 383 Z M66 80 Q66 34 72 6 Q78 -22 86.5 -37.5 Q95 -53 103 -58.5 Q111 -64 115 -65 Q89 -63 75.5 -40 Q62 -17 55 10 Q47 42 45 82 L42 309 Q56 302 66 284 Q66 237 67 184 Q68 131 66 80 Z " />
<glyph glyph-name="W" unicode="W" horiz-adv-x="874" d="M916 800 Q935 800 947 794.5 Q959 789 967 783 Q976 776 980 767 Q960 767 946 761 Q932 755 922 746 Q912 737 905.5 726 Q899 715 895 705 L820 437 Q815 412 816 394 Q817 376 821 364 Q825 350 832 339 Q821 336 810 327 Q801 319 790.5 304.5 Q780 290 771 266 L697 3 Q702 -11 715 -23 Q728 -35 757 -35 Q753 -45 744 -52 Q736 -58 724 -63 Q712 -68 693 -68 Q661 -68 646.5 -59 Q632 -50 627 -43 Q622 -50 608 -59 Q594 -68 561 -68 Q542 -68 530 -63 Q518 -58 510 -52 Q501 -45 497 -35 Q523 -35 536.5 -24 Q550 -13 555 0 Q548 25 537.5 62 Q527 99 516 138.5 Q505 178 494.5 214.5 Q484 251 477 276 Q461 208 440.5 141 Q420 74 402 3 Q407 -11 420 -23 Q433 -35 462 -35 Q458 -45 449 -52 Q441 -58 429 -63 Q417 -68 398 -68 Q366 -68 351.5 -59 Q337 -50 332 -44 Q330 -50 324 -62 Q318 -74 308.5 -86 Q299 -98 285 -107 Q271 -116 252 -116 Q233 -116 221.5 -111 Q210 -106 202 -100 Q193 -93 189 -83 Q207 -83 219.5 -74 Q232 -65 240 -52 Q248 -39 253 -24 Q258 -9 261 3 L187 260 Q177 287 166 302.5 Q155 318 145 326 Q134 335 122 338 Q130 350 134 366 Q138 380 138.5 399 Q139 418 134 443 Q117 501 108 534 Q99 567 93 588.5 Q87 610 82 627.5 Q77 645 69 671 Q57 703 40 713 Q23 723 7.5 718.5 Q-8 714 -19.5 699 Q-31 684 -33.5 665.5 Q-36 647 -26 629.5 Q-16 612 12 603 Q7 579 -15 569.5 Q-37 560 -61.5 566.5 Q-86 573 -106 595.5 Q-126 618 -126 657 Q-126 678 -115.5 698.5 Q-105 719 -86 736 Q-67 753 -40.5 763.5 Q-14 774 18 774 Q47 774 71.5 765 Q96 756 115 744 Q120 750 136 760 Q152 770 187 770 Q206 770 218 764.5 Q230 759 238 753 Q247 746 251 737 Q225 737 214.5 726.5 Q204 716 201.5 703 Q199 690 201 678.5 Q203 667 203 664 L346 169 Q359 211 370.5 252.5 Q382 294 391 331 Q400 368 405.5 400 Q411 432 411 455 Q395 488 383 505.5 Q371 523 363 531 Q353 540 346 541 Q373 568 400.5 572.5 Q428 577 451.5 568 Q475 559 494 540 Q513 521 524 500 Q531 505 541 505 Q558 505 565 497.5 Q572 490 574 481 Q577 470 575 458 Q564 464 557 462 Q551 460 547.5 451.5 Q544 443 549 421 L616 187 L750 670 Q755 688 752 703 Q750 715 739 725.5 Q728 736 702 736 Q706 745 715 752 Q723 758 735 763.5 Q747 769 766 769 Q794 769 810 762 Q826 755 833 748 Q837 754 844 763 Q851 772 861.5 780 Q872 788 885.5 794 Q899 800 916 800 Z M76 570 Q83 541 87 525 Q91 509 94.5 495 Q98 481 103 462.5 Q108 444 118 410 Q119 406 119 399 Q119 392 118.5 384 Q118 376 116 369.5 Q114 363 110 360 Q97 403 89.5 430 Q82 457 77.5 473 Q73 489 71 497 Q69 505 68 510 Q57 543 48.5 553 Q40 563 37 565 Q39 566 43.5 575 Q48 584 38 610 Q31 626 24.5 636.5 Q18 647 12.5 653 Q7 659 3 661 Q-1 663 -2 664 Q18 670 33 656.5 Q48 643 58 623 Q69 600 76 570 Z M191 -50 Q207 -37 209.5 -13.5 Q212 10 209 33 Q205 60 195 90 L127 304 Q129 302 140.5 291 Q152 280 160 270 Q174 223 188 181 Q202 139 216 88 Q233 34 231 6 Q229 -22 220 -35 Q209 -50 191 -50 Z " />
<glyph glyph-name="X" unicode="X" horiz-adv-x="699" d="M297 328 Q288 330 280 329.5 Q272 329 266 327 Q259 325 253 323 Q255 335 259 346 Q263 355 270.5 364.5 Q278 374 292 379 L126 676 Q108 702 89.5 709 Q71 716 56.5 710.5 Q42 705 33.5 691 Q25 677 26 660 Q27 643 39 626.5 Q51 610 78 601 Q73 577 51 567.5 Q29 558 4.5 564.5 Q-20 571 -40 593.5 Q-60 616 -60 655 Q-60 676 -52 696.5 Q-44 717 -27.5 734 Q-11 751 13.5 761.5 Q38 772 70 772 Q97 772 118.5 762.5 Q140 753 156 740 Q157 742 160.5 747 Q164 752 171.5 756.5 Q179 761 191 764.5 Q203 768 223 768 Q242 768 255.5 762.5 Q269 757 278 751 Q289 744 296 735 Q273 735 264 726.5 Q255 718 254 706.5 Q253 695 257 684 Q261 673 264 668 L375 468 L490 673 Q492 677 495 687.5 Q498 698 496 708.5 Q494 719 484.5 727 Q475 735 451 735 Q458 744 469 751 Q478 757 491.5 762.5 Q505 768 524 768 Q556 768 570 759 Q584 750 588 743 Q592 748 600 757.5 Q608 767 620.5 776.5 Q633 786 648.5 793 Q664 800 683 800 Q715 800 728 790 Q741 780 745 768 Q749 754 744 737 Q741 740 737 743 Q733 745 726 747.5 Q719 750 709 750 Q697 750 684 740.5 Q671 731 658 717.5 Q645 704 634.5 689 Q624 674 617 664 L441 349 L579 103 Q584 111 590.5 116.5 Q597 122 609 122 Q620 122 626.5 117 Q633 112 637 107 Q641 101 643 93 Q631 89 624 81 Q618 74 614.5 63 Q611 52 617 34 Q631 12 647.5 -3.5 Q664 -19 683 -19 Q693 -19 700 -17 Q707 -15 711 -13 Q715 -10 718 -6 Q723 -24 719 -38 Q715 -50 702 -59.5 Q689 -69 657 -69 Q625 -69 609 -60 Q593 -51 588 -44 Q585 -51 571.5 -60 Q558 -69 524 -69 Q505 -69 491.5 -64 Q478 -59 469 -53 Q458 -46 451 -36 Q474 -36 483.5 -28 Q493 -20 495.5 -10 Q498 0 495 10 Q492 20 491 24 L375 231 L262 28 Q260 24 256.5 13.5 Q253 3 254 -8 Q255 -19 263.5 -27.5 Q272 -36 296 -36 Q289 -46 278 -53 Q269 -59 255.5 -64 Q242 -69 223 -69 Q191 -69 177.5 -60.5 Q164 -52 159 -45 Q155 -52 145.5 -66.5 Q136 -81 122 -95.5 Q108 -110 91 -121 Q74 -132 55 -132 Q36 -132 25.5 -127 Q15 -122 10 -116 Q4 -109 1 -99 Q17 -99 32.5 -90.5 Q48 -82 61.5 -68.5 Q75 -55 87 -39 Q99 -23 108 -9 L130 29 L297 328 Z M259 402 Q267 387 253 373 Q229 413 214 438 Q199 463 190.5 478.5 Q182 494 178 501.5 Q174 509 171 513 Q160 531 150 542.5 Q140 554 132 561 Q123 569 115 572 Q117 577 117 584 Q117 597 102 622 Q90 639 81.5 647 Q73 655 67 658 Q60 662 56 661 Q74 671 93 658.5 Q112 646 128 627 Q146 605 163 573 Q178 546 188 527.5 Q198 509 207.5 491.5 Q217 474 228.5 453.5 Q240 433 259 402 Z M230 300 Q235 297 242 298 Q249 299 255 303 Q242 280 226 250 Q210 220 193.5 188 Q177 156 160 125 Q143 94 129 69 Q100 15 76 -12.5 Q52 -40 35 -51 Q15 -64 -2 -63 Q24 -50 45.5 -27.5 Q67 -5 81 17 Q98 43 110 71 L230 300 Z " />
<glyph glyph-name="Y" unicode="Y" horiz-adv-x="686" d="M285 259 Q283 283 274 295.5 Q265 308 254 313 Q242 319 226 320 Q227 328 231 336 Q234 342 241 348 Q248 354 260 356 L266 356 Q207 452 172 509.5 Q137 567 117 599 Q97 631 88 646.5 Q79 662 72 674 Q54 701 35.5 708.5 Q17 716 2 711 Q-13 706 -22 691.5 Q-31 677 -30 660 Q-29 643 -17 626.5 Q-5 610 22 601 Q17 577 -5 567.5 Q-27 558 -51.5 564.5 Q-76 571 -96 593.5 Q-116 616 -116 655 Q-116 676 -108 696.5 Q-100 717 -83.5 734 Q-67 751 -42.5 761.5 Q-18 772 14 772 Q40 772 61 763 Q82 754 98 742 Q101 747 114 757.5 Q127 768 163 768 Q182 768 195.5 762.5 Q209 757 218 751 Q229 744 236 735 Q217 735 208 729 Q199 723 196.5 715 Q194 707 196 697.5 Q198 688 201 681 L352 435 L494 669 Q504 687 505 702 Q506 714 498.5 724.5 Q491 735 465 735 Q472 744 483 751 Q492 757 505.5 762.5 Q519 768 538 768 Q571 768 585 758.5 Q599 749 603 742 Q607 747 618 757 Q629 767 643.5 776.5 Q658 786 676 793.5 Q694 801 713 801 Q732 801 743 795.5 Q754 790 759 784 Q765 777 767 768 Q741 768 716 752.5 Q691 737 671 718 Q648 696 627 669 L418 326 L418 109 Q426 114 437 114 Q454 114 461.5 106.5 Q469 99 473 90 Q477 79 477 67 Q461 75 448.5 70.5 Q436 66 428.5 55 Q421 44 419.5 28.5 Q418 13 423.5 -1 Q429 -15 443 -25 Q457 -35 481 -36 Q477 -46 468 -53 Q460 -59 448 -64 Q436 -69 417 -69 Q386 -69 371.5 -61 Q357 -53 352 -46 Q349 -54 341 -70.5 Q333 -87 318 -104 Q303 -121 281.5 -134 Q260 -147 230 -147 Q211 -147 199 -142 Q187 -137 179 -131 Q170 -124 166 -114 Q198 -114 220.5 -101.5 Q243 -89 257.5 -69 Q272 -49 278.5 -23.5 Q285 2 285 29 L285 259 Z M219 387 Q227 372 213 358 Q164 437 142.5 471 Q121 505 115 513 Q104 531 94 542.5 Q84 554 76 561 Q67 569 59 572 Q61 577 61 584 Q61 597 46 622 Q34 639 25.5 647 Q17 655 11 658 Q4 662 0 661 Q18 671 37 658.5 Q56 646 72 627 Q90 605 107 573 Q122 546 134.5 525 Q147 504 159.5 484 Q172 464 186 441 Q200 418 219 387 Z M244 300 Q258 293 268 275 Q268 228 269 169.5 Q270 111 268 60 Q268 6 257.5 -22 Q247 -50 234 -63 Q219 -78 200 -78 Q220 -65 229.5 -41.5 Q239 -18 243 5 Q247 32 247 62 L244 300 Z " />
<glyph glyph-name="Z" unicode="Z" horiz-adv-x="619" d="M208 345 Q214 344 215.5 333.5 Q217 323 215 313 Q206 295 188 265 Q170 235 147 198.5 Q124 162 99.5 122 Q75 82 54 45.5 Q33 9 18 -22 Q3 -53 0 -72 Q-6 -49 7 -15 Q20 19 48 69 Q76 119 117 187 Q158 255 208 345 Z M614 803 Q614 803 620 800.5 Q626 798 631 788.5 Q636 779 635.5 761 Q635 743 621 713 Q619 709 615 701 Q611 693 596.5 667.5 Q582 642 552.5 592 Q523 542 471 452 Q468 446 462 432.5 Q456 419 451 402 Q446 385 444.5 364.5 Q443 344 449 324 Q434 327 418 322 Q404 317 388.5 302 Q373 287 358 254 L358 256 L217 13 Q236 7 261 3 Q286 -1 323 -1 Q331 -1 347 -0.5 Q363 0 381.5 3 Q400 6 418.5 11 Q437 16 448.5 25 Q460 34 463 47.5 Q466 61 454 80 Q449 87 442.5 90.5 Q436 94 431 96 Q425 98 418 98 Q418 106 422 112 Q425 117 431 122 Q437 127 448 129 Q461 130 471 124 Q481 172 503 195 Q525 218 548 227 Q574 238 606 235 Q598 219 592 192 Q587 169 583 130.5 Q579 92 579 34 Q579 -5 582 -26 Q585 -47 588 -56 Q593 -67 595 -70.5 Q597 -74 598 -75 L581 -92 Q576 -78 562.5 -72 Q549 -66 535 -65 L146 -65 Q131 -65 113 -66 Q95 -67 79.5 -70 Q64 -73 53.5 -79.5 Q43 -86 43 -97 Q43 -98 37 -93 Q31 -88 30 -74 Q29 -60 37.5 -35 Q46 -10 75 30 L227 292 L226 291 Q235 305 235 320 Q235 335 231 347 Q227 361 217 374 Q233 373 248 380.5 Q263 388 276 399 Q289 410 299.5 423 Q310 436 318 447 L428 638 Q439 660 431 679 Q423 698 398.5 710 Q374 722 334.5 727 Q295 732 242 728 Q214 722 199.5 709.5 Q185 697 180 680 Q172 657 182.5 635 Q193 613 222 605 Q217 581 195 571.5 Q173 562 148.5 568.5 Q124 575 104 597.5 Q84 620 84 659 Q88 697 86.5 727 Q85 757 68 763 Q68 763 76 766.5 Q84 770 93.5 770.5 Q103 771 112 767 Q121 763 124 748 Q161 773 214 774 Q242 774 280.5 771 Q319 768 360.5 765.5 Q402 763 443.5 761.5 Q485 760 520 763.5 Q555 767 580 776 Q605 785 614 803 Z M235 395 Q258 436 271 459 Q284 482 291 494 Q298 506 301 511.5 Q304 517 306 522 Q317 540 322.5 554 Q328 568 330 578 Q332 589 331 598 Q337 598 343 602 Q348 605 354.5 612 Q361 619 369 633 Q378 651 381 663 Q384 675 384 682 Q384 690 382 694 Q400 682 398 659.5 Q396 637 386 614 Q375 588 355 557 Q338 531 329 515.5 Q320 500 311.5 486 Q303 472 292.5 453.5 Q282 435 263 404 Q252 392 235 395 Z " />
<glyph glyph-name="E" unicode="E" horiz-adv-x="572" d="M92 227 Q91 254 85 273.5 Q79 293 71.5 306 Q64 319 57 325.5 Q50 332 49 333 Q50 333 56.5 338 Q63 343 71 354.5 Q79 366 85.5 385 Q92 404 92 434 L92 669 Q92 687 86 702 Q81 714 67.5 724.5 Q54 735 28 735 Q32 744 41 751 Q49 757 61 762.5 Q73 768 92 768 Q114 768 132.5 762 Q151 756 165 745 Q176 755 196.5 761.5 Q217 768 253 768 L384 768 Q407 770 426 774 Q443 778 457.5 785 Q472 792 477 805 L501 785 Q489 779 483 758.5 Q477 738 475 710 Q473 682 474.5 651.5 Q476 621 478.5 595 Q481 569 484 552 Q487 535 488 535 Q487 535 474 532.5 Q461 530 445.5 534.5 Q430 539 417 555.5 Q404 572 404 608 Q404 613 404 617.5 Q404 622 403 627 Q397 618 390 614.5 Q383 611 376 610 Q368 609 360 611 Q365 629 361 644 Q358 657 346.5 669 Q335 681 306 684 L211 684 Q217 667 220.5 648.5 Q224 630 224 610 L224 375 Q229 383 236 392.5 Q243 402 253 413 Q276 438 284.5 454.5 Q293 471 295 481 Q297 492 292 499 Q305 498 316 491 Q326 485 336 471.5 Q346 458 352 433 Q354 425 355 410.5 Q356 396 354.5 381.5 Q353 367 348 354.5 Q343 342 333 338 Q331 350 326 358 Q321 365 313.5 368.5 Q306 372 292 366 Q277 359 265 343.5 Q253 328 244 312 Q235 296 230 283 Q225 270 224 267 L224 152 Q226 152 228 152.5 Q230 153 233 153 Q247 153 255 147.5 Q263 142 268 135 Q273 127 276 117 Q250 120 235.5 102 Q221 84 221 61 Q221 38 238 18.5 Q255 -1 292 -1 Q334 -1 355 18.5 Q376 38 384.5 65.5 Q393 93 392.5 122.5 Q392 152 392 172 Q392 222 410 244 Q428 266 450 273 Q476 281 508 274 Q501 258 494.5 231 Q488 204 488 174.5 Q488 145 497.5 118 Q507 91 531 74 Q523 73 512.5 54 Q502 35 499.5 12 Q497 -11 507.5 -30 Q518 -49 552 -49 L552 -70 L253 -70 Q228 -70 211.5 -64.5 Q195 -59 184 -51 Q167 -75 144 -90.5 Q121 -106 92 -106 Q73 -106 61 -101 Q49 -96 41 -90 Q32 -83 28 -73 Q54 -73 67.5 -57.5 Q81 -42 86 -22 Q92 1 92 30 L92 227 Z M68 383 Q64 375 58.5 367 Q53 359 44 354 Q44 440 44 488 Q44 536 43 546 Q43 581 32.5 594 Q22 607 19 609 Q21 609 27.5 618.5 Q34 628 34 656 Q34 670 29 680.5 Q24 691 18 698 Q11 706 2 712 Q31 712 45 697 Q59 682 65 665 Q72 645 71 619 Q69 565 69 508.5 Q69 452 68 383 Z M44 309 Q58 302 68 284 Q68 237 69 178.5 Q70 120 68 69 Q68 15 57.5 -11 Q47 -37 34 -48 Q19 -60 0 -57 Q20 -44 29.5 -22.5 Q39 -1 43 20 Q47 45 47 71 L44 309 Z M488 535 Q488 535 489 535 L488 535 Z " />
<glyph glyph-name="H" unicode="H" horiz-adv-x="648" d="M566 21 Q566 15 568.5 5 Q571 -5 577.5 -14 Q584 -23 596.5 -29.5 Q609 -36 630 -36 Q626 -46 617 -53 Q609 -59 597 -64 Q585 -69 566 -69 Q534 -69 519.5 -60 Q505 -51 500 -44 Q495 -51 481 -60 Q467 -69 434 -69 Q415 -69 403 -64 Q391 -59 383 -53 Q374 -46 370 -36 Q390 -36 402 -29.5 Q414 -23 421 -14 Q428 -5 430.5 4.5 Q433 14 434 21 L434 274 Q432 298 413.5 312.5 Q395 327 370 333 Q350 334 335.5 326.5 Q321 319 310 310 Q298 299 289 285 Q275 285 267.5 297 Q260 309 262 324 L252 319 L252 107 Q260 112 271 112 Q288 112 295.5 104.5 Q303 97 307 88 Q311 77 311 65 Q295 71 282 70 Q271 69 261.5 61 Q252 53 252 30 Q252 11 258 -3 Q263 -16 276.5 -26 Q290 -36 316 -36 Q312 -46 303 -53 Q295 -59 283 -64 Q271 -69 252 -69 Q221 -69 206 -60.5 Q191 -52 186 -45 Q183 -53 175 -69.5 Q167 -86 152.5 -103 Q138 -120 116.5 -133 Q95 -146 65 -146 Q46 -146 34 -141 Q22 -136 14 -130 Q5 -123 1 -113 Q33 -113 55.5 -100.5 Q78 -88 92.5 -68 Q107 -48 113.5 -22.5 Q120 3 120 30 L120 267 Q96 268 78 273.5 Q60 279 47.5 287 Q35 295 27 304.5 Q19 314 15 324 Q4 347 6 375 Q42 347 68 349.5 Q94 352 120 367 L120 677 Q120 683 117.5 693 Q115 703 108 712.5 Q101 722 89 728.5 Q77 735 56 735 Q60 744 69 751 Q77 757 89 762.5 Q101 768 120 768 Q152 768 166.5 759 Q181 750 186 743 Q190 750 204 759 Q218 768 252 768 Q271 768 283 762.5 Q295 757 303 751 Q312 744 316 735 Q290 735 276.5 724.5 Q263 714 258 702 Q252 687 252 669 L252 429 Q256 429 260.5 429.5 Q265 430 270 430 Q323 430 364.5 408 Q406 386 434 361 L434 669 Q433 670 427.5 680.5 Q422 691 411 703 Q400 715 382 725 Q364 735 339 735 Q352 744 368 751 Q381 757 398 762.5 Q415 768 434 768 Q466 768 480.5 759 Q495 750 500 743 Q503 748 510 758 Q517 768 527.5 777.5 Q538 787 553 794 Q568 801 586 801 Q605 801 617 795.5 Q629 790 637 784 Q646 777 650 768 Q625 768 609 754 Q593 740 583.5 722 Q574 704 570 688 Q566 672 566 669 L566 428 Q567 401 573 383 Q579 365 586.5 354 Q594 343 600 338.5 Q606 334 608 333 Q607 332 600.5 326 Q594 320 586.5 307.5 Q579 295 573 275 Q567 255 566 227 L566 21 Z M101 371 Q99 369 90 365.5 Q81 362 77 364 Q77 450 77 491.5 Q77 533 76 543 Q76 578 65.5 591 Q55 604 52 606 Q54 606 60.5 615.5 Q67 625 67 653 Q67 667 62 677.5 Q57 688 51 695 Q44 703 35 709 Q64 709 78 694 Q92 679 98 662 Q105 642 104 616 Q102 562 102 501 Q102 440 101 371 Z M33 -72 Q53 -59 62.5 -35.5 Q72 -12 76 11 Q80 38 80 68 L77 258 Q91 251 101 254 Q101 207 102 162 Q103 117 101 66 Q101 12 90.5 -16 Q80 -44 67 -57 Q52 -72 33 -72 Z " />
<glyph glyph-name="_0009" unicode="&#xe001;" d="" />
<glyph glyph-name="one" unicode="1" horiz-adv-x="305" d="M222 428 Q223 401 229 383 Q235 365 242.5 354 Q250 343 256 338.5 Q262 334 264 333 Q263 332 256.5 326 Q250 320 242.5 306.5 Q235 293 228.5 272 Q222 251 222 221 L222 176 Q230 181 241 181 Q258 181 265.5 173.5 Q273 166 277 157 Q281 146 281 134 Q265 140 252 138 Q241 136 231.5 126 Q222 116 222 90 Q222 84 224.5 74 Q227 64 233.5 55 Q240 46 252.5 39.5 Q265 33 286 33 Q282 23 273 16 Q265 10 253 5 Q241 0 222 0 Q190 0 175.5 9 Q161 18 156 24 Q151 18 137 9 Q123 0 90 0 Q71 0 59 5 Q47 10 39 16 Q30 23 26 33 Q52 33 65.5 43 Q79 53 84 66 Q90 80 90 99 L90 227 Q89 254 83 273.5 Q77 293 69.5 306 Q62 319 55 325.5 Q48 332 47 333 Q48 333 54.5 338 Q61 343 69 354.5 Q77 366 83.5 385 Q90 404 90 434 L90 464 Q76 457 61.5 453 Q47 449 34.5 451 Q22 453 13 462 Q4 471 0 491 Q27 491 57.5 522.5 Q88 554 126 620 Q140 643 163 655 Q170 661 183 666.5 Q196 672 222 672 Q241 672 253 666.5 Q265 661 273 655 Q282 648 286 639 Q260 639 246.5 628.5 Q233 618 228 606 Q222 591 222 573 L222 428 L222 428 Z " />
<glyph glyph-name="two" unicode="2" horiz-adv-x="479" d="M-4 578 Q10 563 36 563 Q62 608 108.5 638 Q155 668 224 670 L231 670 Q286 670 324 656.5 Q362 643 386.5 620.5 Q411 598 423 569 Q435 540 437 509 Q437 498 436 486.5 Q435 475 430.5 461 Q426 447 416 428 Q406 409 388 383 Q386 378 381.5 368.5 Q377 359 373 345.5 Q369 332 366 317 Q363 302 365 287 Q345 282 322 270.5 Q299 259 281 242 Q255 211 224.5 175 Q194 139 157 96 Q160 93 165.5 88 Q171 83 181.5 78.5 Q192 74 208.5 71 Q225 68 248 68 Q254 68 267 68.5 Q280 69 294 73 Q308 77 320 86.5 Q332 96 337 114 Q336 136 328.5 147.5 Q321 159 313 164 Q303 170 291 170 Q291 178 295 184 Q298 189 304 194 Q310 199 321 201 Q340 203 347 191 Q356 218 371.5 230 Q387 242 403 245.5 Q419 249 431.5 247 Q444 245 446 244 Q445 244 444 231 Q443 218 441.5 197 Q440 176 439.5 150 Q439 124 439 99 Q439 74 441 51.5 Q443 29 448 16 Q453 4 455 1 Q457 -2 458 -3 L441 -20 Q436 -6 422.5 -0.5 Q409 5 395 7 L118 7 Q103 7 85 6 Q67 5 51.5 2 Q36 -1 25.5 -7.5 Q15 -14 15 -25 Q15 -25 12.5 -23.5 Q10 -22 7.5 -18 Q5 -14 3 -7.5 Q1 -1 2 9 Q3 46 12 77.5 Q21 109 33.5 134 Q46 159 59 177 Q72 195 81 205 L137 267 Q145 284 148 299.5 Q151 315 151 327 Q151 341 147 353 Q175 348 196 356 Q217 364 229 373 Q263 414 285 450 Q307 486 307 512 Q307 559 281.5 580 Q256 601 226 601 L225 601 Q191 596 165 576 Q142 559 124 524.5 Q106 490 106 431 Q106 408 107.5 394.5 Q109 381 111 373.5 Q113 366 115 363 Q117 360 118 360 Q116 359 102 356 Q88 353 72 354 Q56 355 43 363.5 Q30 372 30 395 Q30 402 26 403 Q22 404 17.5 406 Q13 408 9 416 Q5 424 5 444 Q5 452 5 460.5 Q5 469 7 477 Q7 497 6 509.5 Q5 522 2 530.5 Q-1 539 -5.5 544.5 Q-10 550 -16 556 L-4 578 Z " />
<glyph glyph-name="three" unicode="3" horiz-adv-x="485" d="M317 346 Q359 337 388 307 Q417 277 431.5 237.5 Q446 198 444 154 Q442 110 422.5 73 Q403 36 364 12 Q325 -12 265 -12 Q233 -12 200.5 -10 Q168 -8 135.5 -7 Q103 -6 70.5 -8 Q38 -10 7 -18 Q31 -5 40 22.5 Q49 50 51 78 Q53 111 47 148 L16 148 L16 181 Q59 183 90.5 192 Q122 201 142 210 Q166 221 182 233 L199 217 Q190 217 182 207 Q175 199 169 181 Q163 163 162 129 Q160 92 166.5 75 Q173 58 180 51 Q196 43 217.5 45 Q239 47 259 58.5 Q279 70 293 92 Q307 114 307 147 Q307 213 285 248 Q263 283 232.5 295 Q202 307 171 298.5 Q140 290 122 268 Q119 299 132 318 Q145 337 163.5 350 Q182 363 201 373 Q220 383 229 396 Q266 447 266 509 Q266 533 259 549.5 Q252 566 242 576.5 Q232 587 220.5 591.5 Q209 596 200 596 L199 596 Q162 596 139.5 570.5 Q117 545 117 504 Q117 480 119.5 464 Q122 448 125.5 439 Q129 430 132 426 Q135 422 136 421 Q135 421 121 421.5 Q107 422 90.5 426.5 Q74 431 60.5 440.5 Q47 450 47 468 Q47 475 43 476 Q39 477 34.5 479 Q30 481 26 489 Q22 497 22 517 Q22 521 22 525 Q22 529 23 533 Q24 558 23.5 574 Q23 590 20 600 Q17 610 12.5 616.5 Q8 623 1 629 L13 651 Q25 637 45 636 Q65 635 86.5 640 Q108 645 128 651.5 Q148 658 160 660 Q162 660 163 660.5 Q164 661 165 661 Q176 663 185.5 664 Q195 665 203 665 L205 665 Q254 665 292 650.5 Q330 636 356 612 Q382 588 396 557 Q410 526 410 493 Q410 476 406 456 Q402 436 392 415.5 Q382 395 363.5 377 Q345 359 317 346 Z " />
<glyph glyph-name="four" unicode="4" horiz-adv-x="487" d="M383 293 Q400 290 420 295 Q440 300 465 320 Q467 296 459 276 Q452 259 435 241.5 Q418 224 383 216 L383 176 Q391 181 402 181 Q419 181 426.5 173.5 Q434 166 438 157 Q442 146 442 134 Q426 140 413 139 Q402 138 392.5 130 Q383 122 383 99 Q383 80 389 66 Q394 53 407.5 43 Q421 33 447 33 Q443 23 434 16 Q426 10 414 5 Q402 0 383 0 Q351 0 336.5 9 Q322 18 317 24 Q312 18 298 9 Q284 0 251 0 Q232 0 220 5 Q208 10 200 16 Q191 23 187 33 Q207 33 219 39.5 Q231 46 238 55 Q245 64 247.5 73.5 Q250 83 251 90 L251 229 Q238 235 224 242.5 Q210 250 190 258 Q173 264 152 264.5 Q131 265 112.5 257.5 Q94 250 81 234.5 Q68 219 68 194 Q47 210 34 221.5 Q21 233 13 242 Q5 251 0.5 259 Q-4 267 -7 276 Q-4 274 6.5 293 Q17 312 28.5 342 Q40 372 48.5 408.5 Q57 445 57 479.5 Q57 514 44 541.5 Q31 569 0 581 Q11 602 24 619 Q35 633 51 645 Q67 657 86 657 Q126 657 144.5 625.5 Q163 594 165 546.5 Q167 499 155.5 443.5 Q144 388 125 340 Q142 347 160 351 Q178 355 201 355 Q228 355 251 349 L251 566 Q251 572 248.5 582 Q246 592 239 601.5 Q232 611 220 617.5 Q208 624 187 624 Q191 633 200 640 Q208 646 220 651.5 Q232 657 251 657 Q283 657 297.5 648 Q312 639 317 632 Q321 639 335 648 Q349 657 383 657 Q402 657 414 651.5 Q426 646 434 640 Q443 633 447 624 Q421 624 407.5 613.5 Q394 603 389 591 Q383 576 383 558 L383 293 Z " />
<glyph glyph-name="five" unicode="5" horiz-adv-x="480" d="M366 627 Q380 628 393.5 633.5 Q407 639 412 654 L429 637 L427 634 Q425 632 423 628 Q421 624 419 618 Q416 610 413 590 Q410 570 410 528 Q410 482 411 454.5 Q412 427 413 412.5 Q414 398 415 393.5 Q416 389 417 389 Q415 389 402.5 387 Q390 385 374 388.5 Q358 392 342.5 403.5 Q327 415 318 442 Q309 430 292 433 Q281 434 275 439.5 Q269 445 266 450 Q262 456 262 464 Q275 464 285 470 Q293 475 300 487 Q307 499 308 522 Q302 546 284.5 556.5 Q267 567 245 568 Q223 569 201 562 Q179 555 165 544 Q179 509 179 464.5 Q179 420 166 378 Q180 380 193.5 380 Q207 380 222 380 Q264 379 302 366.5 Q340 354 369 331 Q398 308 416.5 273.5 Q435 239 440 193 Q444 158 436.5 122 Q429 86 408 57 Q387 28 352 9.5 Q317 -9 266 -9 Q227 -9 200 -6 Q145 -4 108.5 -5 Q72 -6 49 -8 Q23 -11 7 -16 Q32 -3 41 26.5 Q50 56 52 87 Q54 123 48 164 L17 164 L17 197 Q60 199 91.5 208 Q123 217 143 226 Q167 237 183 249 L200 233 Q191 228 183 216 Q176 205 170 185.5 Q164 166 163 132 Q161 97 167 79.5 Q173 62 180 55 Q196 47 218 49 Q240 51 260 62.5 Q280 74 294 95 Q308 116 308 148 Q308 245 260.5 281.5 Q213 318 124 303 Q107 286 84 282.5 Q61 279 35 294 Q33 295 38.5 316 Q44 337 49.5 368.5 Q55 400 58 437 Q61 474 54 507 Q50 527 39.5 542.5 Q29 558 18 578 Q5 603 3 619 Q1 635 3.5 644 Q6 653 10.5 656 Q15 659 15 659 Q15 648 25.5 641.5 Q36 635 51.5 632 Q67 629 85 628 Q103 627 118 627 L366 627 Z " />
<glyph glyph-name="six" unicode="6" horiz-adv-x="486" d="M176 332 Q190 347 215 354.5 Q240 362 270 360.5 Q300 359 331 348 Q362 337 388 315.5 Q414 294 430 261 Q446 228 446 184 Q446 148 437 113.5 Q428 79 407 52 Q386 25 351.5 8 Q317 -9 266 -9 Q211 -9 180 -4 Q149 1 127 9 Q113 15 101 23 Q89 31 76 38.5 Q63 46 49 51 Q35 56 18 56 Q25 62 30 74 Q35 85 38.5 104 Q42 123 43 155 L43 226 Q42 254 36 273.5 Q30 293 22.5 305.5 Q15 318 8 324.5 Q1 331 0 332 Q1 332 7.5 336.5 Q14 341 21.5 352 Q29 363 35.5 381 Q42 399 43 427 L43 496 Q43 525 49 555 Q55 585 75 609.5 Q95 634 135 649.5 Q175 665 244 665 Q268 665 292 658.5 Q316 652 340 641 Q366 635 391 635.5 Q416 636 430 651 L442 629 Q435 623 430.5 616.5 Q426 610 423 600 Q420 590 419 574 Q418 558 420 533 Q420 529 420.5 525 Q421 521 421 517 Q421 497 417 489 Q413 481 408.5 479 Q404 477 400 476 Q396 475 396 468 Q396 450 382.5 440.5 Q369 431 352.5 426.5 Q336 422 321.5 421.5 Q307 421 306 421 Q307 421 310 425 Q313 429 316.5 438 Q320 447 323 463 Q326 479 326 504 Q326 533 318 550.5 Q310 568 298.5 578 Q287 588 275.5 591.5 Q264 595 257 596 L249 596 Q239 596 227 592 Q215 588 203.5 576.5 Q192 565 184.5 544 Q177 523 176 489 L176 332 Z M308 232 Q293 267 259 279 Q225 291 176 281 Q176 241 176.5 202.5 Q177 164 179 123 Q184 102 200.5 91 Q217 80 236.5 80 Q256 80 275 90.5 Q294 101 306 122 Q313 149 304.5 164 Q296 179 283 187 Q268 196 246 199 Q249 209 254 217 Q259 224 267 230 Q275 236 289 236 Q298 236 308 232 Z " />
<glyph glyph-name="nine" unicode="9" horiz-adv-x="482" d="M62 636 Q83 651 111 660 Q139 669 176 669 L198 669 Q236 669 274.5 662.5 Q313 656 345 634 Q363 621 373.5 605 Q384 589 389.5 571.5 Q395 554 397 536 Q399 518 399 500 L399 440 Q399 410 405 389.5 Q411 369 418.5 355.5 Q426 342 432.5 335.5 Q439 329 441 328 Q440 328 433.5 323.5 Q427 319 419.5 308 Q412 297 406 279 Q400 261 399 233 L399 164 Q399 135 392.5 105 Q386 75 364.5 50.5 Q343 26 302.5 10.5 Q262 -5 193 -5 L192 -5 Q162 -5 128.5 4 Q95 13 66.5 31.5 Q38 50 19.5 78 Q1 106 1 143 Q1 163 5 171 Q9 179 13.5 181 Q18 183 22 184 Q26 185 26 192 Q26 210 39.5 219.5 Q53 229 69.5 233.5 Q86 238 100 238.5 Q114 239 115 239 Q115 239 112 235.5 Q109 232 105.5 223 Q102 214 99 197.5 Q96 181 96 156 Q96 128 105 110.5 Q114 93 127 83 Q140 73 153.5 69 Q167 65 176 64 L188 64 Q202 64 221.5 70.5 Q241 77 254 104 Q257 127 247.5 140 Q238 153 225 160 Q210 168 191 170 Q194 180 199 188 Q204 195 212 201 Q220 207 234 207 Q254 207 266 195 L266 291 Q250 276 223.5 269.5 Q197 263 167 265.5 Q137 268 106.5 281 Q76 294 51.5 319.5 Q27 345 11.5 383.5 Q-4 422 -4 476 Q-4 482 -4 488.5 Q-4 495 -3 502 Q-4 533 -7.5 551.5 Q-11 570 -16 581 Q-21 593 -28 599 Q-13 598 3 603.5 Q19 609 32.5 616.5 Q46 624 54 630 Q62 636 62 636 Z M266 350 Q266 409 266 442 Q266 475 265.5 491.5 Q265 508 265 512.5 Q265 517 265 519 Q265 546 249.5 561.5 Q234 577 213 579.5 Q192 582 170 571.5 Q148 561 135 537 Q128 510 136.5 495 Q145 480 159 472 Q174 463 196 461 Q193 450 188 442 Q183 435 175 429.5 Q167 424 153 424 Q137 424 127 430 Q133 400 145.5 382 Q158 364 176 355 Q194 346 217 345.5 Q240 345 266 350 Z " />
<glyph glyph-name="zero" unicode="0" horiz-adv-x="545" d="M469 389 Q474 372 483 358 Q492 344 506 334 Q494 322 486 308 Q478 294 470 274 Q468 268 467 261.5 Q466 255 465.5 242.5 Q465 230 464.5 210.5 Q464 191 464 160 Q464 131 458.5 101.5 Q453 72 432.5 47 Q412 22 372 6.5 Q332 -9 263 -9 L246 -9 Q175 -9 134.5 7.5 Q94 24 74.5 49.5 Q55 75 50 106.5 Q45 138 45 167 L45 228 Q44 255 38 274.5 Q32 294 24.5 307 Q17 320 10 326.5 Q3 333 2 334 Q3 334 9.5 339 Q16 344 24 355.5 Q32 367 38.5 386 Q45 405 45 435 L45 493 Q45 522 50 553 Q55 584 74.5 610 Q94 636 134.5 652.5 Q175 669 246 669 L263 669 Q297 669 323.5 665 Q350 661 370 654 Q375 652 388.5 648 Q402 644 419 636 Q436 628 454.5 616 Q473 604 490 588 Q477 590 471 567 Q465 544 463.5 511 Q462 478 464 444 Q466 410 469 389 Z M266 60 Q276 61 287 66.5 Q298 72 307.5 83 Q317 94 323.5 112.5 Q330 131 331 160 L331 228 Q330 255 324 274.5 Q318 294 310.5 307 Q303 320 296 326.5 Q289 333 288 334 Q289 334 295 338.5 Q301 343 308 352.5 Q315 362 321.5 378.5 Q328 395 330 420 Q327 440 316 451.5 Q305 463 294 468 Q281 474 265 475 Q268 485 273 493 Q278 500 286 505.5 Q294 511 308 511 Q320 511 330 506 Q328 526 322.5 543.5 Q317 561 306.5 574 Q296 587 280 594 Q264 601 242 599 Q232 598 221 593 Q210 588 201 576.5 Q192 565 185.5 546.5 Q179 528 178 499 L178 176 Q185 182 197 182 Q208 182 214.5 177 Q221 172 225 167 Q229 161 231 153 Q218 151 208 146 Q200 141 193 132 Q186 123 187 107 Q197 81 212.5 71.5 Q228 62 242 60 L266 60 Z " />
<glyph glyph-name="seven" unicode="7" horiz-adv-x="465" d="M325 627 Q340 627 355 628.5 Q370 630 383 633.5 Q396 637 404 643 Q412 649 412 659 Q412 660 417 655.5 Q422 651 424 639 Q426 627 420.5 606.5 Q415 586 394 553 L347 393 Q343 370 344.5 352 Q346 334 350 321 Q354 306 360 295 Q348 291 337 280 Q327 271 316 255 Q305 239 295 213 L255 78 Q255 71 257 63 Q259 55 265 48.5 Q271 42 282 37.5 Q293 33 311 33 Q307 23 298 16 Q290 10 278 5 Q266 0 247 0 Q214 0 197.5 9 Q181 18 176 24 Q173 18 160.5 9 Q148 0 114 0 Q90 0 78.5 8 Q67 16 62 27 Q57 38 59 54 Q64 51 70 50 Q75 49 82.5 49 Q90 49 100 54 Q109 58 115.5 72 Q122 86 127 99 L171 244 Q174 265 172.5 282 Q171 299 168 310 Q164 323 159 334 Q168 337 178 345 Q186 351 195.5 362.5 Q205 374 215 393 L259 546 Q245 556 223 562.5 Q201 569 180 568 Q159 567 141.5 556.5 Q124 546 119 522 Q119 499 126 487 Q133 475 142 470 Q152 464 165 464 Q164 456 160 450 Q157 445 151.5 439.5 Q146 434 135 433 Q117 430 109 442 Q100 416 84.5 404 Q69 392 53.5 388.5 Q38 385 25.5 386.5 Q13 388 10 389 Q11 389 12 393.5 Q13 398 14 412.5 Q15 427 16 454.5 Q17 482 17 528 Q17 569 13.5 589.5 Q10 610 7 619 Q2 630 0.5 633 Q-1 636 -2 637 L15 654 Q19 640 33 634 Q47 628 61 627 L325 627 Z " />
<glyph glyph-name="eight" unicode="8" horiz-adv-x="473" d="M312 354 Q341 334 363.5 315.5 Q386 297 401.5 275 Q417 253 425 225 Q433 197 433 158 Q433 125 420.5 94.5 Q408 64 382.5 40.5 Q357 17 318 3 Q279 -11 225 -11 L208 -11 Q167 -11 130.5 0 Q94 11 62 37 Q49 46 33 53.5 Q17 61 0 60 Q2 69 5 81 Q7 92 8.5 108.5 Q10 125 12 149 Q12 162 12 169 Q12 176 13 182 L13 186 Q19 235 49 271.5 Q79 308 140 350 Q116 362 94 377 Q72 392 55.5 411.5 Q39 431 29 455.5 Q19 480 19 513 Q19 580 72 623.5 Q125 667 220 667 Q315 667 365 628 Q415 589 415 522 Q415 493 408 470.5 Q401 448 389 430 Q369 404 350 386 Q331 368 312 354 Z M134 528 Q134 504 141 486.5 Q148 469 160.5 455.5 Q173 442 189.5 431 Q206 420 225 409 Q253 430 273 457 Q278 482 270.5 496 Q263 510 252 518 Q239 527 221 530 Q224 540 229 548 Q234 555 242 560.5 Q250 566 264 566 Q273 566 280 563 Q287 560 292 555 Q281 578 258 588 Q235 598 208 598 Q199 597 186.5 593.5 Q174 590 162 582 Q150 574 142 560.5 Q134 547 134 528 Z M259 69 Q283 83 294.5 110 Q306 137 306 160 Q306 191 300 214.5 Q294 238 283 255.5 Q272 273 257.5 285.5 Q243 298 226 308 Q208 299 193.5 289.5 Q179 280 167.5 265 Q156 250 149.5 228.5 Q143 207 142 175 Q149 180 159 180 Q170 180 176.5 175 Q183 170 187 165 Q191 159 193 151 Q183 150 174 146 Q166 143 159.5 137 Q153 131 150 120 Q161 96 171 83 Q181 70 192 63 Q204 58 217 58 Q231 58 241 61 Q251 64 259 69 Z " />
<glyph glyph-name="question" unicode="&#x3f;" horiz-adv-x="400" d="M183 668 Q229 668 264.5 654.5 Q300 641 323.5 618.5 Q347 596 358 567 Q369 538 366 507 Q363 478 351 450 Q339 422 321 395 L327 400 Q312 380 302 360 Q294 343 289 323.5 Q284 304 291 288 Q271 294 247.5 278.5 Q224 263 204.5 237.5 Q185 212 173 182.5 Q161 153 164 131 Q132 126 114.5 135.5 Q97 145 89.5 160 Q82 175 82 192.5 Q82 210 86 221 Q88 227 90 233 Q92 239 97 250 L101 258 Q109 275 111.5 292.5 Q114 310 114 324 Q114 340 112 355 Q134 351 148.5 356 Q163 361 173 368 Q201 406 222.5 441 Q244 476 244 512 Q244 536 237 552.5 Q230 569 220 579.5 Q210 590 198.5 594.5 Q187 599 178 599 L169 599 Q161 598 148.5 594.5 Q136 591 124 581 Q112 571 103.5 553.5 Q95 536 95 507 Q95 483 97.5 467 Q100 451 103.5 442 Q107 433 110 429 Q113 425 114 424 Q113 424 99 424.5 Q85 425 68.5 429.5 Q52 434 38.5 443.5 Q25 453 25 471 Q25 478 21 479 Q17 480 12.5 482 Q8 484 4 492 Q0 500 0 520 Q0 560 18.5 588 Q37 616 64.5 633.5 Q92 651 122.5 659 Q153 667 177 668 L183 668 Z M114 102 Q135 102 150 87 Q165 72 165 51 Q165 30 150 15 Q135 0 114 0 Q93 0 78 15 Q63 30 63 51 Q63 72 78 87 Q93 102 114 102 Z M189 388 Q190 388 190 389 L189 388 Z " />
<glyph glyph-name="exclam" unicode="&#x21;" horiz-adv-x="288" d="M182 451 Q191 432 200.5 424.5 Q210 417 212 416 Q211 415 196.5 398 Q182 381 174 344 L163 213 Q165 198 173 186 Q181 174 203 174 Q200 164 195 157 Q190 151 181.5 146 Q173 141 160 141 Q137 141 129 145 Q119 140 103 140 Q86 140 76.5 145 Q67 150 62 157 Q56 165 54 175 Q72 175 79 185 Q86 195 88 208 L86 242 L80 336 Q73 377 58 395 Q43 413 40 415 Q42 415 53 425 Q64 435 73 458 Q73 495 71.5 525.5 Q70 556 62.5 578 Q55 600 40.5 612 Q26 624 0 624 Q4 633 13 640 Q21 646 33 651.5 Q45 657 64 657 Q96 657 110.5 648 Q125 639 130 632 Q134 639 148 648 Q162 657 196 657 Q215 657 227 651.5 Q239 646 247 640 Q256 633 260 624 Q234 624 218.5 609 Q203 594 195 569.5 Q187 545 184.5 514 Q182 483 182 451 Z M75 51 Q75 72 90 87 Q105 102 126 102 Q147 102 162 87 Q177 72 177 51 Q177 30 162 15 Q147 0 126 0 Q105 0 90 15 Q75 30 75 51 Z " />
<glyph glyph-name="period" unicode="&#x2e;" horiz-adv-x="141" d="M23 51 Q23 72 38 87 Q53 102 74 102 Q95 102 110 87 Q125 72 125 51 Q125 30 110 15 Q95 0 74 0 Q53 0 38 15 Q23 30 23 51 Z " />
<glyph glyph-name="dollar" unicode="&#x24;" horiz-adv-x="498" d="M55 367 Q15 403 5.5 447.5 Q-4 492 12.5 531.5 Q29 571 69.5 599.5 Q110 628 171 633 L171 676 L233 676 L233 629 Q255 624 277.5 614.5 Q300 605 318.5 589 Q337 573 349 550.5 Q361 528 361 498 Q361 479 357.5 471.5 Q354 464 349.5 462 Q345 460 341.5 459 Q338 458 338 452 Q338 435 325.5 426.5 Q313 418 298 413.5 Q283 409 269.5 408.5 Q256 408 255 408 Q256 408 259 411.5 Q262 415 265 423.5 Q268 432 270.5 447 Q273 462 273 486 Q273 520 260 537 Q247 554 233 562 L233 384 L254 372 L254 373 Q262 368 273 366 Q282 364 296 365.5 Q310 367 329 375 Q328 364 331 352 Q333 341 338 328 Q343 315 354 302 Q393 261 407 210 Q421 159 408 114 Q395 69 354 38.5 Q313 8 241 8 L233 8 L233 -50 L171 -50 L171 9 Q142 11 113.5 17.5 Q85 24 62 39 Q39 54 24.5 78.5 Q10 103 10 142 Q10 161 13.5 168.5 Q17 176 21.5 178.5 Q26 181 29.5 182 Q33 183 33 189 Q33 205 45 213.5 Q57 222 72 226 Q87 230 100 231 Q113 232 114 232 Q114 231 111.5 227.5 Q109 224 106 215.5 Q103 207 100.5 192.5 Q98 178 98 155 Q98 125 107.5 108 Q117 91 130 82 Q147 68 171 62 L171 286 Q154 297 138 300 Q122 303 110 301 Q96 299 84 293 Q86 309 81.5 322.5 Q77 336 71 346 Q64 357 55 367 Z M280 144 Q280 177 265 201.5 Q250 226 233 242 L233 67 Q253 75 266.5 93.5 Q280 112 280 144 Z M135 490 Q135 473 144.5 457 Q154 441 171 427 L171 563 Q157 555 146 537.5 Q135 520 135 490 Z " />
<glyph glyph-name="slash" unicode="&#x2f;" horiz-adv-x="423" d="M364 673 Q377 671 383.5 664.5 Q390 658 393 650 Q397 641 396 631 Q386 633 377.5 628.5 Q369 624 362.5 616 Q356 608 351.5 599 Q347 590 345 584 L283 389 Q279 357 282 339 Q283 329 286 323 Q281 320 275 315 Q270 310 263.5 302.5 Q257 295 249 282 L168 25 Q164 10 167 -2.5 Q170 -15 190 -16 Q188 -23 183 -28 Q178 -33 170.5 -36.5 Q163 -40 149 -39 Q123 -38 113.5 -31 Q104 -24 102 -16 Q97 -23 87.5 -30.5 Q78 -38 59 -34 Q42 -30 33.5 -22 Q25 -14 22 -6 Q18 4 19 14 Q33 11 44 18.5 Q55 26 62 37 Q70 49 76 67 L138 258 Q144 283 145 301.5 Q146 320 145 333 Q143 348 140 359 Q148 362 158 372 Q166 380 175.5 397 Q185 414 195 443 L239 581 Q239 581 240 582 L251 621 Q254 635 250 646.5 Q246 658 228 658 Q230 665 235 670 Q240 675 248 678 Q256 681 270 681 Q296 680 305.5 672.5 Q315 665 317 657 Q321 664 332.5 670.5 Q344 677 364 673 Z " />
<glyph glyph-name="hyphen" unicode="&#x2d;" horiz-adv-x="415" d="M41 365 L295 366 Q313 366 328.5 361.5 Q344 357 355.5 345.5 Q367 334 373.5 315 Q380 296 380 266 Q379 266 367 266 Q355 266 336.5 266 Q318 266 294 266 Q270 266 245 266 L113 266 Q104 266 91.5 268.5 Q79 271 68 280.5 Q57 290 49 310 Q41 330 41 365 Z " />
<glyph glyph-name="numbersign" unicode="&#x23;" horiz-adv-x="550" d="M187 457 L230 599 Q232 613 229.5 624 Q227 635 212 635 Q214 641 218 645 Q222 649 228.5 652 Q235 655 246 655 Q269 654 276.5 647.5 Q284 641 286 634 Q290 639 297.5 644 Q305 649 321 649 Q337 649 343 643 Q349 637 351 630 Q353 621 349 611 Q335 611 326 598.5 Q317 586 312 575 L277 457 L383 458 L427 605 Q429 617 425.5 626 Q422 635 409 635 Q411 641 415 645 Q419 649 425.5 652 Q432 655 443 655 Q465 654 473 647.5 Q481 641 482 633 Q486 639 493.5 644 Q501 649 518 649 Q534 649 540.5 643 Q547 637 548 630 Q549 621 545 611 Q523 611 509 572 Q495 533 472 458 Q487 458 499.5 455.5 Q512 453 521 445.5 Q530 438 535.5 423.5 Q541 409 541 383 Q541 383 532.5 382.5 Q524 382 510.5 382 Q497 382 481 382 Q465 382 449 382 L416 271 Q434 271 449.5 270.5 Q465 270 476.5 263 Q488 256 494.5 241 Q501 226 501 196 Q501 196 491 195.5 Q481 195 465.5 195 Q450 195 431 195 Q412 195 393 195 Q382 156 375.5 134.5 Q369 113 365 100 Q361 87 358.5 79 Q356 71 352 59 Q349 45 351.5 34 Q354 23 370 23 Q368 16 364 12 Q360 8 353.5 4.5 Q347 1 336 2 Q313 2 305 9 Q297 16 296 23 Q292 18 284.5 13.5 Q277 9 261 9 Q244 9 238.5 14.5 Q233 20 231 27 Q229 35 233 46 Q247 46 255.5 57.5 Q264 69 269 80 L303 195 L197 195 L166 92 L154 53 Q152 41 155.5 32 Q159 23 173 23 Q171 16 167 12 Q163 8 156.5 4.5 Q150 1 139 2 Q116 2 108 9 Q100 16 99 23 Q95 18 87.5 13.5 Q80 9 64 9 Q47 9 41 14.5 Q35 20 34 27 Q33 35 37 46 Q48 46 56 54 Q64 62 69 72 Q75 83 79 98 L80 98 L109 196 L86 196 Q77 196 64.5 197.5 Q52 199 41 206 Q30 213 22 228 Q14 243 14 270 L131 270 L165 383 L126 383 Q117 383 104.5 384.5 Q92 386 81 393 Q70 400 62 415 Q54 430 54 457 L187 457 Z M254 382 L220 270 L326 271 L360 382 L254 382 Z " />
<glyph glyph-name="plus" unicode="&#x2b;" horiz-adv-x="428" d="M259 146 Q224 146 204 154 Q184 162 174.5 173 Q165 184 162.5 196.5 Q160 209 160 218 Q159 226 159 234 L159 265 L129 265 Q121 265 113 266 Q104 266 91.5 268.5 Q79 271 68 280.5 Q57 290 49 310 Q41 330 41 365 L159 365 Q159 387 159 408 Q159 429 159 446 Q159 463 159.5 473.5 Q160 484 160 485 Q190 485 209 478.5 Q228 472 239.5 460.5 Q251 449 255.5 433.5 Q260 418 260 400 L260 366 L295 366 Q313 366 328.5 361.5 Q344 357 355.5 345.5 Q367 334 373.5 315 Q380 296 380 266 Q379 266 368.5 265.5 Q358 265 340.5 265 Q323 265 302 265 Q281 265 259 265 L259 146 Z " />
<glyph glyph-name="equal" unicode="&#x3d;" horiz-adv-x="420" d="M41 456 L295 457 Q313 457 328.5 452.5 Q344 448 355.5 436.5 Q367 425 373.5 406 Q380 387 380 357 Q379 357 367 357 Q355 357 336.5 357 Q318 357 294 357 Q270 357 245 357 L113 357 Q104 357 91.5 359.5 Q79 362 68 371.5 Q57 381 49 401 Q41 421 41 456 Z M41 301 L295 302 Q313 302 328.5 297.5 Q344 293 355.5 281.5 Q367 270 373.5 251 Q380 232 380 202 Q379 202 367 202 Q355 202 336.5 202 Q318 202 294 202 Q270 202 245 202 L113 202 Q104 202 91.5 204.5 Q79 207 68 216.5 Q57 226 49 246 Q41 266 41 301 Z " />
<glyph glyph-name="underscore" unicode="&#x5f;" horiz-adv-x="436" d="M19 16 L312 17 Q347 17 372 0.5 Q397 -16 397 -61 Q396 -61 382.5 -61 Q369 -61 347.5 -61 Q326 -61 298.5 -61 Q271 -61 243 -61 L91 -61 Q82 -61 69.5 -57.5 Q57 -54 46 -45 Q35 -36 27 -21.5 Q19 -7 19 16 Z " />
<glyph glyph-name="asterisk" unicode="&#x2a;" horiz-adv-x="279" d="M155 399 L124 451 Q122 447 122 447 L121 446 Q117 440 110.5 433 Q104 426 93.5 422.5 Q83 419 67 421.5 Q51 424 29 437 L60 492 L52 492 Q45 492 35.5 494 Q26 496 17.5 503.5 Q9 511 3 526 Q-3 541 -3 567 L56 567 Q43 590 48 613 Q53 636 90 658 L123 603 L124 604 Q137 627 160 636 Q183 645 221 622 Q221 621 212.5 605.5 Q204 590 191 568 Q204 568 215.5 564 Q227 560 235.5 551.5 Q244 543 249 528.5 Q254 514 254 492 Q253 491 232 491 Q211 491 188 491 Q189 488 192 485 Q193 484 193 483 Q196 477 199 468 Q202 459 199.5 448 Q197 437 187 424.5 Q177 412 155 399 Z " />
<glyph glyph-name="comma" unicode="&#x2c;" horiz-adv-x="150" d="M16 51 Q16 72 31 87 Q46 102 67 102 Q88 102 103 87 Q118 72 118 51 L118 50 Q118 11 105.5 -7.5 Q93 -26 78 -34 Q60 -43 39 -41 Q49 -41 53 -28.5 Q57 -16 59 0 Q41 3 28.5 17 Q16 31 16 51 Z " />
<glyph glyph-name="colon" unicode="&#x3a;" horiz-adv-x="177" d="M23 189 Q23 210 38 225 Q53 240 74 240 Q95 240 110 225 Q125 210 125 189 Q125 168 110 153 Q95 138 74 138 Q53 138 38 153 Q23 168 23 189 Z M23 450 Q23 471 38 486 Q53 501 74 501 Q95 501 110 486 Q125 471 125 450 Q125 429 110 414 Q95 399 74 399 Q53 399 38 414 Q23 429 23 450 Z " />
<glyph glyph-name="semicolon" unicode="&#x3b;" horiz-adv-x="150" d="M16 51 Q16 72 31 87 Q46 102 67 102 Q88 102 103 87 Q118 72 118 51 L118 50 Q118 11 105.5 -7.5 Q93 -26 78 -34 Q60 -43 39 -41 Q49 -41 53 -28.5 Q57 -16 59 0 Q41 3 28.5 17 Q16 31 16 51 Z M23 350 Q23 371 38 386 Q53 401 74 401 Q95 401 110 386 Q125 371 125 350 Q125 329 110 314 Q95 299 74 299 Q53 299 38 314 Q23 329 23 350 Z " />
<glyph glyph-name="less" unicode="&#x3c;" horiz-adv-x="406" d="M21 329 L24 332 L228 537 Q253 562 282 567.5 Q311 573 343 542 Q343 541 328 526 Q313 511 290 488 Q267 465 240 438.5 Q213 412 189.5 388.5 Q166 365 149.5 348.5 Q133 332 130 329 Q133 326 149.5 309.5 Q166 293 189.5 269.5 Q213 246 240 219.5 Q267 193 290 170 Q313 147 328 132 Q343 117 343 116 Q327 100 312 94.5 Q297 89 282.5 90.5 Q268 92 254 100.5 Q240 109 228 121 L24 326 L21 329 Z " />
<glyph glyph-name="greater" unicode="&#x3e;" horiz-adv-x="374" d="M136 121 Q124 109 110 100.5 Q96 92 81.5 90.5 Q67 89 52 94.5 Q37 100 21 116 Q21 117 36 132 Q51 147 74 170 Q97 193 124 219.5 Q151 246 174.5 269.5 Q198 293 214.5 309.5 Q231 326 234 329 Q231 332 214.5 348.5 Q198 365 174.5 388.5 Q151 412 124 438.5 Q97 465 74 488 Q51 511 36 526 Q21 541 21 542 Q52 573 81.5 567.5 Q111 562 136 537 L340 332 L343 329 L340 326 L136 121 Z " />
<glyph glyph-name="asciicircum" unicode="&#x5e;" horiz-adv-x="320" d="M145 652 Q171 633 180.5 617 Q190 601 190 588 L271 475 Q289 450 287.5 422.5 Q286 395 245 366 Q244 366 233.5 380 Q223 394 208 415 Q193 436 176 460 Q159 484 145 505 Q130 484 113 460 Q96 436 81 415 Q66 394 56 380 Q46 366 45 366 Q4 395 2.5 422.5 Q1 450 19 475 L100 589 Q101 602 110.5 618 Q120 634 145 652 Z " />
<glyph glyph-name="bar" unicode="&#x7c;" horiz-adv-x="224" d="M129 469 Q130 430 135.5 404.5 Q141 379 146 365 Q152 348 160 340 Q152 327 146 307 Q141 290 135.5 262.5 Q130 235 129 195 L129 -99 L50 -99 L50 195 Q48 235 43 262.5 Q38 290 33 307 Q27 327 19 340 Q27 349 33 366 Q38 380 43 405 Q48 430 50 469 L50 766 L129 766 L129 469 L129 469 Z " />
<glyph glyph-name="backslash" unicode="&#x5c;" horiz-adv-x="398" d="M34 673 Q54 677 65.5 670.5 Q77 664 81 657 Q83 665 92.5 672.5 Q102 680 128 681 Q142 681 150 678 Q158 675 163 670 Q168 665 170 658 Q152 658 148 646.5 Q144 635 147 621 L158 582 Q158 581 159 581 L203 443 Q212 414 222 397 Q232 380 240 372 Q250 362 258 359 Q254 348 253 333 Q251 320 252.5 301.5 Q254 283 260 258 L322 67 Q328 49 336 37 Q343 26 353.5 18.5 Q364 11 379 14 Q379 4 375 -6 Q371 -14 363.5 -22 Q356 -30 339 -34 Q320 -38 310.5 -30.5 Q301 -23 296 -16 Q294 -24 284.5 -31 Q275 -38 249 -39 Q235 -40 227.5 -36.5 Q220 -33 215 -28 Q210 -23 208 -16 Q228 -15 231 -2.5 Q234 10 230 25 L149 282 Q141 295 134.5 302.5 Q128 310 123 315 Q117 320 112 323 Q114 329 116 339 Q117 347 117 359.5 Q117 372 115 389 L53 584 Q51 590 46.5 599 Q42 608 35.5 616 Q29 624 20.5 628.5 Q12 633 2 631 Q1 641 5 650 Q8 658 14.5 664.5 Q21 671 34 673 Z " />
<glyph glyph-name="asciitilde" unicode="&#x7e;" horiz-adv-x="498" d="M68 241 Q50 256 50 283.5 Q50 311 67.5 337 Q85 363 118.5 382.5 Q152 402 201 402 Q233 402 258 394 Q283 386 304 375.5 Q325 365 343 354.5 Q361 344 379.5 340.5 Q398 337 418.5 342 Q439 347 465 367 Q467 352 464 338 Q462 326 455 312 Q448 298 433 286 Q405 264 373 260.5 Q341 257 309 264 Q277 271 246 283.5 Q215 296 190 305 Q173 311 152 311.5 Q131 312 112.5 304.5 Q94 297 81 281.5 Q68 266 68 241 Z " />
<glyph glyph-name="percent" unicode="&#x25;" horiz-adv-x="609" d="M478 642 Q490 637 495 629.5 Q500 622 502 614 Q504 605 502 595 Q493 599 484 595.5 Q475 592 467 585.5 Q459 579 453 571 Q447 563 444 557 L350 376 Q340 346 340 327 Q339 317 341 310 Q336 309 329 305 Q323 301 315 294 Q307 287 298 276 L174 37 Q168 23 168.5 10 Q169 -3 189 -7 Q186 -14 180 -18 Q175 -22 166.5 -24 Q158 -26 144 -23 Q118 -18 110 -9 Q102 0 102 8 Q97 2 85.5 -4 Q74 -10 57 -2 Q41 5 34 14.5 Q27 24 25 32 Q22 42 25 52 Q39 46 51 52 Q63 58 72 67 Q83 78 91 94 L184 272 Q194 295 198 313.5 Q202 332 204 345 Q206 360 204 371 Q213 372 224 380 Q233 387 245.5 402 Q258 417 272 444 L339 573 Q339 573 340 574 L358 610 Q363 624 361 635.5 Q359 647 342 650 Q345 657 351 661 Q356 665 364.5 666.5 Q373 668 387 666 Q413 661 420.5 651.5 Q428 642 429 634 Q434 640 446.5 644.5 Q459 649 478 642 Z M441 7 Q403 7 382 15.5 Q361 24 351 37.5 Q341 51 338.5 67.5 Q336 84 336 100 L336 177 Q336 192 338.5 208.5 Q341 225 351 238.5 Q361 252 382 260.5 Q403 269 441 269 L450 269 Q487 269 508 260.5 Q529 252 539 238.5 Q549 225 551.5 208.5 Q554 192 554 177 L554 100 Q554 84 551.5 67.5 Q549 51 539 37.5 Q529 24 508 15.5 Q487 7 450 7 L441 7 Z M104 391 Q66 391 45 399.5 Q24 408 14 421.5 Q4 435 1.5 451.5 Q-1 468 -1 484 L-1 561 Q-1 576 1.5 592.5 Q4 609 14 622.5 Q24 636 45 644.5 Q66 653 104 653 L113 653 Q150 653 171 644.5 Q192 636 202 622.5 Q212 609 214.5 592.5 Q217 576 217 561 L217 484 Q217 468 214.5 451.5 Q212 435 202 421.5 Q192 408 171 399.5 Q150 391 113 391 L104 391 Z M148 561 Q148 593 137 603.5 Q126 614 115 616 Q113 616 112.5 616.5 Q112 617 111 617 L106 617 Q104 617 103.5 616.5 Q103 616 102 616 Q92 614 81 604 Q70 594 68 564 L68 484 Q68 451 80 440 Q92 429 102 427 L115 427 Q124 428 136 439 Q148 450 148 480 L148 561 Z M485 177 Q485 209 474 219.5 Q463 230 452 232 Q450 232 449.5 232.5 Q449 233 448 233 L443 233 Q441 233 440.5 232.5 Q440 232 439 232 Q429 230 418 220 Q407 210 405 180 L405 100 Q405 67 417 56 Q429 45 439 43 L452 43 Q461 44 473 55 Q485 66 485 96 L485 177 Z " />
<glyph glyph-name="bracketleft" unicode="&#x5b;" horiz-adv-x="353" d="M195 -20 Q213 -20 228.5 -23 Q244 -26 255.5 -34.5 Q267 -43 273.5 -58.5 Q280 -74 280 -99 Q278 -100 254 -99.5 Q230 -99 201 -99 L124 -99 L52 -99 L52 178 Q52 223 47 253.5 Q42 284 36 304 Q29 327 21 340 Q29 348 35 365 Q40 379 45 404.5 Q50 430 52 469 L52 766 L127 766 L204 766 L283 766 Q283 741 276.5 725.5 Q270 710 258.5 701.5 Q247 693 231.5 690 Q216 687 198 687 L172 687 L172 486 Q172 441 176.5 413.5 Q181 386 187 369 Q194 350 203 340 Q194 327 187 304 Q181 284 176.5 253.5 Q172 223 172 178 L172 -20 L195 -20 Z " />
<glyph glyph-name="bracketright" unicode="&#x5d;" horiz-adv-x="322" d="M132 -20 L132 178 Q132 223 127 253.5 Q122 284 116 304 Q109 327 101 340 Q109 350 116 369 Q122 386 127 413.5 Q132 441 132 486 L132 687 L106 687 Q88 687 72.5 690 Q57 693 45.5 701.5 Q34 710 27.5 725.5 Q21 741 21 766 L100 766 L177 766 L252 766 L252 469 Q253 430 258.5 404.5 Q264 379 269 365 Q275 348 283 340 Q274 327 267 304 Q261 284 256.5 253.5 Q252 223 252 178 L252 -99 L180 -99 L103 -99 Q88 -99 74 -99 Q60 -99 49 -99 Q38 -99 31 -99 Q24 -99 24 -99 Q24 -74 30.5 -58.5 Q37 -43 48.5 -34.5 Q60 -26 75.5 -23 Q91 -20 109 -20 L132 -20 Z " />
<glyph glyph-name="braceleft" unicode="&#x7b;" horiz-adv-x="322" d="M0 299 Q11 312 30.5 320.5 Q50 329 73 329 Q87 348 89.5 376.5 Q92 405 89 438 Q86 471 81.5 506 Q77 541 77 574 Q77 629 95 664.5 Q113 700 142 717.5 Q171 735 208 735 Q245 735 283 720 Q245 720 224.5 693.5 Q204 667 194.5 625 Q185 583 183.5 532 Q182 481 182 432 Q182 382 170.5 350 Q159 318 142 299 Q159 280 170.5 248 Q182 216 182 166 Q182 117 183.5 66 Q185 15 194.5 -27 Q204 -69 224.5 -95.5 Q245 -122 283 -122 Q245 -137 208 -137 Q171 -137 142 -119.5 Q113 -102 95 -67 Q77 -32 77 24 Q77 57 81.5 92 Q86 127 89 160 Q92 193 89.5 221.5 Q87 250 73 269 Q50 268 30.5 276.5 Q11 285 0 299 Z " />
<glyph glyph-name="braceright" unicode="&#x7d;" horiz-adv-x="316" d="M283 299 Q272 285 252 276.5 Q232 268 209 269 Q195 250 193 221.5 Q191 193 194 160 Q197 127 201.5 92 Q206 57 206 24 Q206 -32 188 -67 Q170 -102 141 -119.5 Q112 -137 75 -137 Q38 -137 0 -122 Q38 -122 58.5 -95.5 Q79 -69 88.5 -27 Q98 15 99.5 66 Q101 117 101 166 Q101 216 112 248 Q123 280 141 299 Q123 318 112 350 Q101 382 101 432 Q101 481 99.5 532 Q98 583 88.5 625 Q79 667 58.5 693.5 Q38 720 0 720 Q38 735 75 735 Q112 735 141 717.5 Q170 700 188 664.5 Q206 629 206 574 Q206 541 201.5 506 Q197 471 194 438 Q191 405 193 376.5 Q195 348 209 329 Q232 329 252 320.5 Q272 312 283 299 Z " />
<glyph glyph-name="parenleft" unicode="&#x28;" horiz-adv-x="319" d="M235 -88 Q190 -115 154.5 -104 Q119 -93 92.5 -54 Q66 -15 48 46 Q30 107 21.5 179 Q13 251 13 328.5 Q13 406 22 478 Q31 550 48.5 610.5 Q66 671 93 709.5 Q120 748 155.5 758.5 Q191 769 235 741 Q192 702 163.5 636.5 Q135 571 121 492 Q107 413 107 327 Q107 241 121 162 Q135 83 163.5 17 Q192 -49 235 -88 Z " />
<glyph glyph-name="parenright" unicode="&#x29;" horiz-adv-x="214" d="M-34 -88 Q9 -49 37.5 17 Q66 83 80 162 Q94 241 94 327 Q94 413 80 492 Q66 571 37.5 636.5 Q9 702 -34 741 Q10 769 45.5 758.5 Q81 748 108 709.5 Q135 671 152.5 610.5 Q170 550 179 478 Q188 406 188 328.5 Q188 251 179.5 179 Q171 107 153 46 Q135 -15 108.5 -54 Q82 -93 46.5 -104 Q11 -115 -34 -88 Z " />
<glyph glyph-name="quotesingle" unicode="&#x27;" horiz-adv-x="153" d="M5 614 Q5 632 12.5 646 Q20 660 33 668 Q46 676 64 676 Q82 676 104 664 Q104 662 101.5 637 Q99 612 95 581 Q91 545 86 500 Q85 485 78.5 475.5 Q72 466 62.5 461 Q53 456 42.5 456 Q32 456 23 462 L5 614 Z " />
<glyph glyph-name="quotedbl" unicode="&#x22;" horiz-adv-x="293" d="M5 625 Q5 643 12.5 657 Q20 671 33 679 Q46 687 64 687 Q82 687 104 675 Q104 673 101.5 648 Q99 623 95 592 Q91 556 86 511 Q85 496 78.5 486.5 Q72 477 62.5 472 Q53 467 42.5 467 Q32 467 23 473 L5 625 Z M138 625 Q138 643 145.5 657 Q153 671 166 679 Q179 687 197 687 Q215 687 237 675 Q237 673 234.5 648 Q232 623 228 592 Q224 556 219 511 Q218 496 211.5 486.5 Q205 477 195.5 472 Q186 467 175.5 467 Q165 467 156 473 L138 625 Z " />
<glyph glyph-name="ampersand" unicode="&#x26;" horiz-adv-x="650" d="M626 16 Q626 16 626 8.5 Q626 1 623.5 -10 Q621 -21 615.5 -34 Q610 -47 598.5 -57 Q587 -67 569.5 -72 Q552 -77 526 -73 Q522 -80 515 -85 Q509 -90 499.5 -92.5 Q490 -95 477 -93 Q454 -88 415 -57 Q376 -26 330 22 Q295 -2 258 -17.5 Q221 -33 183 -37 Q117 -43 69 -9 Q55 1 39 8 Q25 14 9 18.5 Q-7 23 -22 22 Q-17 29 -12 40 Q-8 50 -4 66 Q0 82 2 108 Q1 116 0.5 124 Q0 132 0 141 Q0 201 30 247.5 Q60 294 104 329 Q74 384 55.5 433.5 Q37 483 37 521 Q37 553 46.5 582 Q56 611 77 632.5 Q98 654 130.5 666.5 Q163 679 209 679 L215 679 Q220 679 227 678 Q234 677 253 674 Q276 669 300.5 658 Q325 647 345 629.5 Q365 612 377.5 587.5 Q390 563 390 530 Q390 494 377.5 466 Q365 438 345 415 Q325 392 299.5 370.5 Q274 349 248 326 Q274 291 304 255.5 Q334 220 366 186 Q397 238 415 300 Q433 362 429 423 Q458 425 482 421 Q502 418 520 408.5 Q538 399 542 379 Q541 321 516 258 Q517 258 518 257.5 Q519 257 521 257 Q530 253 535.5 246.5 Q541 240 543 233 Q546 225 547 217 Q535 221 523 217 Q512 214 498.5 204 Q485 194 471 171 Q452 142 433 119 Q465 89 495.5 65 Q526 41 551.5 26.5 Q577 12 596 8.5 Q615 5 626 16 Z M213 609 Q204 609 192.5 604.5 Q181 600 171 589.5 Q161 579 154.5 562.5 Q148 546 148 522 Q148 500 162 467.5 Q176 435 199 397 Q222 411 250.5 432.5 Q279 454 295 481 Q292 480 287 480 Q276 480 269.5 484.5 Q263 489 259 494 Q255 500 253 509 Q277 511 285.5 527 Q294 543 289 561 Q284 579 265.5 594 Q247 609 217 609 L213 609 Z M142 75 Q171 49 206 53 Q241 57 276 83 Q247 118 218 156 Q189 194 163 233 Q148 213 137.5 192.5 Q127 172 123.5 151.5 Q120 131 124 112 Q128 93 142 75 Z " />
<glyph glyph-name="grave" unicode="&#x60;" horiz-adv-x="192" d="M21 592 Q4 623 15 642 Q26 661 64 673 Q65 672 78 650.5 Q91 629 107 603 Q125 572 148 534 Q162 508 151 491 Q140 474 119 475 L21 592 Z " />
<glyph glyph-name="at" unicode="&#x40;" horiz-adv-x="626" d="M504 132 Q531 94 524.5 66 Q518 38 490 20 Q462 2 419 -5.5 Q376 -13 331 -10 Q299 -8 266 0 Q233 8 201.5 20.5 Q170 33 141.5 50.5 Q113 68 91 90 Q40 141 19 204 Q-2 267 4.5 330.5 Q11 394 42.5 452 Q74 510 128 551 Q213 617 316 617 Q371 617 422 598.5 Q473 580 512 546 Q551 512 574 465.5 Q597 419 597 364 Q597 277 548 212 Q499 144 429 144 Q380 144 358 178 Q323 140 271 140 Q214 140 179 182 Q144 224 144 294 Q144 378 196 442 Q248 505 324 505 Q339 505 354 499.5 Q369 494 384 488.5 Q399 483 413.5 479 Q428 475 441 478 Q439 390 437 338 Q435 286 435 259 Q435 232 436.5 224 Q438 216 443 216 L449 216 Q451 216 450.5 216.5 Q450 217 452 217 L456 219 Q485 233 502 273 Q519 313 519 365 Q519 405 502.5 439 Q486 473 458.5 497.5 Q431 522 396 536 Q361 550 324 550 Q272 550 230.5 529 Q189 508 159.5 473 Q130 438 113.5 394 Q97 350 95.5 303.5 Q94 257 108.5 213 Q123 169 155 134 Q191 98 239 81 Q287 64 336 64.5 Q385 65 429.5 82.5 Q474 100 504 132 Z M344 306 Q348 348 347 375 Q346 402 342.5 417.5 Q339 433 332 439 Q325 445 317 445 Q285 445 266.5 400 Q248 355 248 284 Q248 244 257 222 Q266 200 283 200 Q307 200 323 227.5 Q339 255 344 306 Z " />
<glyph glyph-name="acute" unicode="&#xb4;" horiz-adv-x="198" d="M45 700 Q24 699 13 716 Q2 733 16 759 Q39 797 57 828 Q73 854 86 875.5 Q99 897 100 898 Q138 886 149 867 Q160 848 143 817 L45 700 Z " />
<glyph glyph-name="tilde" unicode="&#x2dc;" horiz-adv-x="362" d="M23 690 Q18 709 20.5 726 Q23 743 35 756 Q47 769 70 777 Q93 785 128 785 Q163 785 186 773.5 Q209 762 228.5 753 Q248 744 268.5 745.5 Q289 747 318 774 Q321 761 320 750 Q319 740 313.5 729 Q308 718 295 710 Q277 699 254 697 Q231 695 207 698.5 Q183 702 160.5 709.5 Q138 717 121 725 Q110 730 95 732.5 Q80 735 66 732 Q52 729 40 719 Q28 709 23 690 Z " />
<glyph glyph-name="caron" unicode="&#x2c7;" horiz-adv-x="238" d="M16 788 Q-1 812 6.5 828.5 Q14 845 45 859 L112 767 L179 859 Q210 845 217.5 828.5 Q225 812 208 788 L128 708 Q120 698 106 698 L16 788 Z " />
<glyph glyph-name="circumflex" unicode="&#x2c6;" horiz-adv-x="252" d="M208 769 Q225 745 217.5 728.5 Q210 712 179 698 Q178 698 170.5 708 Q163 718 152.5 732.5 Q142 747 131 762.5 Q120 778 112 789 L45 698 Q14 712 6.5 728.5 Q-1 745 16 769 L95 848 Q101 857 118 859 L208 769 Z " />
<glyph glyph-name="dieresis" unicode="&#xa8;" horiz-adv-x="293" d="M40 744 Q40 762 53 775 Q66 788 84 788 Q102 788 115 775 Q128 762 128 744 Q128 726 115 713 Q102 700 84 700 Q66 700 53 713 Q40 726 40 744 Z M167 744 Q167 762 180 775 Q193 788 211 788 Q229 788 242 775 Q255 762 255 744 Q255 726 242 713 Q229 700 211 700 Q193 700 180 713 Q167 726 167 744 Z " />
<glyph glyph-name="ring" unicode="&#x2da;" horiz-adv-x="242" d="M82 706 Q50 706 30.5 718.5 Q11 731 2 750 Q-7 769 -5.5 791.5 Q-4 814 7 833 Q18 852 37 864.5 Q56 877 82 877 Q108 877 127 864.5 Q146 852 156.5 833 Q167 814 168.5 791.5 Q170 769 161 750 Q152 731 132.5 718.5 Q113 706 82 706 Z M83 738 Q97 738 104 754.5 Q111 771 111 791.5 Q111 812 104 828.5 Q97 845 83 845 Q66 845 58 828.5 Q50 812 50.5 791.5 Q51 771 59 754.5 Q67 738 83 738 Z " />
<glyph glyph-name="aring" unicode="&#xe5;" horiz-adv-x="650" d="M470 99 Q470 80 476 66 Q481 54 494.5 44 Q508 34 534 34 Q530 24 521 17 Q513 10 501 5 Q489 0 470 0 Q437 0 422.5 9 Q408 18 403 25 Q399 19 385.5 9.5 Q372 0 337 0 Q318 0 306 5 Q294 10 286 17 Q277 24 273 34 Q299 34 312 44 Q325 54 331 66.5 Q337 79 337.5 89 Q338 99 338 99 L338 270 Q337 290 329 303.5 Q321 317 307 325 Q281 337 264.5 332.5 Q248 328 239 317 Q228 305 223 285 Q212 285 205 292 Q198 299 196 310 L196 99 Q196 80 202 66 Q207 54 220.5 44 Q234 34 260 34 Q256 24 247 17 Q239 10 227 5 Q215 0 196 0 Q164 0 149.5 9 Q135 18 130 24 Q125 18 111 9 Q97 0 64 0 Q45 0 33 5 Q21 10 13 17 Q4 24 0 34 Q20 34 32 40.5 Q44 47 51 56 Q58 65 60.5 74.5 Q63 84 64 90 L64 267 Q16 268 -6 284.5 Q-28 301 -37 321 Q-48 344 -45 374 Q-8 351 17 351 Q42 351 64 364 L64 492 Q64 572 112 621 Q160 670 251 672 Q268 672 290 668 Q312 664 335.5 659 Q359 654 383 650.5 Q407 647 428 649.5 Q449 652 465.5 661.5 Q482 671 491 693 Q505 666 509 641 Q512 620 505.5 599.5 Q499 579 470 569 L470 430 Q471 402 477 382.5 Q483 363 490.5 350 Q498 337 504.5 331 Q511 325 513 324 Q511 323 504.5 318 Q498 313 490.5 302 Q483 291 477 273 Q471 255 470 229 L470 99 Z M299 706 Q267 706 247.5 718.5 Q228 731 219 750 Q210 769 211.5 791.5 Q213 814 224 833 Q235 852 254 864.5 Q273 877 299 877 Q325 877 344 864.5 Q363 852 373.5 833 Q384 814 385.5 791.5 Q387 769 378 750 Q369 731 349.5 718.5 Q330 706 299 706 Z M338 499 Q338 518 343 537.5 Q348 557 356 574 Q335 580 315.5 586 Q296 592 279 595.5 Q262 599 247.5 598.5 Q233 598 223 590 Q220 571 225.5 561 Q231 551 239.5 548 Q248 545 256 546.5 Q264 548 265 551 Q265 540 262 531 Q260 523 253.5 517.5 Q247 512 235 512 Q221 512 212 517 Q203 522 198 528 Q197 520 196.5 511 Q196 502 196 492 L196 430 Q248 430 281.5 412.5 Q315 395 338 374 L338 499 Z M300 738 Q314 738 321 754.5 Q328 771 328 791.5 Q328 812 321 828.5 Q314 845 300 845 Q283 845 275 828.5 Q267 812 267.5 791.5 Q268 771 276 754.5 Q284 738 300 738 Z " />
<glyph glyph-name="cedilla" unicode="&#xb8;" horiz-adv-x="218" d="M59 13 Q64 37 75 42.5 Q86 48 112 37 Q112 37 111 28 Q110 19 108.5 7 Q107 -5 105 -18.5 Q103 -32 102 -42 Q134 -50 151.5 -77 Q169 -104 168 -134 Q167 -164 146.5 -187.5 Q126 -211 82 -211 Q69 -211 57 -208.5 Q45 -206 37 -199.5 Q29 -193 26.5 -182 Q24 -171 32 -154 Q36 -166 49.5 -172.5 Q63 -179 74 -179 Q92 -179 101.5 -164.5 Q111 -150 112.5 -132 Q114 -114 108.5 -97 Q103 -80 91 -74 Q84 -81 75.5 -81 Q67 -81 60 -74 L59 13 Z " />
<glyph glyph-name="Zcaron" unicode="&#x17d;" horiz-adv-x="619" d="M208 345 Q158 255 117 187 Q76 119 48 69 Q20 19 7 -15 Q-6 -49 0 -72 Q3 -53 18 -22 Q33 9 54 45.5 Q75 82 99.5 122 Q124 162 147 198.5 Q170 235 188 265 Q206 295 215 313 Q217 323 215.5 333.5 Q214 344 208 345 Z M614 803 Q605 785 580 776 Q555 767 520 763.5 Q485 760 443.5 761.5 Q402 763 360.5 765.5 Q319 768 280.5 771 Q242 774 214 774 Q161 773 124 748 Q121 763 112 767 Q103 771 93.5 770.5 Q84 770 76 766.5 Q68 763 68 763 Q85 757 86.5 727 Q88 697 84 659 Q84 620 104 597.5 Q124 575 148.5 568.5 Q173 562 195 571.5 Q217 581 222 605 Q193 613 182.5 635 Q172 657 180 680 Q185 697 199.5 709.5 Q214 722 242 728 Q295 732 334.5 727 Q374 722 398.5 710 Q423 698 431 679 Q439 660 428 638 L318 447 Q310 436 299.5 423 Q289 410 276 399 Q263 388 248 380.5 Q233 373 217 374 Q227 361 231 347 Q235 335 235 320 Q235 305 226 291 L227 292 L75 30 Q46 -10 37.5 -35 Q29 -60 30 -74 Q31 -88 37 -93 Q43 -98 43 -97 Q43 -86 53.5 -79.5 Q64 -73 79.5 -70 Q95 -67 113 -66 Q131 -65 146 -65 L535 -65 Q549 -66 562.5 -72 Q576 -78 581 -92 L598 -75 Q597 -74 595 -70.5 Q593 -67 588 -56 Q585 -47 582 -26 Q579 -5 579 34 Q579 92 583 130.5 Q587 169 592 192 Q598 219 606 235 Q574 238 548 227 Q525 218 503 195 Q481 172 471 124 Q461 130 448 129 Q437 127 431 122 Q425 117 422 112 Q418 106 418 98 Q425 98 431 96 Q436 94 442.5 90.5 Q449 87 454 80 Q466 61 463 47.5 Q460 34 448.5 25 Q437 16 418.5 11 Q400 6 381.5 3 Q363 0 347 -0.5 Q331 -1 323 -1 Q286 -1 261 3 Q236 7 217 13 L358 256 L358 254 Q373 287 388.5 302 Q404 317 418 322 Q434 327 449 324 Q443 344 444.5 364.5 Q446 385 451 402 Q456 419 462 432.5 Q468 446 471 452 Q523 542 552.5 592 Q582 642 596.5 667.5 Q611 693 615 701 Q619 709 621 713 Q635 743 635.5 761 Q636 779 631 788.5 Q626 798 620 800.5 Q614 803 614 803 Z M235 395 Q252 392 263 404 Q282 435 292.5 453.5 Q303 472 311.5 486 Q320 500 329 515.5 Q338 531 355 557 Q375 588 386 614 Q396 637 398 659.5 Q400 682 382 694 Q384 690 384 682 Q384 675 381 663 Q378 651 369 633 Q361 619 354.5 612 Q348 605 343 602 Q337 598 331 598 Q332 589 330 578 Q328 568 322.5 554 Q317 540 306 522 Q304 517 301 511.5 Q298 506 291 494 Q284 482 271 459 Q258 436 235 395 Z M264 898 Q247 922 254.5 938.5 Q262 955 293 969 L360 877 L427 969 Q458 955 465.5 938.5 Q473 922 456 898 L376 818 Q368 808 354 808 L264 898 Z " />
<glyph glyph-name="zcaron" unicode="&#x17e;" horiz-adv-x="547" d="M256 460 Q250 451 239.5 436 Q229 421 214.5 407.5 Q200 394 183.5 385 Q167 376 149 377 Q159 364 163 350 Q167 338 167 323 Q167 308 158 294 L160 295 L47 102 Q18 62 9.5 37 Q1 12 2 -2 Q3 -16 9 -21 Q15 -26 15 -25 Q15 -14 25.5 -7.5 Q36 -1 51.5 2 Q67 5 85 6 Q103 7 118 7 L432 7 Q446 5 459.5 -0.5 Q473 -6 478 -20 L495 -3 Q481 21 476.5 63 Q472 105 474.5 151 Q477 197 485 240 Q493 283 503 307 Q471 310 445 299 Q422 290 400 267 Q378 244 368 196 Q358 202 345 201 Q334 199 328 194 Q322 189 319 184 Q315 178 315 170 Q328 169 338 163 Q346 158 353 146.5 Q360 135 361 112 Q356 95 345 86.5 Q334 78 321.5 74.5 Q309 71 296.5 71 Q284 71 278 71 Q246 71 224.5 74 Q203 77 187 82 Q226 149 248 186.5 Q270 224 281 243 Q292 262 295.5 268.5 Q299 275 303 281 Q317 303 331 313 Q345 323 356 326 Q369 330 381 327 Q376 346 377 365.5 Q378 385 382 401.5 Q386 418 391.5 431 Q397 444 401 452 Q426 495 441 520.5 Q456 546 464.5 560.5 Q473 575 477 582 Q481 589 484 595 L483 595 Q496 623 496 640 Q496 657 490.5 665.5 Q485 674 479 676.5 Q473 679 473 679 Q473 656 448.5 650.5 Q424 645 387 645 L101 645 Q87 646 73 652 Q59 658 55 672 L37 655 Q38 654 40 651 Q42 648 47 637 Q50 629 53.5 608 Q57 587 57 545 Q57 512 55.5 493 Q54 474 52 464 Q50 454 48 451 Q46 448 45 448 Q47 448 62.5 449.5 Q78 451 96 458 Q114 465 128.5 479.5 Q143 494 143 520 Q143 545 151.5 557.5 Q160 570 172 575.5 Q184 581 196 581 Q208 581 215 581 L326 581 L256 460 Z M177 788 Q160 812 167.5 828.5 Q175 845 206 859 L273 767 L340 859 Q371 845 378.5 828.5 Q386 812 369 788 L289 708 Q281 698 267 698 L177 788 Z " />
<glyph glyph-name="Scaron" unicode="&#x160;" horiz-adv-x="529" d="M461 790 Q435 765 407.5 758 Q380 751 351.5 753 Q323 755 294.5 761 Q266 767 238 767 Q190 767 152 746.5 Q114 726 87.5 693 Q61 660 47 618 Q33 576 33 533 Q33 490 47.5 449.5 Q62 409 92 379 L91 379 Q101 368 108 356 Q114 345 119 330.5 Q124 316 122 299 Q135 305 151 308 Q165 310 181.5 307.5 Q198 305 218 292 Q245 274 273 253.5 Q301 233 324 209 Q347 185 361.5 156.5 Q376 128 376 92 Q376 67 363.5 48.5 Q351 30 331.5 18 Q312 6 288 -0.5 Q264 -7 241 -7 Q208 -7 188.5 5 Q169 17 159.5 36.5 Q150 56 147.5 81 Q145 106 146 132 Q147 166 152 185 Q157 204 162 213 Q168 224 176 226 L159 242 Q144 231 122 222 Q102 214 72.5 206.5 Q43 199 0 197 L0 164 L31 164 Q37 105 35 56 Q34 35 31.5 14 Q29 -7 24 -25.5 Q19 -44 10.5 -58 Q2 -72 -10 -78 Q13 -73 46 -69 Q75 -66 119 -65 Q163 -64 224 -68 Q263 -72 306 -68 Q349 -64 386.5 -49 Q424 -34 451.5 -6 Q479 22 488 67 Q494 78 501 84.5 Q508 91 513 94 Q519 98 526 98 Q525 106 521 111 Q518 116 512 119.5 Q506 123 496 124 Q497 175 475 227 Q453 279 407 319 Q399 332 394.5 344 Q390 356 388 366 Q385 377 386 387 Q366 379 351.5 377.5 Q337 376 326 378 Q314 380 305 385 L305 384 Q278 401 252.5 419.5 Q227 438 207 459.5 Q187 481 174.5 507 Q162 533 162 565 Q162 602 171 627.5 Q180 653 193 668.5 Q206 684 220 691 Q234 698 243 698 L244 698 Q288 696 312 670.5 Q336 645 336 606 Q336 581 333 565 Q330 549 326.5 540 Q323 531 320 527 Q317 523 316 523 Q317 523 331.5 523.5 Q346 524 362.5 528.5 Q379 533 392.5 542.5 Q406 552 406 570 Q406 577 410 578 Q414 579 418.5 581 Q423 583 427 591 Q431 599 431 619 Q431 639 431.5 659.5 Q432 680 436 699 Q440 718 448.5 735.5 Q457 753 473 768 L461 790 Z M132 928 Q115 952 122.5 968.5 Q130 985 161 999 L228 907 L295 999 Q326 985 333.5 968.5 Q341 952 324 928 L244 848 Q236 838 222 838 L132 928 Z M96 726 Q71 711 53 686 Q37 665 24 631 Q11 597 11 546 Q11 495 22.5 459.5 Q34 424 48 401 Q64 374 85 356 L96 327 Q96 321 79.5 334 Q63 347 43.5 376.5 Q24 406 8 449.5 Q-8 493 -8 549 Q-8 590 -15.5 604 Q-23 618 -32 620 Q-43 622 -55 611 Q-58 623 -55 634 Q-53 642 -46.5 649.5 Q-40 657 -24 657 Q-12 657 -6 652 Q0 647 2 642 Q5 635 4 627 Q16 666 31.5 686.5 Q47 707 60.5 716 Q74 725 84 725.5 Q94 726 96 726 Z M143 287 Q147 288 152 289 Q157 290 163 290.5 Q169 291 177 291 Q183 291 204 279.5 Q225 268 250.5 248.5 Q276 229 300.5 203.5 Q325 178 339 149.5 Q353 121 351 91.5 Q349 62 322 35 Q343 77 331 118.5 Q319 160 289 195 Q259 230 219 254.5 Q179 279 143 287 Z " />
<glyph glyph-name="A.salt" unicode="&#xe002;" horiz-adv-x="621" d="M196 30 Q196 30 196.5 20 Q197 10 203 -2.5 Q209 -15 222 -25 Q235 -35 261 -35 Q257 -45 248 -52 Q240 -59 228 -64 Q216 -69 197 -69 Q162 -69 148.5 -59.5 Q135 -50 131 -44 Q126 -50 111.5 -59.5 Q97 -69 64 -69 Q45 -69 33 -64 Q21 -59 13 -52 Q4 -45 0 -35 Q21 -35 33 -28.5 Q45 -22 52 -13 Q59 -4 61.5 5.5 Q64 15 64 21 L64 223 Q64 253 57.5 272 Q51 291 43.5 302.5 Q36 314 29.5 319 Q23 324 22 324 Q23 325 29.5 331.5 Q36 338 43.5 350.5 Q51 363 57 382.5 Q63 402 64 430 L64 658 L64 661 Q64 662 66 668 Q36 677 29 699 Q22 721 25 743.5 Q28 766 35.5 783 Q43 800 43 800 Q48 770 69 758 Q90 746 121 744.5 Q152 743 189.5 747 Q227 751 266 754 Q305 757 341.5 754 Q378 751 406.5 735 Q435 719 452.5 685 Q470 651 470 592 L470 373 Q484 364 498 357.5 Q512 351 527 349.5 Q542 348 558 354 Q574 360 594 375 Q593 346 581 322 Q570 302 545 285 Q520 268 470 267 L470 19 Q471 -6 478.5 -29.5 Q486 -53 500.5 -71.5 Q515 -90 537 -101 Q559 -112 589 -112 Q585 -122 576 -129 Q568 -135 556 -140 Q544 -145 525 -145 Q495 -145 473.5 -132.5 Q452 -120 437.5 -103 Q423 -86 415 -69.5 Q407 -53 404 -45 Q399 -52 384 -60.5 Q369 -69 338 -69 Q319 -69 307 -64 Q295 -59 287 -52 Q278 -45 274 -35 Q295 -35 307 -28.5 Q319 -22 326 -13 Q333 -4 335.5 5.5 Q338 15 338 21 L338 310 Q333 285 311 285 Q306 305 295 317 Q286 328 269.5 332.5 Q253 337 227 325 Q213 317 205 303.5 Q197 290 196 270 L196 30 Z M303 607 Q288 607 279.5 613 Q271 619 268 626.5 Q265 634 265.5 641.5 Q266 649 269 652 Q269 648 277.5 646.5 Q286 645 295 648 Q304 651 309.5 660.5 Q315 670 308 689 Q296 698 280 698.5 Q264 699 245.5 695.5 Q227 692 206.5 686 Q186 680 165 674 L214 653 Q210 652 207 643 Q204 634 201.5 622.5 Q199 611 197.5 599.5 Q196 588 196 581 L196 374 Q219 395 252.5 412.5 Q286 430 338 430 Q338 495 338 532 Q338 569 338 587.5 Q338 606 337.5 612.5 Q337 619 337 622 Q332 616 324 611.5 Q316 607 303 607 Z M494 374 Q493 443 493 504 Q493 565 491 619 Q490 645 497 665 Q503 682 517 697 Q531 712 560 712 Q551 706 544 698 Q538 691 533 680.5 Q528 670 528 656 Q528 630 534 620 Q540 610 542 609 Q539 607 529 594 Q519 581 519 546 Q518 536 518 494.5 Q518 453 518 367 Q514 365 505 368.5 Q496 372 494 374 Z M515 71 Q515 41 519 14 Q523 -9 532.5 -32.5 Q542 -56 562 -69 Q543 -69 528 -54 Q515 -41 504.5 -13 Q494 15 494 69 Q492 120 493 165 Q494 210 494 257 Q504 254 518 261 L515 71 Z " />
<glyph glyph-name="H.salt" unicode="&#xe003;" horiz-adv-x="648" d="M65 227 Q64 255 57.5 275 Q51 295 43.5 307.5 Q36 320 30 326 Q24 332 23 333 Q24 334 30.5 338.5 Q37 343 44.5 354 Q52 365 58 383 Q64 401 65 428 L65 669 Q65 672 61 688 Q57 704 47.5 722 Q38 740 22 754 Q6 768 -19 768 Q-15 777 -6 784 Q2 790 14 795.5 Q26 801 45 801 Q63 801 78 794 Q93 787 103.5 777.5 Q114 768 121 758 Q128 748 131 743 Q136 750 150.5 759 Q165 768 197 768 Q216 768 232.5 762.5 Q249 757 263 751 Q278 744 292 735 Q267 735 249 725 Q231 715 220 703 Q209 691 203.5 680.5 Q198 670 197 669 L197 361 Q225 386 266.5 408 Q308 430 361 430 Q366 430 370.5 429.5 Q375 429 379 429 L379 669 Q379 687 373 702 Q368 714 354.5 724.5 Q341 735 315 735 Q319 744 328 751 Q336 757 348 762.5 Q360 768 379 768 Q413 768 427 759 Q441 750 445 743 Q450 750 464.5 759 Q479 768 511 768 Q530 768 542 762.5 Q554 757 562 751 Q571 744 575 735 Q554 735 541.5 728.5 Q529 722 522.5 712.5 Q516 703 513.5 693 Q511 683 511 677 L511 367 Q537 352 563 349.5 Q589 347 625 375 Q627 347 616 324 Q607 304 583 286.5 Q559 269 511 267 L511 30 Q511 3 517.5 -22.5 Q524 -48 538 -68 Q552 -88 575 -100.5 Q598 -113 630 -113 Q626 -123 617 -130 Q609 -136 597 -141 Q585 -146 566 -146 Q536 -146 514.5 -133 Q493 -120 478.5 -103 Q464 -86 456 -69.5 Q448 -53 445 -45 Q440 -52 425 -60.5 Q410 -69 379 -69 Q360 -69 348 -64 Q336 -59 328 -53 Q319 -46 315 -36 Q341 -36 354.5 -26 Q368 -16 373 -3 Q379 11 379 30 Q378 53 369 61 Q360 69 349 70 Q336 71 320 65 Q319 77 323 88 Q326 97 334.5 104.5 Q343 112 360 112 Q371 112 379 107 L379 319 L369 324 Q371 309 363.5 297 Q356 285 342 285 Q333 299 321 310 Q310 319 295 326.5 Q280 334 261 333 Q236 327 217.5 312.5 Q199 298 197 274 L197 21 Q198 14 200.5 4.5 Q203 -5 210 -14 Q217 -23 229 -29.5 Q241 -36 261 -36 Q257 -46 248 -53 Q240 -59 228 -64 Q216 -69 197 -69 Q164 -69 150 -60 Q136 -51 131 -44 Q126 -51 111.5 -60 Q97 -69 65 -69 Q46 -69 34 -64 Q22 -59 14 -53 Q5 -46 1 -36 Q22 -36 34 -29.5 Q46 -23 53 -14 Q60 -5 62.5 5 Q65 15 65 21 L65 227 Z M530 371 Q529 440 529 501 Q529 562 527 616 Q526 642 533 662 Q539 679 553 694 Q567 709 596 709 Q587 703 580 695 Q574 688 569 677.5 Q564 667 564 653 Q564 627 570 617 Q576 607 578 606 Q575 604 565 591 Q555 578 555 543 Q554 533 554 491.5 Q554 450 554 364 Q550 362 541 365.5 Q532 369 530 371 Z M598 -72 Q579 -72 564 -57 Q551 -44 540.5 -16 Q530 12 530 66 Q528 117 529 162 Q530 207 530 254 Q540 251 554 258 L551 68 Q551 38 555 11 Q559 -12 568.5 -35.5 Q578 -59 598 -72 Z " />
<glyph glyph-name="I.salt" unicode="&#xe004;" horiz-adv-x="334" d="M63 669 Q58 696 47 718 Q38 737 21.5 752.5 Q5 768 -21 768 Q-17 777 -8 784 Q0 790 12 795.5 Q24 801 43 801 Q61 801 76 794 Q91 787 101.5 777.5 Q112 768 119 758 Q126 748 129 743 Q134 750 148.5 759 Q163 768 195 768 Q214 768 226 762.5 Q238 757 246 751 Q255 744 259 735 Q233 735 219.5 724.5 Q206 714 201 702 Q195 687 195 669 L195 428 Q196 400 202.5 382 Q209 364 216.5 353 Q224 342 230.5 337.5 Q237 333 238 333 Q236 332 229.5 325.5 Q223 319 215 305.5 Q207 292 201 271 Q195 250 195 221 L195 19 Q196 -6 203.5 -30 Q211 -54 225.5 -72.5 Q240 -91 262 -102 Q284 -113 314 -113 Q310 -123 301 -130 Q293 -136 281 -141 Q269 -146 250 -146 Q220 -146 198.5 -133 Q177 -120 162.5 -103 Q148 -86 140 -69.5 Q132 -53 129 -45 Q124 -52 109 -60.5 Q94 -69 63 -69 Q44 -69 32 -64 Q20 -59 12 -53 Q3 -46 -1 -36 Q25 -36 38 -25.5 Q51 -15 56.5 -2.5 Q62 10 62.5 20.5 Q63 31 63 32 Q61 53 52 61 Q43 69 32 70 Q20 71 4 65 Q3 77 7 88 Q10 97 18.5 104.5 Q27 112 44 112 Q55 112 63 107 L63 221 Q63 251 56.5 272 Q50 293 42.5 306.5 Q35 320 28.5 326 Q22 332 21 333 Q22 334 28.5 338.5 Q35 343 42.5 354 Q50 365 56 383 Q62 401 63 428 L63 669 Z M219 383 Q218 452 218 508.5 Q218 565 216 619 Q215 645 222 665 Q228 682 242 697 Q256 712 285 712 Q276 706 269 698 Q263 691 258 680.5 Q253 670 253 656 Q253 630 259 620 Q265 610 267 609 Q264 607 254 594 Q244 581 244 546 Q243 536 243 488 Q243 440 243 354 Q234 359 228.5 367 Q223 375 219 383 Z M240 71 Q240 41 244 14 Q248 -9 257.5 -32.5 Q267 -56 287 -69 Q268 -69 253 -54 Q240 -41 229.5 -13 Q219 15 219 69 Q217 120 218 178.5 Q219 237 219 284 Q229 302 243 309 L240 71 Z " />
<glyph glyph-name="M.salt" unicode="&#xe005;" horiz-adv-x="742" d="M42 221 Q42 251 35.5 272 Q29 293 21.5 306.5 Q14 320 7.5 326 Q1 332 0 333 Q1 334 7.5 338.5 Q14 343 21.5 354 Q29 365 35 383 Q41 401 42 428 L42 669 Q37 696 26 718 Q17 737 0.5 752.5 Q-16 768 -42 768 Q-38 777 -29 784 Q-21 790 -9 795.5 Q3 801 22 801 Q40 801 55 794 Q70 787 80.5 777.5 Q91 768 98 758 Q105 748 108 743 Q113 750 127.5 759 Q142 768 174 768 Q193 768 205 762.5 Q217 757 225 751 Q234 744 238 735 Q212 735 199 725 Q186 715 181 702 Q187 684 200 650 Q213 616 229 575.5 Q245 535 262.5 494 Q280 453 295 421 L443 704 Q437 716 424 725.5 Q411 735 386 735 Q390 744 399 751 Q407 757 419 762.5 Q431 768 450 768 Q484 768 498 759 Q512 750 516 743 Q521 750 535.5 759 Q550 768 582 768 Q601 768 613 762.5 Q625 757 633 751 Q642 744 646 735 Q625 735 612.5 728.5 Q600 722 593.5 712.5 Q587 703 584.5 693 Q582 683 582 677 L582 428 Q583 400 589.5 382 Q596 364 603.5 353 Q611 342 617.5 337.5 Q624 333 625 333 Q623 332 616.5 325.5 Q610 319 602.5 306 Q595 293 589 273.5 Q583 254 582 227 L582 30 Q582 3 588.5 -22.5 Q595 -48 609 -68 Q623 -88 646 -100.5 Q669 -113 701 -113 Q697 -123 688 -130 Q680 -136 668 -141 Q656 -146 637 -146 Q607 -146 585.5 -133 Q564 -120 549.5 -103 Q535 -86 527 -69.5 Q519 -53 516 -45 Q511 -52 496 -60.5 Q481 -69 450 -69 Q431 -69 419 -64 Q407 -59 399 -53 Q390 -46 386 -36 Q412 -36 425.5 -26 Q439 -16 444 -3 Q450 11 450 30 L450 32 Q448 53 439 61 Q430 69 419 70 Q407 71 391 65 Q390 77 394 88 Q397 97 405.5 104.5 Q414 112 431 112 Q442 112 450 107 L450 491 L271 184 Q264 175 253.5 172.5 Q243 170 233 175 Q250 189 251 211 Q252 233 249 254 L174 421 L174 82 Q176 82 178.5 82.5 Q181 83 183 83 Q193 83 199.5 79 Q206 75 209 70 Q213 64 214 57 Q189 54 180.5 39.5 Q172 25 176.5 8.5 Q181 -8 197.5 -21.5 Q214 -35 238 -36 Q234 -46 225 -53 Q217 -59 205 -64 Q193 -69 174 -69 Q141 -69 127 -60 Q113 -51 108 -44 Q103 -51 88.5 -60 Q74 -69 42 -69 Q23 -69 11 -64 Q-1 -59 -9 -53 Q-18 -46 -22 -36 Q4 -36 17.5 -26 Q31 -16 36 -3 Q42 11 42 30 L42 221 Z M606 383 Q605 452 605 508.5 Q605 565 603 619 Q602 645 609 665 Q615 682 629 697 Q643 712 672 712 Q663 706 656 698 Q650 691 645 680.5 Q640 670 640 656 Q640 630 646 620 Q652 610 654 609 Q651 607 641 594 Q631 581 631 546 Q630 536 630 488 Q630 440 630 354 Q621 359 615.5 367 Q610 375 606 383 Z M606 69 Q604 120 605 178.5 Q606 237 606 284 Q616 302 630 309 L627 71 Q627 41 631 14 Q635 -9 644.5 -32.5 Q654 -56 674 -69 Q655 -69 640 -54 Q627 -41 616.5 -13 Q606 15 606 69 Z " />
<glyph glyph-name="N.salt" unicode="&#xe006;" horiz-adv-x="658" d="M495 0 Q506 -18 520 -27.5 Q534 -37 548.5 -38.5 Q563 -40 575.5 -33.5 Q588 -27 596 -15 Q596 -37 586 -55 Q578 -70 557.5 -82.5 Q537 -95 498 -95 Q478 -95 458.5 -88.5 Q439 -82 418.5 -62.5 Q398 -43 374.5 -9 Q351 25 321.5 79.5 Q292 134 256 212.5 Q220 291 175 398 L175 107 Q183 112 194 112 Q211 112 218.5 104.5 Q226 97 230 88 Q234 77 234 65 Q216 74 203.5 70.5 Q191 67 183.5 56.5 Q176 46 175.5 31 Q175 16 181.5 1.5 Q188 -13 202 -23.5 Q216 -34 239 -36 Q235 -46 226 -53 Q218 -59 206 -64 Q194 -69 175 -69 Q144 -69 129 -60.5 Q114 -52 109 -45 Q106 -53 98 -69.5 Q90 -86 75.5 -103 Q61 -120 39.5 -133 Q18 -146 -12 -146 Q-31 -146 -43 -141 Q-55 -136 -63 -130 Q-72 -123 -76 -113 Q-46 -113 -24 -102 Q-2 -91 12.5 -72.5 Q27 -54 34.5 -30 Q42 -6 43 19 L43 227 Q42 254 36 273.5 Q30 293 22.5 306 Q15 319 8 325.5 Q1 332 0 333 Q1 333 7.5 338 Q14 343 22 354.5 Q30 366 36.5 385 Q43 404 43 434 L43 669 Q42 696 32 718 Q24 737 7 752.5 Q-10 768 -41 768 Q-37 777 -28 784 Q-20 790 -8 795.5 Q4 801 23 801 Q41 801 55 794.5 Q69 788 79.5 778.5 Q90 769 97.5 759.5 Q105 750 108 744 Q112 750 126 759.5 Q140 769 175 769 Q194 769 206 763.5 Q218 758 226 752 Q235 745 239 736 Q204 736 191 718.5 Q178 701 176 686 Q187 660 207 614.5 Q227 569 252 512.5 Q277 456 305.5 393.5 Q334 331 363 271 L363 678 Q363 684 360.5 694 Q358 704 351 713.5 Q344 723 332 729.5 Q320 736 299 736 Q303 745 312 752 Q320 758 332 763.5 Q344 769 363 769 Q395 769 409.5 760 Q424 751 429 744 Q433 751 447 760 Q461 769 495 769 Q514 769 526 763.5 Q538 758 546 752 Q555 745 559 736 Q539 736 526.5 729.5 Q514 723 507 714 Q500 705 497.5 695 Q495 685 495 678 L495 428 Q496 401 502 383 Q508 365 515.5 354 Q523 343 529 338.5 Q535 334 537 333 Q536 332 529.5 326 Q523 320 515.5 306.5 Q508 293 501.5 272 Q495 251 495 221 L495 0 Z M519 383 Q518 452 518 508.5 Q518 565 516 619 Q515 645 522 665 Q528 682 542 697 Q556 712 585 712 Q576 706 569 698 Q563 691 558 680.5 Q553 670 553 656 Q553 628 559.5 619 Q566 610 567 609 Q567 609 563 606 Q559 603 555 596 Q551 589 547.5 577 Q544 565 544 546 Q543 536 543 488 Q543 440 543 354 Q534 359 528.5 367 Q523 375 519 383 Z M540 118 Q539 81 543 54 Q547 31 556.5 13.5 Q566 -4 587 3 Q568 -7 553 -2 Q540 3 529.5 24.5 Q519 46 519 100 Q517 151 518 194 Q519 237 519 284 Q529 302 543 309 L540 118 Z " />
<glyph glyph-name="O.salt" unicode="&#xe007;" horiz-adv-x="605" d="M42 226 Q41 254 34.5 274 Q28 294 20.5 306.5 Q13 319 7 325 Q1 331 0 332 Q1 333 7.5 337.5 Q14 342 21.5 353 Q29 364 35 382 Q41 400 42 427 L42 610 Q44 642 40 660.5 Q36 679 31 687 Q25 697 16 698 Q67 744 133 761.5 Q199 779 262 779 Q366 779 419.5 741.5 Q473 704 477 610 L477 433 Q477 403 483.5 384 Q490 365 498 353.5 Q506 342 512.5 337 Q519 332 520 332 Q518 331 511.5 324.5 Q505 318 497.5 305 Q490 292 484 272.5 Q478 253 477 226 L477 92 Q475 45 461 12.5 Q447 -20 420 -40 Q393 -60 353.5 -68.5 Q314 -77 262 -77 Q213 -77 173 -69.5 Q133 -62 104 -42 Q90 -35 65 -26.5 Q40 -18 17 -19 Q24 -11 29 4 Q34 17 38 38.5 Q42 60 42 94 L42 226 Z M335 48 Q333 60 326 67.5 Q319 75 311 79 Q302 83 291 85 Q293 93 297 99 Q301 104 307.5 109 Q314 114 325 114 Q336 114 344 108 L344 243 Q341 266 334.5 282.5 Q328 299 321 310 Q314 321 308.5 326 Q303 331 302 332 Q303 333 309 337 Q315 341 322 350 Q329 359 335.5 373.5 Q342 388 344 410 L344 603 Q344 638 331.5 662 Q319 686 300 698 Q281 710 259.5 710.5 Q238 711 219 699 Q200 687 187.5 663 Q175 639 175 603 L175 151 Q185 156 198 156 Q212 156 220 150.5 Q228 145 233 138 Q238 130 241 120 Q224 118 211 112 Q200 107 190 97 Q180 87 178 70 Q184 33 205 14 Q226 -5 251 -7.5 Q276 -10 299.5 4 Q323 18 335 48 Z M498 383 Q497 452 497 508.5 Q497 565 495 619 Q494 645 501 665 Q507 682 521 697 Q535 712 564 712 Q555 706 548 698 Q542 691 537 680.5 Q532 670 532 656 Q532 630 538 620 Q544 610 546 609 Q543 607 533 594 Q523 581 523 546 Q522 536 522 488 Q522 440 522 354 Q513 359 507.5 367 Q502 375 498 383 Z M498 69 Q496 120 497 174 Q498 228 498 275 Q503 285 509.5 295.5 Q516 306 522 309 L519 71 Q518 34 507 4 Q498 -22 479.5 -43 Q461 -64 427 -64 Q429 -63 440.5 -56.5 Q452 -50 464.5 -35 Q477 -20 487.5 5 Q498 30 498 69 Z " />
<glyph glyph-name="T.salt" unicode="&#xe008;" horiz-adv-x="653" d="M249 713 Q225 721 197.5 719 Q170 717 147 703 Q142 699 137.5 695 Q133 691 129 686 Q130 669 136 656 Q141 645 152 635.5 Q163 626 184 626 Q177 614 166 607 Q157 601 144.5 598 Q132 595 115 603 L115 602 Q115 564 97 549 Q79 534 57 531 Q31 527 0 535 Q3 545 6 563 Q8 579 10.5 604.5 Q13 630 13 669 Q13 711 10 731 Q7 751 4 759 Q1 765 -0.5 769 Q-2 773 -4 775 L-6 778 L11 795 Q16 780 29.5 774.5 Q43 769 57 768 L255 768 Q277 768 290.5 763 Q304 758 313 750 Q322 758 336 763 Q350 768 371 768 L569 768 Q583 769 597 775 Q611 781 615 795 L632 778 Q631 777 629 774 Q627 771 623 760 Q620 751 616.5 730.5 Q613 710 613 669 Q613 630 615 604.5 Q617 579 619 563 Q622 545 626 535 Q594 527 568 531 Q546 534 528.5 549 Q511 564 511 602 L511 603 Q494 595 481.5 598 Q469 601 460 607 Q449 614 442 626 Q462 626 473.5 635.5 Q485 645 490 656 Q496 669 497 686 Q494 691 489 695 Q484 699 479 703 Q456 716 430.5 718.5 Q405 721 381 715 L381 434 Q381 404 387.5 385 Q394 366 402 354.5 Q410 343 416.5 338 Q423 333 424 333 Q422 332 415.5 325.5 Q409 319 401.5 306 Q394 293 388 273.5 Q382 254 381 227 L381 19 Q382 -6 389.5 -30 Q397 -54 411.5 -72.5 Q426 -91 448 -102 Q470 -113 500 -113 Q496 -123 487 -130 Q479 -136 467 -141 Q455 -146 436 -146 Q406 -146 384.5 -133 Q363 -120 348.5 -103 Q334 -86 326 -69.5 Q318 -53 315 -45 Q310 -52 295 -60.5 Q280 -69 249 -69 Q230 -69 218 -64 Q206 -59 198 -53 Q189 -46 185 -36 Q211 -36 224.5 -26 Q238 -16 243 -3 Q249 11 249 30 L249 32 Q247 53 238 61 Q229 69 218 70 Q206 71 190 65 Q189 77 193 88 Q196 97 204.5 104.5 Q213 112 230 112 Q241 112 249 107 L249 221 Q249 251 242.5 272 Q236 293 228.5 306.5 Q221 320 214.5 326 Q208 332 207 333 Q208 334 214.5 338.5 Q221 343 228.5 354 Q236 365 242 383 Q248 401 249 428 L249 713 Z M403 383 Q402 452 402 508.5 Q402 565 400 619 Q399 639 403 655 Q407 669 417 680 Q427 691 449 692 Q448 691 444.5 687.5 Q441 684 437 677 Q433 670 430 658.5 Q427 647 427 630 Q427 616 430.5 606 Q434 596 438 589.5 Q442 583 446 580 Q450 577 451 576 Q448 574 438 561 Q428 548 428 513 Q428 508 427.5 498.5 Q427 489 427 471 Q427 453 427 425 Q427 397 427 354 Q418 359 412.5 367 Q407 375 403 383 Z M424 71 Q424 41 428 14 Q432 -9 441.5 -32.5 Q451 -56 471 -69 Q452 -69 437 -54 Q424 -41 413.5 -13 Q403 15 403 69 Q401 120 402 178.5 Q403 237 403 284 Q413 302 427 309 L424 71 Z " />
<glyph glyph-name="U.salt" unicode="&#xe009;" horiz-adv-x="590" d="M483 394 Q482 462 481.5 513.5 Q481 565 480 619 Q479 645 486 665 Q492 682 506 697 Q520 712 549 712 Q540 706 533 698 Q527 691 522 680.5 Q517 670 517 656 Q517 628 523.5 619 Q530 610 531 609 Q531 609 527 606 Q523 603 519 596 Q515 589 511.5 577 Q508 565 508 546 Q507 536 507 488 Q507 440 507 354 Q498 359 490.5 371 Q483 383 483 394 Z M504 100 Q503 66 505 37 Q507 12 511 -11.5 Q515 -35 524 -44 Q512 -43 503 -27 Q495 -13 489 15.5 Q483 44 483 98 Q482 123 482 144.5 Q482 166 482 186.5 Q482 207 482.5 227.5 Q483 248 483 271 Q483 282 492 294 Q501 306 507 309 L504 100 Z M459 428 Q460 401 466 383 Q472 365 479.5 354 Q487 343 493 338.5 Q499 334 501 333 Q500 332 493.5 326 Q487 320 479.5 306.5 Q472 293 465.5 272 Q459 251 459 221 L459 78 Q459 33 462.5 5 Q466 -23 471 -38 Q476 -56 484 -64 Q470 -56 454 -53.5 Q438 -51 423 -51.5 Q408 -52 395.5 -54.5 Q383 -57 376 -59 Q353 -69 323 -74.5 Q293 -80 251 -80 Q177 -80 135 -63.5 Q93 -47 72.5 -21.5 Q52 4 47 35.5 Q42 67 42 96 L42 227 Q41 254 35 273.5 Q29 293 21.5 306 Q14 319 7.5 325.5 Q1 332 0 333 Q0 333 6.5 337.5 Q13 342 20.5 353 Q28 364 34.5 382 Q41 400 42 428 L42 673 Q42 679 39 695 Q36 711 27 727 Q18 743 1.5 755.5 Q-15 768 -42 768 Q-38 777 -29 784 Q-21 790 -9 795.5 Q3 801 22 801 Q40 801 54.5 794 Q69 787 80 777.5 Q91 768 98 758 Q105 748 108 743 Q112 749 126 758.5 Q140 768 175 768 Q194 768 206 762.5 Q218 757 226 751 Q235 743 239 734 Q219 734 206.5 727.5 Q194 721 187 712 Q180 703 177.5 693.5 Q175 684 175 677 L175 174 Q184 180 199 180 Q213 180 221 174.5 Q229 169 234 162 Q239 154 242 144 Q225 143 211 138 Q199 133 188 122 Q177 111 175 90 Q176 55 188 32.5 Q200 10 217.5 -0.5 Q235 -11 254.5 -9.5 Q274 -8 291 5 Q295 24 291 33 Q287 42 280 44.5 Q273 47 266 44.5 Q259 42 258 38 Q258 39 258 45.5 Q258 52 261 58.5 Q264 65 270 70.5 Q276 76 288 76 Q301 76 309.5 70.5 Q318 65 323 59 Q324 63 324.5 69.5 Q325 76 325.5 92 Q326 108 326.5 138.5 Q327 169 327 221 Q327 250 321 271 Q315 292 307 305.5 Q299 319 292 325.5 Q285 332 284 333 Q285 333 291.5 337.5 Q298 342 305.5 353 Q313 364 319.5 382 Q326 400 327 428 L327 677 Q327 683 324.5 693 Q322 703 315 712 Q308 721 296 727.5 Q284 734 263 734 Q267 743 276 751 Q284 757 296 762.5 Q308 768 327 768 Q359 768 373.5 759 Q388 750 393 743 Q397 750 411 759 Q425 768 459 768 Q478 768 490 762.5 Q502 757 510 751 Q519 743 523 734 Q497 734 483.5 723.5 Q470 713 465 701 Q459 687 459 669 L459 428 Z " />
<glyph glyph-name="V.salt" unicode="&#xe00a;" horiz-adv-x="600" d="M-29 798 Q-11 798 3.5 791 Q18 784 28.5 775 Q39 766 46.5 756.5 Q54 747 57 741 Q62 747 76.5 757 Q91 767 125 767 Q144 767 156 761.5 Q168 756 176 750 Q185 743 189 734 Q163 734 150.5 727 Q138 720 133.5 711 Q129 702 129.5 694.5 Q130 687 130 687 L200 141 Q212 151 229 151 Q243 151 251 145 Q259 139 264 132 Q269 124 272 114 Q242 112 228 93 Q214 74 211.5 51 Q209 28 217 7.5 Q225 -13 238 -19 Q255 -21 262 -10 Q269 1 272 14 Q274 22 275 30 Q276 38 278 55 L358 686 Q358 686 358.5 693.5 Q359 701 354.5 710 Q350 719 338 726 Q326 733 300 733 Q304 742 313 749 Q321 755 333 760.5 Q345 766 364 766 Q398 766 412 757 Q426 748 430 741 Q451 755 480.5 765.5 Q510 776 550 776 Q582 776 608.5 764.5 Q635 753 654 735.5 Q673 718 683.5 696.5 Q694 675 694 654 Q694 615 674 592.5 Q654 570 629.5 563.5 Q605 557 582.5 566.5 Q560 576 556 600 Q585 610 594 628.5 Q603 647 599 666.5 Q595 686 581 701 Q567 716 550 719 Q533 722 515.5 707.5 Q498 693 487 653 L461 456 Q461 453 460 452 L460 451 Q456 421 458.5 399 Q461 377 465 362 Q469 347 473.5 339.5 Q478 332 478 331 Q478 331 474.5 328 Q471 325 465 316 Q459 307 451 290.5 Q443 274 434 246 L408 41 Q407 28 407 14 Q407 0 409 -13 Q411 -26 417 -37.5 Q423 -49 435 -56 Q417 -52 400 -50 Q386 -48 369.5 -50 Q353 -52 341 -59 L342 -58 Q316 -72 289 -77 Q262 -82 247 -82 L242 -82 Q223 -81 195.5 -75.5 Q168 -70 142 -55 Q129 -50 114 -49.5 Q99 -49 85 -51 Q69 -53 53 -56 Q65 -49 71.5 -36.5 Q78 -24 80.5 -11 Q83 2 83 13 Q83 24 83 29 Q83 30 82 34.5 Q81 39 78.5 59.5 Q76 80 70.5 122 Q65 164 55 241 Q45 270 37 286.5 Q29 303 23 312 Q16 323 10 326 Q17 338 22 356 Q27 371 29 393 Q31 415 29 444 L-1 678 Q-2 684 -6.5 698.5 Q-11 713 -21 728 Q-31 743 -48.5 754 Q-66 765 -93 765 Q-89 774 -80 781 Q-72 787 -60 792.5 Q-48 798 -29 798 Z M497 579 Q499 605 509 625 Q517 642 533 656.5 Q549 671 578 672 Q576 671 570 667 Q564 663 556.5 656 Q549 649 542.5 639 Q536 629 534 616 Q529 590 534 581 Q539 572 541 571 Q539 569 529.5 555 Q520 541 514 506 Q513 501 512 493 Q511 485 509 469 Q507 453 504 426 Q501 399 495 356 Q491 359 488 365.5 Q485 372 483 380 Q481 388 480 395 Q479 402 479 406 Q483 440 485.5 461 Q488 482 489.5 499.5 Q491 517 492.5 534.5 Q494 552 497 579 Z M433 84 Q439 135 445.5 177 Q452 219 459 266 Q466 276 475.5 287 Q485 298 487 300 L454 86 Q448 56 449 29 Q450 6 456 -17.5 Q462 -41 480 -54 Q461 -54 449 -39 Q438 -26 431.5 2 Q425 30 433 84 Z " />
<glyph glyph-name="W.salt" unicode="&#xe00b;" horiz-adv-x="874" d="M-42 798 Q-25 798 -11.5 792 Q2 786 12.5 778 Q23 770 30 761 Q37 752 41 746 Q48 753 64 760 Q80 767 108 767 Q127 767 139 761.5 Q151 756 159 750 Q168 743 172 734 Q146 734 135 723.5 Q124 713 122 701 Q119 686 124 668 L258 185 L325 419 Q330 441 326 449.5 Q322 458 316 460 Q309 462 299 456 Q296 468 299 479 Q301 488 308.5 495.5 Q316 503 333 503 Q343 503 350 498 Q361 519 380 538 Q399 557 422.5 566 Q446 575 473.5 570.5 Q501 566 528 539 Q521 538 511 529 Q503 521 491 503.5 Q479 486 463 453 Q463 430 468.5 398 Q474 366 483 329 Q492 292 503.5 250.5 Q515 209 528 167 L673 668 L671 669 Q676 687 673 702 Q671 714 660 724.5 Q649 735 623 735 Q627 744 636 751 Q644 757 656 762.5 Q668 768 687 768 Q722 768 738 758 Q754 748 759 742 Q778 754 802.5 763 Q827 772 856 772 Q888 772 914.5 761.5 Q941 751 960 734 Q979 717 989.5 696.5 Q1000 676 1000 655 Q1000 616 980 593.5 Q960 571 935.5 564.5 Q911 558 888.5 567.5 Q866 577 862 601 Q890 610 900 627.5 Q910 645 908 663.5 Q906 682 894 697 Q882 712 866.5 716.5 Q851 721 834 711 Q817 701 805 669 Q797 643 792 625.5 Q787 608 781 586.5 Q775 565 765.5 532 Q756 499 740 441 Q734 416 735 397 Q736 378 740 364 Q744 348 752 336 Q740 333 729 324 Q719 316 708 300.5 Q697 285 687 258 L613 1 Q616 -11 621 -26 Q626 -41 634 -54 Q642 -67 654.5 -76 Q667 -85 685 -85 Q681 -95 672 -102 Q664 -108 652 -113 Q640 -118 622 -118 Q603 -118 589 -109 Q575 -100 565.5 -88 Q556 -76 550 -64 Q544 -52 542 -46 Q537 -52 522.5 -61 Q508 -70 476 -70 Q457 -70 445 -65 Q433 -60 425 -54 Q416 -47 412 -37 Q441 -37 454 -25 Q467 -13 472 1 Q454 72 433.5 139 Q413 206 397 274 Q389 249 379 212.5 Q369 176 358 136.5 Q347 97 336.5 60 Q326 23 319 -2 Q324 -15 337.5 -26 Q351 -37 377 -37 Q373 -47 364 -54 Q356 -60 344 -65 Q332 -70 313 -70 Q280 -70 266 -61 Q252 -52 247 -45 Q242 -52 227.5 -61 Q213 -70 181 -70 Q162 -70 150 -65 Q138 -60 130 -54 Q121 -47 117 -37 Q146 -37 159 -25 Q172 -13 177 1 L103 264 Q94 288 83 302.5 Q72 317 63 325 Q52 334 42 337 Q49 348 53 362 Q57 374 58 392 Q59 410 54 435 L-21 703 Q-25 713 -31.5 724 Q-38 735 -48 744 Q-58 753 -72.5 759 Q-87 765 -106 765 Q-102 774 -93 781 Q-85 787 -73 792.5 Q-61 798 -42 798 Z M798 568 Q805 598 816 621 Q826 641 840.5 654.5 Q855 668 876 662 Q873 660 861 650 Q849 640 836 608 Q831 595 830 586.5 Q829 578 830 573 Q831 568 833 565.5 Q835 563 836 563 Q835 562 832 560 Q829 558 825 552 Q821 546 816 535.5 Q811 525 806 508 Q804 503 802.5 495 Q801 487 796.5 471 Q792 455 784.5 428 Q777 401 764 358 Q760 361 758 367.5 Q756 374 755.5 382 Q755 390 755 397 Q755 404 756 408 Q766 442 771 460.5 Q776 479 779.5 493 Q783 507 786.5 523 Q790 539 798 568 Z M683 -52 Q665 -52 654 -37 Q645 -24 643 4 Q641 32 658 86 Q672 137 686 179 Q700 221 714 268 Q722 278 733.5 289 Q745 300 747 302 L679 88 Q669 58 665 31 Q662 8 664.5 -15.5 Q667 -39 683 -52 Z " />
<glyph glyph-name="X.salt" unicode="&#xe00c;" horiz-adv-x="699" d="M567 31 L568 29 L590 -9 Q599 -23 611 -39 Q623 -55 636.5 -68.5 Q650 -82 665.5 -90.5 Q681 -99 697 -99 Q694 -109 688 -116 Q683 -122 672 -127 Q661 -132 643 -132 Q624 -132 607 -121 Q590 -110 576 -95.5 Q562 -81 552.5 -66.5 Q543 -52 539 -45 Q534 -52 520.5 -60.5 Q507 -69 475 -69 Q456 -69 442.5 -64 Q429 -59 420 -53 Q409 -46 402 -36 Q426 -36 434.5 -27.5 Q443 -19 444 -8 Q445 3 441 13.5 Q437 24 436 28 L434 31 L323 231 L207 24 Q205 20 202.5 10 Q200 0 202.5 -10 Q205 -20 214.5 -28 Q224 -36 247 -36 Q240 -46 229 -53 Q220 -59 206.5 -64 Q193 -69 174 -69 Q140 -69 126.5 -60 Q113 -51 110 -44 Q105 -51 89 -60 Q73 -69 41 -69 Q9 -69 -4 -59.5 Q-17 -50 -21 -38 Q-25 -24 -20 -6 Q-17 -10 -13 -13 Q-9 -15 -2.5 -17 Q4 -19 15 -19 Q34 -19 50.5 -3.5 Q67 12 81 34 Q86 52 83 63 Q80 74 74 81 Q67 89 55 93 Q57 101 61 107 Q65 112 71.5 117 Q78 122 89 122 Q101 122 107.5 116.5 Q114 111 119 103 L257 349 L81 664 Q74 674 63.5 689 Q53 704 40 717.5 Q27 731 14 740.5 Q1 750 -11 750 Q-22 750 -28.5 747.5 Q-35 745 -39 743 Q-43 740 -46 737 Q-51 754 -47 768 Q-43 780 -30 790 Q-17 800 15 800 Q34 800 49.5 793 Q65 786 77.5 776.5 Q90 767 98 757.5 Q106 748 110 743 Q114 750 128 759 Q142 768 174 768 Q193 768 206.5 762.5 Q220 757 229 751 Q240 744 247 735 Q223 735 213.5 727 Q204 719 202 708.5 Q200 698 202.5 688 Q205 678 207 675 L208 673 L323 468 L434 668 L436 671 Q438 675 441.5 685.5 Q445 696 444 707 Q443 718 434 726.5 Q425 735 402 735 Q409 744 420 751 Q429 757 442.5 762.5 Q456 768 475 768 Q494 768 506.5 764.5 Q519 761 526.5 756.5 Q534 752 537.5 747 Q541 742 542 740 Q558 753 579.5 762.5 Q601 772 628 772 Q660 772 684.5 761.5 Q709 751 725.5 734 Q742 717 750 696.5 Q758 676 758 655 Q758 616 738 593.5 Q718 571 693.5 564.5 Q669 558 646.5 567.5 Q624 577 620 601 Q647 610 659 626.5 Q671 643 672 660 Q673 677 664.5 691 Q656 705 641.5 710.5 Q627 716 608.5 709 Q590 702 572 676 L406 379 Q419 374 427 364.5 Q435 355 439 346 Q443 335 445 323 Q439 325 432 327 Q426 329 417.5 329.5 Q409 330 401 328 L567 31 Z M439 402 Q458 433 469.5 453.5 Q481 474 490.5 491.5 Q500 509 510 527.5 Q520 546 535 573 Q552 605 570 627 Q586 646 604.5 658.5 Q623 671 642 661 Q638 662 631 658 Q625 655 616 647 Q607 639 596 622 Q587 608 584 599 Q581 590 581 584 Q581 577 583 572 Q575 569 566 561 Q558 554 548 542.5 Q538 531 527 513 Q524 509 520 501.5 Q516 494 507.5 478.5 Q499 463 484 438 Q469 413 445 373 Q431 387 439 402 Z M588 71 Q600 43 617 17 Q631 -5 652 -27.5 Q673 -50 700 -63 Q683 -64 663 -51 Q646 -40 621.5 -12.5 Q597 15 569 69 Q555 94 538 125 Q521 156 504.5 188 Q488 220 472 250 Q456 280 443 303 Q449 299 456 298 Q463 297 468 300 L588 71 Z " />
<glyph glyph-name="Y.salt" unicode="&#xe00d;" horiz-adv-x="686" d="M342 29 Q342 2 348.5 -23.5 Q355 -49 369 -69 Q383 -89 406 -101.5 Q429 -114 461 -114 Q457 -124 448 -131 Q440 -137 428 -142 Q416 -147 397 -147 Q367 -147 345.5 -134 Q324 -121 309 -104 Q294 -87 286 -70.5 Q278 -54 275 -46 Q270 -53 255.5 -61 Q241 -69 210 -69 Q191 -69 179 -64 Q167 -59 159 -53 Q150 -46 146 -36 Q170 -35 184 -25 Q198 -15 203.5 -1 Q209 13 207.5 28.5 Q206 44 198.5 55 Q191 66 178.5 70.5 Q166 75 150 67 Q149 79 153 90 Q156 99 164.5 106.5 Q173 114 190 114 Q201 114 209 109 L209 326 L0 669 Q-21 696 -44 718 Q-64 737 -89 752.5 Q-114 768 -140 768 Q-138 777 -132 784 Q-127 790 -116 795.5 Q-105 801 -86 801 Q-67 801 -49 793.5 Q-31 786 -16.5 776.5 Q-2 767 8.5 757 Q19 747 24 742 Q28 749 42 758.5 Q56 768 89 768 Q107 768 121 762.5 Q135 757 144 751 Q155 744 162 735 Q136 735 128.5 724.5 Q121 714 122 702 Q123 687 133 669 L275 435 L426 681 Q429 688 431 697.5 Q433 707 430.5 715 Q428 723 419 729 Q410 735 391 735 Q398 744 409 751 Q418 757 431.5 762.5 Q445 768 464 768 Q500 768 513 757.5 Q526 747 529 742 Q545 754 566 763 Q587 772 613 772 Q645 772 669.5 761.5 Q694 751 710.5 734 Q727 717 735 696.5 Q743 676 743 655 Q743 616 723 593.5 Q703 571 678.5 564.5 Q654 558 631.5 567.5 Q609 577 605 601 Q632 610 644 626.5 Q656 643 657 660 Q658 677 649 691.5 Q640 706 625 711 Q610 716 591.5 708.5 Q573 701 555 674 Q548 662 539 646.5 Q530 631 510 599 Q490 567 455 509.5 Q420 452 361 356 L367 356 Q379 354 385.5 348 Q392 342 396 336 Q400 328 401 320 Q385 319 373 313 Q362 308 352.5 295.5 Q343 283 342 259 L342 29 Z M408 387 Q427 418 441 441 Q455 464 467.5 484 Q480 504 492.5 525 Q505 546 520 573 Q537 605 555 627 Q571 646 589.5 658.5 Q608 671 627 661 Q623 662 616 658 Q610 655 601 647 Q592 639 581 622 Q572 608 569 599 Q566 590 566 584 Q566 577 568 572 Q560 569 551 561 Q543 554 533 542.5 Q523 531 512 513 Q506 505 484.5 471 Q463 437 414 358 Q400 372 408 387 Z M380 62 Q380 32 384 5 Q388 -18 397.5 -41.5 Q407 -65 427 -78 Q408 -78 393 -63 Q380 -50 369.5 -22 Q359 6 359 60 Q357 111 358 169.5 Q359 228 359 275 Q369 293 383 300 L380 62 Z " />
<glyph glyph-name="a.salt" unicode="&#xe00e;" horiz-adv-x="649" d="M534 86 Q537 78 542.5 69 Q548 60 557 52 Q566 44 579 38.5 Q592 33 609 33 Q605 23 596 16 Q588 10 576 5 Q564 0 546 0 Q514 0 499.5 9 Q485 18 480 25 Q475 18 460 9 Q445 0 413 0 Q394 0 382 5 Q370 10 362 16 Q353 23 349 33 Q371 33 381.5 40.5 Q392 48 396 58 Q400 68 399.5 78 Q399 88 398 94 L387 130 Q377 115 360 105.5 Q343 96 317 96 Q293 96 273 113.5 Q253 131 253 152 Q259 146 269.5 143 Q280 140 290.5 143 Q301 146 308.5 155 Q316 164 316 181 Q316 200 302 207.5 Q288 215 268.5 210.5 Q249 206 229.5 188 Q210 170 198 139 L187 104 Q185 96 186 84 Q187 72 193.5 61 Q200 50 214 41.5 Q228 33 254 33 Q251 23 244 16 Q238 10 226.5 5 Q215 0 196 0 Q164 0 147.5 9 Q131 18 125 25 Q122 18 109 9 Q96 0 64 0 Q45 0 33 5 Q21 10 13 16 Q4 23 0 33 Q18 33 31.5 39 Q45 45 54 53.5 Q63 62 68.5 71.5 Q74 81 77 88 L116 210 Q124 237 123 257.5 Q122 278 118 292 Q114 309 106 321 Q119 324 131 333 Q142 341 154 355.5 Q166 370 176 396 L236 583 Q232 597 219 610.5 Q206 624 176 624 Q180 633 189 640 Q197 646 208.5 651.5 Q220 657 239 657 Q272 657 286.5 647.5 Q301 638 305 632 Q310 638 324.5 647.5 Q339 657 372 657 Q391 657 403 651.5 Q415 646 423 640 Q432 633 436 624 Q419 624 408 619.5 Q397 615 390 608 Q383 601 379 593 Q375 585 374 578 L431 402 Q440 374 452.5 358 Q465 342 476 334 Q489 324 503 321 Q494 309 490 291 Q486 276 486 254 Q486 232 495 204 L534 86 Z M300 278 Q311 278 321.5 276 Q332 274 341 271 L291 425 L235 253 Q247 264 263 271 Q279 278 300 278 Z " />
<glyph glyph-name="h.salt" unicode="&#xe00f;" horiz-adv-x="562" d="M458 428 Q459 401 465 383 Q471 365 478.5 354 Q486 343 492 338.5 Q498 334 500 333 Q499 332 492.5 326 Q486 320 478.5 307.5 Q471 295 465 275 Q459 255 458 227 L458 90 Q458 84 460.5 74 Q463 64 469.5 55 Q476 46 488.5 39.5 Q501 33 522 33 Q518 23 509 16 Q501 10 489 5 Q477 0 458 0 Q426 0 411.5 9 Q397 18 392 24 Q387 18 373 9 Q359 0 326 0 Q307 0 295 5 Q283 10 275 16 Q266 23 262 33 Q282 33 294 39.5 Q306 46 313 55 Q320 64 322.5 73.5 Q325 83 326 90 L326 253 Q314 249 295 249 Q271 249 251 266.5 Q231 284 231 305 Q237 299 247.5 296 Q258 293 268.5 296 Q279 299 286.5 308 Q294 317 294 334 Q294 353 279.5 355.5 Q265 358 245.5 347.5 Q226 337 206 313.5 Q186 290 175 257 L175 176 Q183 181 194 181 Q211 181 218.5 173.5 Q226 166 230 157 Q234 146 234 134 Q218 140 206 139 Q195 138 185.5 130 Q176 122 175 101 L175 99 Q175 80 181 66 Q186 53 199.5 43 Q213 33 239 33 Q235 23 226 16 Q218 10 206 5 Q194 0 175 0 Q143 0 128.5 9 Q114 18 109 24 Q104 18 90 9 Q76 0 43 0 Q24 0 12 5 Q0 10 -8 16 Q-17 23 -21 33 Q5 33 18.5 43 Q32 53 37 66 Q43 80 43 99 L43 566 Q43 572 40.5 582 Q38 592 31 601.5 Q24 611 12 617.5 Q0 624 -21 624 Q-17 633 -8 640 Q0 646 12 651.5 Q24 657 43 657 Q75 657 89.5 648 Q104 639 109 632 Q113 639 127 648 Q141 657 175 657 Q194 657 206 651.5 Q218 646 226 640 Q235 633 239 624 Q219 624 206.5 617.5 Q194 611 187 602 Q180 593 177.5 583 Q175 573 175 566 L175 342 Q179 357 187 372.5 Q195 388 207.5 401 Q220 414 237 422.5 Q254 431 278 431 Q304 431 326 420 L326 566 Q326 572 323.5 582 Q321 592 314 601.5 Q307 611 295 617.5 Q283 624 262 624 Q266 633 275 640 Q283 646 295 651.5 Q307 657 326 657 Q358 657 372.5 648 Q387 639 392 632 Q396 639 410 648 Q424 657 458 657 Q477 657 489 651.5 Q501 646 509 640 Q518 633 522 624 Q496 624 482.5 613.5 Q469 603 464 591 Q458 576 458 558 L458 428 Z " />
<glyph glyph-name="k.salt" unicode="&#xe010;" horiz-adv-x="550" d="M64 566 Q64 572 61.5 582 Q59 592 52 601.5 Q45 611 33 617.5 Q21 624 0 624 Q4 633 13 640 Q21 646 33 651.5 Q45 657 64 657 Q96 657 110.5 648 Q125 639 130 632 Q134 639 148 648 Q162 657 196 657 Q215 657 227 651.5 Q239 646 247 640 Q256 633 260 624 Q240 624 227.5 617.5 Q215 611 208 602 Q201 593 198.5 583 Q196 573 196 566 L196 399 Q214 399 237.5 403.5 Q261 408 282 421 Q303 434 317.5 459 Q332 484 332 525 L332 579 Q331 586 329 594 Q327 602 321.5 608.5 Q316 615 307.5 619.5 Q299 624 286 624 Q288 633 293 640 Q298 646 307 651.5 Q316 657 332 657 Q361 657 374.5 647.5 Q388 638 392 632 Q396 638 408.5 647.5 Q421 657 452 657 Q469 657 480 651.5 Q491 646 498 640 Q506 633 510 624 Q490 624 477.5 616.5 Q465 609 457.5 598.5 Q450 588 446.5 577.5 Q443 567 442 562 L442 489 Q438 430 407 399.5 Q376 369 331 355 L334 353 L334 354 L425 301 Q420 292 416 280 Q413 269 411.5 254.5 Q410 240 414 220 Q428 171 441 118 Q454 65 475.5 20.5 Q497 -24 532 -52.5 Q567 -81 625 -81 Q638 -81 651.5 -79 Q665 -77 676 -75 Q688 -72 700 -69 Q698 -99 686 -123 Q675 -143 653.5 -159.5 Q632 -176 591 -176 Q535 -176 494 -154 Q453 -132 423 -96 Q393 -60 372 -14 Q351 32 335 80.5 Q319 129 305 175 Q291 221 276 257 Q261 293 242 315 Q223 337 196 337 L196 176 Q204 181 215 181 Q232 181 239.5 173.5 Q247 166 251 157 Q255 146 255 134 Q239 140 227 139 Q216 138 206.5 130 Q197 122 196 101 L196 99 Q196 80 202 66 Q207 53 220.5 43 Q234 33 260 33 Q256 23 247 16 Q239 10 227 5 Q215 0 196 0 Q164 0 149.5 9 Q135 18 130 24 Q125 18 111 9 Q97 0 64 0 Q45 0 33 5 Q21 10 13 16 Q4 23 0 33 Q26 33 39.5 43 Q53 53 58 66 Q64 80 64 99 L64 227 Q63 254 57 273.5 Q51 293 43.5 306 Q36 319 29 325.5 Q22 332 21 333 Q22 333 28.5 337.5 Q35 342 42.5 353 Q50 364 56.5 382 Q63 400 64 428 L64 566 Z " />
<glyph glyph-name="m.salt" unicode="&#xe011;" horiz-adv-x="708" d="M604 99 Q604 80 610 66 Q615 53 628.5 43 Q642 33 668 33 Q664 23 655 16 Q647 10 635 5 Q623 0 604 0 Q572 0 557.5 9 Q543 18 538 24 Q533 18 519 9 Q505 0 472 0 Q453 0 441 5 Q429 10 421 16 Q412 23 408 33 Q427 33 439 39 Q451 45 457.5 53 Q464 61 467 70.5 Q470 80 471 87 Q471 101 465 108.5 Q459 116 451 120 Q442 124 432 126 Q433 133 437 139 Q440 144 446 148 Q452 152 463 152 Q465 152 467.5 151.5 Q470 151 472 151 L472 381 L397 253 Q393 232 394.5 210.5 Q396 189 413 175 Q403 170 392.5 172.5 Q382 175 375 184 L196 427 L196 176 Q204 181 215 181 Q232 181 239.5 173.5 Q247 166 251 157 Q255 146 255 134 Q239 140 227 139 Q216 138 206.5 130 Q197 122 196 101 L196 99 Q196 80 202 66 Q207 53 220.5 43 Q234 33 260 33 Q256 23 247 16 Q239 10 227 5 Q215 0 196 0 Q164 0 149.5 9 Q135 18 130 24 Q125 18 111 9 Q97 0 64 0 Q45 0 33 5 Q21 10 13 16 Q4 23 0 33 Q20 33 32 39.5 Q44 46 51 55 Q58 64 60.5 73.5 Q63 83 64 90 L64 227 Q63 254 57 273.5 Q51 293 43.5 306 Q36 319 29 325.5 Q22 332 21 333 Q22 333 28.5 338 Q35 343 43 354.5 Q51 366 57.5 385 Q64 404 64 434 L64 609 Q25 658 -6.5 689 Q-38 720 -65 734 Q-92 748 -115 746 Q-138 744 -160 728 Q-162 750 -152 768 Q-144 783 -124 796 Q-104 809 -63 809 Q-11 809 38 774.5 Q87 740 150 665 Q158 672 169 676 Q180 680 196 680 Q215 680 227 674.5 Q239 669 247 663 Q256 656 260 647 Q233 647 219.5 632.5 Q206 618 201 601 L351 410 Q366 433 383 460 Q400 487 415.5 513 Q431 539 444 561 Q457 583 464 595 Q458 606 445 615 Q432 624 408 624 Q412 633 421 640 Q429 646 441 651.5 Q453 657 472 657 Q504 657 518.5 648 Q533 639 538 632 Q542 639 556 648 Q570 657 604 657 Q623 657 635 651.5 Q647 646 655 640 Q664 633 668 624 Q648 624 635.5 617.5 Q623 611 616 602 Q609 593 606.5 583 Q604 573 604 566 L604 428 Q605 401 611 383 Q617 365 624.5 354 Q632 343 638 338.5 Q644 334 646 333 Q645 332 638.5 326 Q632 320 624.5 307.5 Q617 295 611 275 Q605 255 604 227 L604 99 L604 99 Z " />
<glyph glyph-name="n.salt" unicode="&#xe012;" horiz-adv-x="583" d="M705 -89 Q708 -111 698 -129 Q690 -144 668 -156 Q646 -168 600 -168 Q565 -168 536.5 -150.5 Q508 -133 488 -111 Q464 -86 445 -54 L196 378 L196 176 Q206 181 215 181 Q232 181 239.5 173.5 Q247 166 251 157 Q255 146 255 134 Q238 141 225 139 Q214 137 205 127.5 Q196 118 196 93 Q196 87 198.5 76.5 Q201 66 207.5 56.5 Q214 47 226.5 40 Q239 33 260 33 Q256 23 247 16 Q239 10 227 5 Q215 0 196 0 Q164 0 149.5 9 Q135 18 130 25 Q125 18 110.5 9 Q96 0 64 0 Q45 0 33 5 Q21 10 13 16 Q4 23 0 33 Q21 33 33.5 40 Q46 47 53 56.5 Q60 66 62 76.5 Q64 87 64 93 L64 221 Q64 250 58 271 Q52 292 44 305.5 Q36 319 29 325.5 Q22 332 21 333 Q22 333 28.5 338 Q35 343 43 354.5 Q51 366 57.5 385 Q64 404 64 434 L64 564 Q64 570 62 580.5 Q60 591 53 600.5 Q46 610 33.5 617 Q21 624 0 624 Q4 633 13 640 Q21 646 33 651.5 Q45 657 64 657 Q96 657 110.5 648 Q125 639 130 632 Q135 639 149.5 648 Q164 657 196 657 Q215 657 227 651.5 Q239 646 247 640 Q256 633 260 624 Q236 624 223 614.5 Q210 605 204 593 Q244 518 280 454 Q316 390 347 334 L347 564 Q347 570 345 580.5 Q343 591 336 600.5 Q329 610 316.5 617 Q304 624 283 624 Q287 633 296 640 Q304 646 316 651.5 Q328 657 347 657 Q379 657 393.5 648 Q408 639 413 632 Q418 639 432.5 648 Q447 657 479 657 Q498 657 510 651.5 Q522 646 530 640 Q539 633 543 624 Q522 624 509.5 617 Q497 610 490.5 600.5 Q484 591 481.5 580.5 Q479 570 479 564 L479 434 Q479 405 485 386 Q491 367 498.5 355.5 Q506 344 512.5 339 Q519 334 521 333 Q520 332 513.5 326 Q507 320 499.5 306.5 Q492 293 485.5 272 Q479 251 479 221 L479 107 Q493 85 501 70.5 Q509 56 513 49 Q517 41 527.5 24.5 Q538 8 552.5 -11 Q567 -30 585 -49 Q603 -68 622.5 -80.5 Q642 -93 663 -97 Q684 -101 705 -89 Z " />
<glyph glyph-name="q.salt" unicode="&#xe013;" horiz-adv-x="543" d="M861 -69 Q891 -73 908.5 -89.5 Q926 -106 931 -128.5 Q936 -151 929.5 -176 Q923 -201 905 -222 Q887 -243 858.5 -257 Q830 -271 791 -271 Q752 -271 703 -256 Q654 -241 599.5 -218.5 Q545 -196 488 -170.5 Q431 -145 377.5 -123 Q324 -101 276.5 -87.5 Q229 -74 194 -76 Q176 -77 156 -83 Q136 -89 119 -101 Q102 -113 91 -132 Q80 -151 80 -177 Q52 -149 49.5 -121 Q47 -93 61 -69 Q75 -45 101 -28 Q127 -11 156 -3 Q118 6 96 23.5 Q74 41 62.5 62.5 Q51 84 47.5 108.5 Q44 133 43 156 L43 220 Q43 249 37 270 Q31 291 23 304.5 Q15 318 8 324.5 Q1 331 0 332 Q1 332 7.5 337 Q14 342 22 353.5 Q30 365 36.5 384 Q43 403 43 433 L43 497 Q44 525 49.5 555 Q55 585 75 610 Q95 635 135 650.5 Q175 666 244 666 L261 666 Q330 666 370 650.5 Q410 635 430.5 610 Q451 585 456.5 555 Q462 525 462 497 L462 433 Q462 404 468 385 Q474 366 481.5 354.5 Q489 343 495.5 338 Q502 333 504 332 Q503 331 496.5 325 Q490 319 482.5 305.5 Q475 292 468.5 271 Q462 250 462 220 L462 156 Q462 129 457 100.5 Q452 72 434 48 Q416 24 381 7.5 Q346 -9 286 -12 Q347 -27 417 -51.5 Q487 -76 554.5 -99.5 Q622 -123 682.5 -139 Q743 -155 786 -152 Q820 -150 840 -130.5 Q860 -111 861 -69 Z M176 434 Q176 405 182 386 Q188 367 196 355.5 Q204 344 210.5 339 Q217 334 219 333 Q218 332 211.5 326 Q205 320 197 306.5 Q189 293 182.5 272 Q176 251 176 221 L176 172 Q183 178 195 178 Q206 178 212.5 173 Q219 168 223 163 Q227 157 229 149 Q217 147 207 142 Q199 137 191.5 128.5 Q184 120 185 105 Q198 74 222 63.5 Q246 53 270 60 Q294 67 311.5 89.5 Q329 112 329 147 Q327 173 317 190 Q307 207 295 216 Q281 227 263 231 Q266 241 271 249 Q276 256 284 261.5 Q292 267 306 267 Q319 267 329 262 L329 490 Q329 511 324 531.5 Q319 552 308.5 567.5 Q298 583 280.5 591.5 Q263 600 238 596 Q228 594 217 588.5 Q206 583 197 571 Q188 559 182 539.5 Q176 520 176 490 L176 434 Z " />
<glyph glyph-name="r.salt" unicode="&#xe014;" horiz-adv-x="553" d="M625 -81 Q638 -81 651.5 -79 Q665 -77 676 -75 Q688 -72 700 -69 Q698 -99 686 -123 Q675 -143 653.5 -159.5 Q632 -176 591 -176 Q533 -176 492 -155 Q451 -134 421 -100 Q391 -66 370.5 -23 Q350 20 334.5 64.5 Q319 109 306 150.5 Q293 192 278 223.5 Q263 255 243.5 271.5 Q224 288 196 283 L196 93 Q196 87 198.5 76.5 Q201 66 207.5 56.5 Q214 47 226.5 40 Q239 33 260 33 Q256 23 247 16 Q239 10 227 5 Q215 0 196 0 Q164 0 149.5 9 Q135 18 130 25 Q125 18 110.5 9 Q96 0 64 0 Q45 0 33 5 Q21 10 13 16 Q4 23 0 33 Q21 33 33.5 40 Q46 47 53 56.5 Q60 66 62 76.5 Q64 87 64 93 L64 221 Q64 250 58 271 Q52 292 44 305.5 Q36 319 29 325.5 Q22 332 21 333 Q22 333 28.5 338 Q35 343 43 354.5 Q51 366 57.5 385 Q64 404 64 434 L64 558 Q64 576 58 591 Q53 603 39.5 613.5 Q26 624 0 624 Q4 633 13 640 Q21 646 33 651.5 Q45 657 64 657 Q90 657 111.5 648.5 Q133 640 149 625 Q161 639 185.5 652 Q210 665 251 665 Q276 665 309.5 660.5 Q343 656 375.5 645.5 Q408 635 436.5 619 Q465 603 481 580 Q474 576 469 566 Q464 558 460.5 542.5 Q457 527 456 503 Q456 433 420.5 384 Q385 335 317 307 Q324 306 332 303.5 Q340 301 353 294 Q366 287 385.5 274 Q405 261 436 240 Q432 231 429 220 Q427 210 426 195 Q425 180 430 160 Q442 119 454.5 76 Q467 33 488 -2 Q509 -37 541.5 -59 Q574 -81 625 -81 Z M196 343 Q218 351 248 367.5 Q278 384 301 410 Q306 426 302.5 437 Q299 448 292 454 Q285 460 276 461.5 Q267 463 262 459 Q264 468 269 476 Q274 482 281.5 487.5 Q289 493 303 493 Q314 493 320.5 488 Q327 483 331 475 Q335 494 332.5 515.5 Q330 537 320.5 555 Q311 573 294.5 585 Q278 597 254 597 Q237 597 226.5 592 Q216 587 209 580 Q202 573 199 564.5 Q196 556 195 550 Q197 540 203.5 535 Q210 530 216 527 Q223 523 231 523 Q230 515 226 510 Q223 505 217 501.5 Q211 498 201 498 L196 498 L196 343 Z " />
<glyph glyph-name="v.salt" unicode="&#xe015;" horiz-adv-x="639" d="M400 674 Q413 674 423 670 Q433 666 441 661 Q453 695 470 725 Q487 755 510.5 777.5 Q534 800 564.5 813 Q595 826 635 826 Q676 826 695 814.5 Q714 803 722 789 Q731 773 729 753 Q681 768 647 758 Q613 748 589.5 721.5 Q566 695 551.5 656.5 Q537 618 528.5 575.5 Q520 533 515.5 491 Q511 449 509 416 Q509 374 517 355.5 Q525 337 526 336 Q526 336 522.5 333 Q519 330 513 321.5 Q507 313 499.5 297.5 Q492 282 483 256 Q475 201 471 170.5 Q467 140 465 125.5 Q463 111 462 107 Q461 103 461 102 Q461 97 461 86 Q461 75 463.5 62 Q466 49 472.5 36.5 Q479 24 491 17 Q475 20 459 22 Q445 24 430 23 Q415 22 402 17 Q357 -8 303.5 -8.5 Q250 -9 202 15 L203 14 Q190 21 174 23 Q158 25 144 23 Q127 21 109 17 Q121 24 127 36 Q133 48 135 61 Q137 74 137 85.5 Q137 97 137 102 L117 251 Q107 280 99 296.5 Q91 313 85 322 Q78 333 72 336 Q76 344 80 355 Q83 365 86 379.5 Q89 394 89 414 Q89 418 88.5 425 Q88 432 86.5 448 Q85 464 81.5 494 Q78 524 71 575 Q69 588 61 599 Q54 608 40 616 Q26 624 0 624 Q4 633 13 640 Q21 646 33 651.5 Q45 657 64 657 Q96 657 110.5 648 Q125 639 130 632 Q134 639 148 648 Q162 657 196 657 Q215 657 227 651.5 Q239 646 247 640 Q256 633 260 624 Q240 624 228.5 619.5 Q217 615 211 609 Q205 603 203.5 596.5 Q202 590 202 585 L266 128 Q272 77 282.5 62 Q293 47 303.5 55 Q314 63 321 85.5 Q328 108 326.5 132 Q325 156 313 173 Q301 190 272 187 Q275 197 280 205 Q285 212 293 218 Q301 224 315 224 Q333 224 345 214 L398 578 L398 581 Q398 585 397 594.5 Q396 604 389.5 614.5 Q383 625 370.5 633 Q358 641 336 641 Q340 650 349 657 Q357 663 369 668.5 Q381 674 400 674 Z " />
<glyph glyph-name="w.salt" unicode="&#xe016;" horiz-adv-x="919" d="M318 539 Q345 566 372.5 570.5 Q400 575 423.5 566 Q447 557 466 538 Q485 519 496 498 Q503 503 513 503 Q530 503 537 495.5 Q544 488 546 479 Q549 468 547 456 Q537 461 530 459 Q524 457 521 449 Q518 441 523 420 L587 228 L690 558 Q695 583 692 603 Q690 620 679 634 Q668 648 642 648 Q646 657 655 664 Q663 670 675 675.5 Q687 681 706 681 Q720 681 731.5 676 Q743 671 751 663 Q772 697 796.5 726.5 Q821 756 850.5 778 Q880 800 914.5 813 Q949 826 988 826 Q1021 826 1039.5 814.5 Q1058 803 1068 789 Q1079 773 1082 753 Q1029 772 988.5 762 Q948 752 917.5 722.5 Q887 693 863.5 648 Q840 603 822 552 L784 432 Q779 408 780 390 Q781 372 785 360 Q789 346 796 336 Q784 333 772 324 Q761 316 749.5 300.5 Q738 285 729 258 L669 69 Q674 55 687 44 Q700 33 729 33 Q725 23 716 16 Q708 10 696 5 Q684 0 665 0 Q633 0 618.5 9 Q604 18 599 24 Q594 18 580 9 Q566 0 533 0 Q514 0 502 5 Q490 10 482 16 Q473 23 469 33 Q493 33 506 42 Q519 51 525 62 Q518 81 508 108.5 Q498 136 487 165 Q476 194 466 222.5 Q456 251 449 274 Q447 267 445 260.5 Q443 254 441 247 Q434 224 425.5 199 Q417 174 408 149.5 Q399 125 391 102.5 Q383 80 377 64 Q382 52 395 42.5 Q408 33 434 33 Q430 23 421 16 Q413 10 401 5 Q389 0 370 0 Q337 0 322.5 9 Q308 18 303 25 Q299 19 285.5 9.5 Q272 0 237 0 Q218 0 206.5 5 Q195 10 187 16 Q178 23 174 33 Q201 33 214 44 Q227 55 232 69 L171 266 Q160 290 149 303.5 Q138 317 128 325 Q117 333 106 336 Q114 347 118 363 Q122 377 122.5 396.5 Q123 416 116 442 L80 557 L79 558 Q78 559 78 560 L78 564 L75 571 Q73 578 68 587 Q63 596 54 604.5 Q45 613 32 618.5 Q19 624 0 624 Q4 633 13 640 Q21 646 33 651.5 Q45 657 64 657 Q96 657 108.5 648 Q121 639 125 632 Q130 638 146 647.5 Q162 657 196 657 Q215 657 227 651.5 Q239 646 247 640 Q256 633 260 624 Q237 624 226.5 616 Q216 608 212 597.5 Q208 587 209 576.5 Q210 566 211 561 L212 558 L319 216 Q345 285 363.5 346.5 Q382 408 383 453 Q367 486 355 503.5 Q343 521 335 529 Q325 538 318 539 Z " />
<glyph glyph-name="x.salt" unicode="&#xe017;" horiz-adv-x="658" d="M815 -37 Q819 -66 811 -92 Q804 -114 785.5 -134.5 Q767 -155 727 -162 Q676 -171 632 -157 Q588 -143 540.5 -100 Q493 -57 438 18.5 Q383 94 311 209 L241 95 L240 93 Q238 90 235.5 80 Q233 70 234.5 59.5 Q236 49 246 41 Q256 33 280 33 Q273 23 262 16 Q253 10 239.5 5 Q226 0 207 0 Q175 0 161 9 Q147 18 142 24 Q137 18 122.5 9 Q108 0 74 0 Q42 0 29 9.5 Q16 19 12 31 Q8 45 13 63 Q16 59 20 56 Q24 54 30.5 52 Q37 50 48 50 Q64 50 78 61 Q92 72 102 85 L105 90 L244 316 Q233 326 222 329 Q211 332 201 332 Q190 332 179 328 Q178 338 182 348 Q184 356 190 364.5 Q196 373 207 378 L86 577 Q75 592 54.5 608 Q34 624 0 624 Q3 633 9 640 Q14 646 24.5 651.5 Q35 657 54 657 Q86 657 101.5 648 Q117 639 122 632 Q126 639 139.5 648 Q153 657 187 657 Q206 657 219.5 651.5 Q233 646 242 640 Q253 633 260 624 Q241 624 232 618 Q223 612 220.5 604 Q218 596 220 586.5 Q222 577 225 570 Q249 532 270.5 496.5 Q292 461 312 428 L393 560 Q395 563 399.5 573.5 Q404 584 403.5 595.5 Q403 607 395 615.5 Q387 624 363 624 Q370 633 381 640 Q390 646 403.5 651.5 Q417 657 436 657 Q468 657 482 648 Q496 639 500 632 Q505 639 520 648 Q535 657 569 657 Q587 657 598 651.5 Q609 646 614 640 Q620 633 623 624 Q589 624 568 607.5 Q547 591 536 577 Q533 572 530.5 568 Q528 564 523 555 Q518 546 508 530.5 Q498 515 481.5 488 Q465 461 440 420 Q415 379 378 319 Q405 274 428 236 Q451 198 471 164 Q476 175 483.5 183 Q491 191 505 191 Q516 191 522.5 186 Q529 181 533 176 Q537 170 539 162 Q527 157 520 148 Q513 140 510 127.5 Q507 115 514 96 Q546 47 573.5 14 Q601 -19 627.5 -38 Q654 -57 682 -63 Q710 -69 744 -63 Q757 -61 769 -56.5 Q781 -52 792 -47 Q803 -42 815 -37 Z " />
<glyph glyph-name="y.salt" unicode="&#xe018;" horiz-adv-x="648" d="M240 259 Q238 283 229 295.5 Q220 308 209 313 Q197 319 181 320 Q182 328 186 336 Q189 342 196 348 Q203 354 215 356 L221 356 L100 557 L99 557 L98 558 Q89 576 75 591 Q63 603 44.5 613.5 Q26 624 0 624 Q3 633 9 640 Q14 646 24.5 651.5 Q35 657 54 657 Q86 657 102 648 Q118 639 123 632 Q127 638 139.5 647.5 Q152 657 187 657 Q206 657 219.5 651.5 Q233 646 242 640 Q253 633 260 624 Q240 624 231 618 Q222 612 220 603 Q218 594 220 584.5 Q222 575 225 568 L307 435 L382 558 L383 560 Q385 563 389.5 578 Q394 593 393.5 609.5 Q393 626 385 639 Q377 652 353 652 Q360 661 371 668 Q380 674 393.5 679.5 Q407 685 426 685 Q446 685 461 673 Q490 710 523 742 Q556 774 593.5 795.5 Q631 817 672.5 824.5 Q714 832 760 820 Q788 812 800.5 796 Q813 780 817 763.5 Q821 747 819.5 734 Q818 721 818 720 Q817 721 807.5 732 Q798 743 774 751 Q736 761 702 750.5 Q668 740 638 715.5 Q608 691 581.5 656 Q555 621 531.5 584 Q508 547 487 510.5 Q466 474 447 447 L373 326 L373 176 Q381 181 392 181 Q409 181 416.5 173.5 Q424 166 428 157 Q432 146 432 134 Q408 146 392 132.5 Q376 119 374 97 Q372 75 386.5 54.5 Q401 34 436 33 Q432 23 423 16 Q415 10 403 5 Q391 0 372 0 Q340 0 325.5 9 Q311 18 306 24 Q301 18 287 9 Q273 0 240 0 Q221 0 209 5 Q197 10 189 16 Q180 23 176 33 Q202 33 215.5 43 Q229 53 234 65 Q240 79 240 98 L240 259 Z " />
<glyph glyph-name="z.salt" unicode="&#xe019;" horiz-adv-x="547" d="M387 645 Q424 645 448.5 650.5 Q473 656 473 679 Q473 679 479 676.5 Q485 674 490.5 665.5 Q496 657 496 640 Q496 623 483 595 Q480 588 476 581 Q472 574 464 560 Q456 546 441.5 521.5 Q427 497 403 455 Q400 449 394 435.5 Q388 422 383 405 Q378 388 376.5 367.5 Q375 347 381 327 Q366 330 350 325 Q336 320 320.5 305 Q305 290 290 257 L290 259 L186 80 Q227 69 274 49 Q321 29 369 6 Q417 -17 464.5 -40.5 Q512 -64 556.5 -82.5 Q601 -101 639.5 -111.5 Q678 -122 708 -120 Q742 -118 762 -99.5 Q782 -81 782 -57 Q812 -61 829.5 -76.5 Q847 -92 852 -113 Q857 -134 851 -157.5 Q845 -181 827 -200.5 Q809 -220 780.5 -233 Q752 -246 713 -246 Q676 -246 628 -227.5 Q580 -209 527 -181.5 Q474 -154 418.5 -121.5 Q363 -89 309.5 -61 Q256 -33 207 -13.5 Q158 6 119 7 Q101 6 80.5 1 Q60 -4 42.5 -15 Q25 -26 13.5 -43.5 Q2 -61 2 -87 Q-19 -66 -25.5 -45 Q-32 -24 -28 -5 Q-24 14 -11 30.5 Q2 47 20 60 L160 295 L158 294 Q167 308 167 323 Q167 338 163 350 Q159 364 149 377 Q167 376 183.5 385 Q200 394 214.5 407.5 Q229 421 239.5 436 Q250 451 256 460 L326 581 L215 581 Q208 581 196 581 Q184 581 172 575.5 Q160 570 151.5 557.5 Q143 545 143 520 Q143 494 128.5 479.5 Q114 465 96 458 Q78 451 62.5 449.5 Q47 448 45 448 Q46 448 48 451 Q50 454 52 464 Q54 474 55.5 493 Q57 512 57 545 Q57 587 53.5 608 Q50 629 47 637 Q42 648 40 651 Q38 654 37 655 L55 672 Q59 658 73 652 Q87 646 101 645 L387 645 L387 645 Z " />
<glyph glyph-name="h" unicode="h" horiz-adv-x="562" d="M175 429 Q179 429 183.5 429.5 Q188 430 193 430 Q238 430 270.5 413 Q303 396 326 375 L326 566 Q326 572 323.5 582 Q321 592 314 601.5 Q307 611 295 617.5 Q283 624 262 624 Q266 633 275 640 Q283 646 295 651.5 Q307 657 326 657 Q358 657 372.5 648 Q387 639 392 632 Q396 639 410 648 Q424 657 458 657 Q477 657 489 651.5 Q501 646 509 640 Q518 633 522 624 Q496 624 482.5 613.5 Q469 603 464 591 Q458 576 458 558 L458 428 Q459 401 465 383 Q471 365 478.5 354 Q486 343 492 338.5 Q498 334 500 333 Q499 332 492.5 326 Q486 320 478.5 306.5 Q471 293 464.5 272 Q458 251 458 221 L458 90 Q458 84 460.5 74 Q463 64 469.5 55 Q476 46 488.5 39.5 Q501 33 522 33 Q518 23 509 16 Q501 10 489 5 Q477 0 458 0 Q426 0 411.5 9 Q397 18 392 24 Q387 18 373 9 Q359 0 326 0 Q307 0 295 5 Q283 10 275 16 Q266 23 262 33 Q282 33 294 39.5 Q306 46 313 55 Q320 64 322.5 73.5 Q325 83 326 90 L326 269 Q326 289 318 303 Q310 317 296 325 Q270 337 253.5 332.5 Q237 328 228 317 Q217 305 212 285 Q198 285 190.5 297 Q183 309 185 324 L175 319 L175 176 Q183 181 194 181 Q211 181 218.5 173.5 Q226 166 230 157 Q234 146 234 134 Q218 140 206 139 Q195 138 185.5 130 Q176 122 175 101 L175 99 Q175 80 181 66 Q186 53 199.5 43 Q213 33 239 33 Q235 23 226 16 Q218 10 206 5 Q194 0 175 0 Q143 0 128.5 9 Q114 18 109 24 Q104 18 90 9 Q76 0 43 0 Q24 0 12 5 Q0 10 -8 16 Q-17 23 -21 33 Q5 33 18.5 43 Q32 53 37 66 Q43 80 43 99 L43 267 Q19 268 1 273.5 Q-17 279 -29.5 287 Q-42 295 -50 304.5 Q-58 314 -62 324 Q-73 347 -71 375 Q-35 347 -9 349.5 Q17 352 43 367 L43 566 Q43 572 40.5 582 Q38 592 31 601.5 Q24 611 12 617.5 Q0 624 -21 624 Q-17 633 -8 640 Q0 646 12 651.5 Q24 657 43 657 Q75 657 89.5 648 Q104 639 109 632 Q113 639 127 648 Q141 657 175 657 Q194 657 206 651.5 Q218 646 226 640 Q235 633 239 624 Q213 624 199.5 613.5 Q186 603 181 591 Q175 576 175 558 L175 429 Z " />
<glyph glyph-name="g" unicode="g" horiz-adv-x="519" d="M469 630 Q457 618 452 605 Q447 592 446 577.5 Q445 563 446 548 Q447 533 447 517 Q447 497 443 489 Q439 481 434.5 479 Q430 477 426 476 Q422 475 422 468 Q422 450 408.5 440.5 Q395 431 378.5 426.5 Q362 422 347.5 421.5 Q333 421 332 421 Q333 421 336 425 Q339 429 342.5 438 Q346 447 349 463 Q352 479 352 504 Q352 546 322 571 Q292 596 249 596 Q239 596 227 592 Q215 588 203.5 577.5 Q192 567 184.5 547 Q177 527 176 496 L176 231 Q186 236 198 236 Q212 236 220 230 Q228 224 233 217 Q238 209 241 199 Q224 197 210 191 Q198 186 188 175 Q178 164 177 145 Q182 109 201.5 88.5 Q221 68 245 60.5 Q269 53 292.5 59 Q316 65 330 82 Q340 95 341 117 Q340 130 334.5 137 Q329 144 321 148 Q312 152 302 154 Q303 161 307 167 Q310 172 316 176 Q322 180 333 180 Q335 180 337.5 179.5 Q340 179 342 179 Q342 207 341.5 224.5 Q341 242 341 252.5 Q341 263 341.5 269 Q342 275 343 280 Q323 269 314.5 255.5 Q306 242 304 219 Q278 256 281.5 280.5 Q285 305 305 321 Q325 337 355.5 347.5 Q386 358 415 367.5 Q444 377 465.5 387.5 Q487 398 489 414 Q505 394 508 376 Q510 360 499.5 344 Q489 328 450 317 Q449 317 449 316 L449 104 Q457 105 463 102 Q468 100 473 93.5 Q478 87 479 74 Q478 75 474.5 78 Q471 81 462 80 Q453 79 436.5 70.5 Q420 62 395 41 Q375 27 351 16 Q331 6 303 -1.5 Q275 -9 244 -9 Q203 -9 162.5 -1.5 Q122 6 89 32 Q75 40 56 49 Q37 58 18 56 Q25 62 30 74 Q35 85 38.5 104 Q42 123 43 155 L43 220 Q43 250 37 270.5 Q31 291 23 304.5 Q15 318 8 324.5 Q1 331 0 332 Q1 332 7.5 336.5 Q14 341 21.5 352 Q29 363 35.5 381 Q42 399 43 427 L43 489 Q43 518 47.5 549.5 Q52 581 72 606.5 Q92 632 132.5 648.5 Q173 665 244 665 L245 665 Q273 665 303 657 Q333 649 361 642.5 Q389 636 414 636 Q439 636 456 651 L469 630 Z " />
<glyph glyph-name="i" unicode="i" horiz-adv-x="300" d="M196 428 Q197 401 203 383 Q209 365 216.5 354 Q224 343 230 338.5 Q236 334 238 333 Q237 332 230.5 326 Q224 320 216.5 307.5 Q209 295 203 275 Q197 255 196 227 L196 176 Q204 181 215 181 Q232 181 239.5 173.5 Q247 166 251 157 Q255 146 255 134 Q237 143 224 139.5 Q211 136 204 125 Q197 114 196.5 99 Q196 84 202.5 70 Q209 56 223 45 Q237 34 260 33 Q256 23 247 16 Q239 10 227 5 Q215 0 196 0 Q164 0 149.5 9 Q135 18 130 24 Q125 18 111 9 Q97 0 64 0 Q45 0 33 5 Q21 10 13 16 Q4 23 0 33 Q26 33 39.5 43 Q53 53 58 66 Q64 80 64 99 L64 227 Q63 254 57 273.5 Q51 293 43.5 306 Q36 319 29 325.5 Q22 332 21 333 Q22 333 28.5 338 Q35 343 43 354.5 Q51 366 57.5 385 Q64 404 64 434 L64 566 Q64 572 61.5 582 Q59 592 52 601.5 Q45 611 33 617.5 Q21 624 0 624 Q4 633 13 640 Q21 646 33 651.5 Q45 657 64 657 Q96 657 110.5 648 Q125 639 130 632 Q134 639 148 648 Q162 657 196 657 Q215 657 227 651.5 Q239 646 247 640 Q256 633 260 624 Q234 624 220.5 613.5 Q207 603 202 591 Q196 576 196 558 L196 428 Z " />
<glyph glyph-name="scaron" unicode="&#x161;" horiz-adv-x="487" d="M404 654 Q387 639 363 639.5 Q339 640 312.5 646.5 Q286 653 260 660.5 Q234 668 214 668 L212 668 Q140 668 91 638 Q42 608 21.5 564 Q1 520 10.5 469.5 Q20 419 65 379 Q75 368 82 356 Q88 345 93 330.5 Q98 316 96 299 Q109 306 125 308 Q139 310 155.5 307 Q172 304 192 291 L192 292 Q203 284 222.5 271.5 Q242 259 261 240 Q280 221 294 196 Q308 171 308 139 Q308 115 299.5 97.5 Q291 80 277.5 68.5 Q264 57 248 51.5 Q232 46 216 46 Q201 46 190.5 50.5 Q180 55 173 66 Q168 75 165 90.5 Q162 106 163 132 Q164 166 170 185.5 Q176 205 183 216 Q191 228 200 233 L183 249 Q167 237 143 226 Q123 217 91.5 208 Q60 199 17 197 L17 164 L48 164 Q54 123 52 87 Q50 56 41 26.5 Q32 -3 7 -16 Q23 -11 49 -8 Q72 -6 108.5 -5 Q145 -4 200 -6 Q227 -9 266 -9 Q318 -9 354.5 6.5 Q391 22 414 47.5 Q437 73 446 106.5 Q455 140 451 175.5 Q447 211 430.5 246 Q414 281 386 310 Q375 324 369.5 338 Q364 352 362 363 Q359 375 360 387 Q329 374 311 376 Q293 378 285 382 Q260 397 236 412 Q212 427 193 442.5 Q174 458 162.5 475 Q151 492 151 512 Q151 536 158 552.5 Q165 569 175 579.5 Q185 590 196.5 594.5 Q208 599 217 599 L218 599 Q258 596 279 570.5 Q300 545 300 507 Q300 482 297 466 Q294 450 290.5 441 Q287 432 284 428 Q281 424 280 424 Q281 424 295.5 424.5 Q310 425 326.5 429.5 Q343 434 356.5 443.5 Q370 453 370 471 Q370 478 374 479 Q378 480 382.5 482 Q387 484 391 492 Q395 500 395 520 Q395 536 394 551 Q393 566 394 580.5 Q395 595 399.5 608 Q404 621 416 632 L404 654 Z M147 788 Q130 812 137.5 828.5 Q145 845 176 859 L243 767 L310 859 Q341 845 348.5 828.5 Q356 812 339 788 L259 708 Q251 698 237 698 L147 788 Z " />
<glyph glyph-name="Ydieresis" unicode="&#x178;" horiz-adv-x="686" d="M285 259 Q283 283 274 295.5 Q265 308 254 313 Q242 319 226 320 Q227 328 231 336 Q234 342 241 348 Q248 354 260 356 L266 356 Q207 452 172 509.5 Q137 567 117 599 Q97 631 88 646.5 Q79 662 72 674 Q54 701 35.5 708.5 Q17 716 2 711 Q-13 706 -22 691.5 Q-31 677 -30 660 Q-29 643 -17 626.5 Q-5 610 22 601 Q17 577 -5 567.5 Q-27 558 -51.5 564.5 Q-76 571 -96 593.5 Q-116 616 -116 655 Q-116 676 -108 696.5 Q-100 717 -83.5 734 Q-67 751 -42.5 761.5 Q-18 772 14 772 Q40 772 61 763 Q82 754 98 742 Q101 747 114 757.5 Q127 768 163 768 Q182 768 195.5 762.5 Q209 757 218 751 Q229 744 236 735 Q217 735 208 729 Q199 723 196.5 715 Q194 707 196 697.5 Q198 688 201 681 L352 435 L494 669 Q504 687 505 702 Q506 714 498.5 724.5 Q491 735 465 735 Q472 744 483 751 Q492 757 505.5 762.5 Q519 768 538 768 Q571 768 585 758.5 Q599 749 603 742 Q607 747 618 757 Q629 767 643.5 776.5 Q658 786 676 793.5 Q694 801 713 801 Q732 801 743 795.5 Q754 790 759 784 Q765 777 767 768 Q741 768 716 752.5 Q691 737 671 718 Q648 696 627 669 L418 326 L418 109 Q426 114 437 114 Q454 114 461.5 106.5 Q469 99 473 90 Q477 79 477 67 Q461 75 448.5 70.5 Q436 66 428.5 55 Q421 44 419.5 28.5 Q418 13 423.5 -1 Q429 -15 443 -25 Q457 -35 481 -36 Q477 -46 468 -53 Q460 -59 448 -64 Q436 -69 417 -69 Q386 -69 371.5 -61 Q357 -53 352 -46 Q349 -54 341 -70.5 Q333 -87 318 -104 Q303 -121 281.5 -134 Q260 -147 230 -147 Q211 -147 199 -142 Q187 -137 179 -131 Q170 -124 166 -114 Q198 -114 220.5 -101.5 Q243 -89 257.5 -69 Q272 -49 278.5 -23.5 Q285 2 285 29 L285 259 Z M219 387 Q227 372 213 358 Q164 437 142.5 471 Q121 505 115 513 Q104 531 94 542.5 Q84 554 76 561 Q67 569 59 572 Q61 577 61 584 Q61 597 46 622 Q34 639 25.5 647 Q17 655 11 658 Q4 662 0 661 Q18 671 37 658.5 Q56 646 72 627 Q90 605 107 573 Q122 546 134.5 525 Q147 504 159.5 484 Q172 464 186 441 Q200 418 219 387 Z M244 300 Q258 293 268 275 Q268 228 269 169.5 Q270 111 268 60 Q268 6 257.5 -22 Q247 -50 234 -63 Q219 -78 200 -78 Q220 -65 229.5 -41.5 Q239 -18 243 5 Q247 32 247 62 L244 300 Z M228 866 Q228 884 241 897 Q254 910 272 910 Q290 910 303 897 Q316 884 316 866 Q316 848 303 835 Q290 822 272 822 Q254 822 241 835 Q228 848 228 866 Z M355 866 Q355 884 368 897 Q381 910 399 910 Q417 910 430 897 Q443 884 443 866 Q443 848 430 835 Q417 822 399 822 Q381 822 368 835 Q355 848 355 866 Z " />
<glyph glyph-name="ydieresis" unicode="&#xff;" horiz-adv-x="648" d="M240 259 Q238 283 229 295.5 Q220 308 209 313 Q197 319 181 320 Q182 328 186 336 Q189 342 196 348 Q203 354 215 356 L221 356 L100 557 L99 557 L98 558 Q89 576 75 591 Q63 603 44.5 613.5 Q26 624 0 624 Q3 633 9 640 Q14 646 24.5 651.5 Q35 657 54 657 Q86 657 102 648 Q118 639 123 632 Q127 638 139.5 647.5 Q152 657 187 657 Q206 657 219.5 651.5 Q233 646 242 640 Q253 633 260 624 Q240 624 231 618 Q222 612 220 603 Q218 594 220 584.5 Q222 575 225 568 L307 435 L383 560 Q385 563 389.5 573.5 Q394 584 393.5 595.5 Q393 607 385 615.5 Q377 624 353 624 Q360 633 371 640 Q380 646 393.5 651.5 Q407 657 426 657 Q458 657 472 648 Q486 639 490 632 Q495 639 510 648 Q525 657 559 657 Q578 657 589 651.5 Q600 646 605 640 Q611 633 613 624 Q579 624 558 607.5 Q537 591 526 577 L373 326 L373 176 Q381 181 392 181 Q409 181 416.5 173.5 Q424 166 428 157 Q432 146 432 134 Q408 146 392 132.5 Q376 119 374 97 Q372 75 386.5 54.5 Q401 34 436 33 Q432 23 423 16 Q415 10 403 5 Q391 0 372 0 Q340 0 325.5 9 Q311 18 306 24 Q301 18 287 9 Q273 0 240 0 Q221 0 209 5 Q197 10 189 16 Q180 23 176 33 Q202 33 215.5 43 Q229 53 234 65 Q240 79 240 98 L240 259 Z M343 744 Q343 762 356 775 Q369 788 387 788 Q405 788 418 775 Q431 762 431 744 Q431 726 418 713 Q405 700 387 700 Q369 700 356 713 Q343 726 343 744 Z M216 744 Q216 762 229 775 Q242 788 260 788 Q278 788 291 775 Q304 762 304 744 Q304 726 291 713 Q278 700 260 700 Q242 700 229 713 Q216 726 216 744 Z " />
<glyph glyph-name="OE" unicode="&#x152;" horiz-adv-x="873" d="M435 761 Q444 759 452.5 755.5 Q461 752 470 748 Q481 757 501 762.5 Q521 768 554 768 L685 768 Q708 770 727 774 Q744 778 758.5 785 Q773 792 778 805 L802 785 Q790 779 784 758.5 Q778 738 776 710 Q774 682 775.5 651.5 Q777 621 779.5 595 Q782 569 785 552 Q788 535 789 535 Q788 535 775 532.5 Q762 530 746.5 534.5 Q731 539 718 555.5 Q705 572 705 608 Q705 613 705 617.5 Q705 622 704 627 Q698 618 691 614.5 Q684 611 677 610 Q669 609 661 611 Q666 629 662 644 Q659 657 647.5 669 Q636 681 607 684 L512 684 Q518 667 521.5 648.5 Q525 630 525 610 L525 375 Q530 383 537 392.5 Q544 402 554 413 Q577 438 585.5 454.5 Q594 471 596 481 Q598 492 593 499 Q606 498 617 491 Q627 485 637 471.5 Q647 458 653 433 Q655 425 656 410.5 Q657 396 655.5 381.5 Q654 367 649 354.5 Q644 342 634 338 Q632 350 627 358 Q622 365 614.5 368.5 Q607 372 593 366 Q578 359 566 343.5 Q554 328 545 312 Q536 296 531 283 Q526 270 525 267 L525 152 Q527 152 529 152.5 Q531 153 534 153 Q548 153 556 147.5 Q564 142 569 135 Q574 127 577 117 Q551 120 536.5 102 Q522 84 522 61 Q522 38 539 18.5 Q556 -1 593 -1 Q635 -1 656 18.5 Q677 38 685.5 65.5 Q694 93 693.5 122.5 Q693 152 693 172 Q693 222 711 244 Q729 266 751 273 Q777 281 809 274 Q802 258 795.5 231 Q789 204 789 174.5 Q789 145 798.5 118 Q808 91 832 74 Q824 73 813.5 54 Q803 35 800.5 12 Q798 -11 808.5 -30 Q819 -49 853 -49 L853 -70 L554 -70 Q530 -70 506.5 -65 Q483 -60 472 -52 Q458 -59 437.5 -64 Q417 -69 394.5 -72 Q372 -75 348.5 -76 Q325 -77 304 -77 Q252 -77 212.5 -68.5 Q173 -60 146 -40 Q119 -20 105 12.5 Q91 45 89 92 L89 226 Q88 253 82 272.5 Q76 292 68.5 305 Q61 318 54 324.5 Q47 331 46 332 Q47 332 53.5 337 Q60 342 68 353.5 Q76 365 82.5 384 Q89 403 89 433 L89 610 Q93 704 146.5 741.5 Q200 779 304 779 Q333 779 362 776 Q391 773 420 765 Q430 763 435 761 Z M393 227 Q392 254 386 273.5 Q380 293 372.5 306 Q365 319 358 325.5 Q351 332 350 333 Q351 333 357.5 338 Q364 343 372 354.5 Q380 366 386.5 385 Q393 404 393 434 L393 663 Q380 697 352 709 Q324 721 295 712.5 Q266 704 244 676 Q222 648 222 603 L222 410 Q224 388 230.5 373.5 Q237 359 244 350 Q251 341 257 337 Q263 333 264 332 Q263 331 257.5 326 Q252 321 245 310 Q238 299 231.5 282.5 Q225 266 222 243 L222 108 Q229 114 241 114 Q252 114 258.5 109 Q265 104 269 99 Q273 93 275 85 Q264 83 255 79 Q247 75 240 67.5 Q233 60 231 48 Q240 26 258 12.5 Q276 -1 297.5 -5.5 Q319 -10 341.5 -6.5 Q364 -3 381 10 Q386 17 390 24 L393 30 L393 227 Z M68 383 Q64 375 58.5 367 Q53 359 44 354 Q44 440 44 488 Q44 536 43 546 Q43 581 32.5 594 Q22 607 19 609 Q21 609 27.5 618.5 Q34 628 34 656 Q34 670 29 680.5 Q24 691 18 698 Q11 706 2 712 Q31 712 45 697 Q59 682 65 665 Q72 645 71 619 Q69 565 69 508.5 Q69 452 68 383 Z M68 69 Q68 30 78 5 Q88 -20 101 -35 Q114 -50 125.5 -56.5 Q137 -63 139 -64 Q122 -64 109 -58 Q96 -52 86.5 -42.5 Q77 -33 70 -21 Q63 -9 59 4 Q48 34 47 71 L44 309 Q50 306 56.5 295.5 Q63 285 68 275 Q68 228 69 174 Q70 120 68 69 Z M789 535 Q789 535 790 535 L789 535 Z " />
</font>
</svg>
